ISO-10303-21;
HEADER;
FILE_DESCRIPTION (( 'STEP AP203' ),
    '1' );
FILE_NAME ('3Dpunch.STEP',
    '2025-03-22T05:28:04',
    ( '' ),
    ( '' ),
    'SwSTEP 2.0',
    'SolidWorks 2022',
    '' );
FILE_SCHEMA (( 'CONFIG_CONTROL_DESIGN' ));
ENDSEC;

DATA;
#1 = AXIS2_PLACEMENT_3D ( 'NONE', #465, #392, #947 ) ;
#2 = DIRECTION ( 'NONE',  ( 0.000000000000000000, 1.000000000000000000, 0.000000000000000000 ) ) ;
#3 = EDGE_LOOP ( 'NONE', ( #57, #1198, #20, #783 ) ) ;
#4 = CARTESIAN_POINT ( 'NONE',  ( 47.29004999999995107, 0.000000000000000000, -27.08551727395103370 ) ) ;
#5 = CARTESIAN_POINT ( 'NONE',  ( 35.00000000000000000, -8.000000000000003553, 0.000000000000000000 ) ) ;
#6 = CARTESIAN_POINT ( 'NONE',  ( -35.00000000000000000, -8.000000000000003553, -4.286263797015736496E-15 ) ) ;
#7 = AXIS2_PLACEMENT_3D ( 'NONE', #48, #518, #1010 ) ;
#8 = EDGE_LOOP ( 'NONE', ( #153, #1123, #412 ) ) ;
#9 = DIRECTION ( 'NONE',  ( 0.000000000000000000, 0.000000000000000000, 1.000000000000000000 ) ) ;
#10 = DIRECTION ( 'NONE',  ( 0.000000000000000000, 1.000000000000000000, 0.000000000000000000 ) ) ;
#11 = EDGE_CURVE ( 'NONE', #691, #79, #909, .T. ) ;
#12 = CARTESIAN_POINT ( 'NONE',  ( -14.04611538461538878, 0.000000000000000000, 29.62729222398071727 ) ) ;
#13 = ORIENTED_EDGE ( 'NONE', *, *, #122, .F. ) ;
#14 = LINE ( 'NONE', #912, #761 ) ;
#15 = ORIENTED_EDGE ( 'NONE', *, *, #17, .T. ) ;
#16 = CARTESIAN_POINT ( 'NONE',  ( 35.00000000000000000, -35.00000000000000000, 0.000000000000000000 ) ) ;
#17 = EDGE_CURVE ( 'NONE', #348, #28, #996, .T. ) ;
#18 = AXIS2_PLACEMENT_3D ( 'NONE', #75, #1116, #450 ) ;
#19 = DIRECTION ( 'NONE',  ( 0.000000000000000000, 1.000000000000000000, 0.000000000000000000 ) ) ;
#20 = ORIENTED_EDGE ( 'NONE', *, *, #1197, .T. ) ;
#21 = VERTEX_POINT ( 'NONE', #1094 ) ;
#22 = CARTESIAN_POINT ( 'NONE',  ( 28.50000000000000000, -15.00000000000000000, 0.000000000000000000 ) ) ;
#23 = ADVANCED_FACE ( 'NONE', ( #1011 ), #138, .F. ) ;
#24 = CARTESIAN_POINT ( 'NONE',  ( -65.00000000000000000, -35.00000000000000000, 49.99999999999998579 ) ) ;
#25 = EDGE_CURVE ( 'NONE', #147, #135, #1205, .T. ) ;
#26 = AXIS2_PLACEMENT_3D ( 'NONE', #886, #390, #316 ) ;
#27 = ORIENTED_EDGE ( 'NONE', *, *, #544, .T. ) ;
#28 = VERTEX_POINT ( 'NONE', #538 ) ;
#29 = DIRECTION ( 'NONE',  ( 0.000000000000000000, 0.000000000000000000, -1.000000000000000000 ) ) ;
#30 = DIRECTION ( 'NONE',  ( 0.000000000000000000, -0.000000000000000000, 1.000000000000000000 ) ) ;
#31 = ORIENTED_EDGE ( 'NONE', *, *, #25, .F. ) ;
#32 = EDGE_CURVE ( 'NONE', #348, #721, #72, .T. ) ;
#33 = EDGE_LOOP ( 'NONE', ( #880, #701, #1183, #510 ) ) ;
#34 = DIRECTION ( 'NONE',  ( -0.000000000000000000, 0.000000000000000000, -1.000000000000000000 ) ) ;
#35 = DIRECTION ( 'NONE',  ( 0.000000000000000000, 0.000000000000000000, 1.000000000000000000 ) ) ;
#36 = VERTEX_POINT ( 'NONE', #1109 ) ;
#37 = CIRCLE ( 'NONE', #655, 36.99999999999999289 ) ;
#38 = APPROVAL ( #76, 'UNSPECIFIED' ) ;
#39 = EDGE_LOOP ( 'NONE', ( #471, #160, #441, #1047 ) ) ;
#40 = CARTESIAN_POINT ( 'NONE',  ( -35.00000000000000000, -35.00000000000000000, -4.286263797015736496E-15 ) ) ;
#41 = CARTESIAN_POINT ( 'NONE',  ( 0.000000000000000000, -8.000000000000003553, 11.60000000000000675 ) ) ;
#42 = ORIENTED_EDGE ( 'NONE', *, *, #276, .T. ) ;
#43 = AXIS2_PLACEMENT_3D ( 'NONE', #102, #19, #30 ) ;
#44 = EDGE_LOOP ( 'NONE', ( #680, #309, #1177, #189 ) ) ;
#45 = DIRECTION ( 'NONE',  ( -0.000000000000000000, -1.000000000000000000, -0.000000000000000000 ) ) ;
#46 = VECTOR ( 'NONE', #988, 1000.000000000000000 ) ;
#47 = EDGE_CURVE ( 'NONE', #533, #625, #928, .T. ) ;
#48 = CARTESIAN_POINT ( 'NONE',  ( 2.449293598294706513E-15, -8.000000000000003553, -20.00000000000000000 ) ) ;
#49 = ORIENTED_EDGE ( 'NONE', *, *, #321, .T. ) ;
#50 = ORIENTED_EDGE ( 'NONE', *, *, #292, .F. ) ;
#51 = PLANE ( 'NONE',  #973 ) ;
#52 = CARTESIAN_POINT ( 'NONE',  ( -1.531698087479299077E-15, -15.00000000000000000, 41.08223460329295307 ) ) ;
#53 = PERSON_AND_ORGANIZATION_ROLE ( 'creator' ) ;
#54 = EDGE_CURVE ( 'NONE', #1167, #147, #830, .T. ) ;
#55 = CARTESIAN_POINT ( 'NONE',  ( 28.50000000000000000, 15.00000000000000000, 0.000000000000000000 ) ) ;
#56 = ORIENTED_EDGE ( 'NONE', *, *, #379, .F. ) ;
#57 = ORIENTED_EDGE ( 'NONE', *, *, #688, .F. ) ;
#58 = CARTESIAN_POINT ( 'NONE',  ( 65.00000000000000000, -15.00000000000000000, -50.00000000000000000 ) ) ;
#59 = DIRECTION ( 'NONE',  ( 1.067522139062650425E-16, 0.000000000000000000, -1.000000000000000000 ) ) ;
#60 = DATE_AND_TIME ( #835, #306 ) ;
#61 = DIRECTION ( 'NONE',  ( -0.000000000000000000, -1.000000000000000000, -0.000000000000000000 ) ) ;
#62 = ORIENTED_EDGE ( 'NONE', *, *, #900, .F. ) ;
#63 = VERTEX_POINT ( 'NONE', #353 ) ;
#64 = PLANE ( 'NONE',  #716 ) ;
#65 = AXIS2_PLACEMENT_3D ( 'NONE', #710, #1003, #1092 ) ;
#66 = DIRECTION ( 'NONE',  ( 0.000000000000000000, 0.000000000000000000, 1.000000000000000000 ) ) ;
#67 = EDGE_CURVE ( 'NONE', #968, #169, #293, .T. ) ;
#68 = EDGE_LOOP ( 'NONE', ( #791, #989, #631 ) ) ;
#69 = CARTESIAN_POINT ( 'NONE',  ( -35.00000000000000000, -35.00000000000000000, -4.286263797015736496E-15 ) ) ;
#70 = CARTESIAN_POINT ( 'NONE',  ( -14.04611538461538878, -15.00000000000000000, 29.62729222398071727 ) ) ;
#71 = APPLICATION_PROTOCOL_DEFINITION ( 'international standard', 'config_control_design', 1994, #1025 ) ;
#72 = CIRCLE ( 'NONE', #771, 78.00000000000001421 ) ;
#73 = LINE ( 'NONE', #96, #709 ) ;
#74 = ORIENTED_EDGE ( 'NONE', *, *, #122, .T. ) ;
#75 = CARTESIAN_POINT ( 'NONE',  ( 2.449293598294706513E-15, -35.00000000000000000, -20.00000000000000000 ) ) ;
#76 = APPROVAL_STATUS ( 'not_yet_approved' ) ;
#77 = AXIS2_PLACEMENT_3D ( 'NONE', #1074, #877, #899 ) ;
#78 = CARTESIAN_POINT ( 'NONE',  ( -28.50000000000000000, 0.000000000000000000, 3.490243377569956456E-15 ) ) ;
#79 = VERTEX_POINT ( 'NONE', #453 ) ;
#80 = DIRECTION ( 'NONE',  ( 0.000000000000000000, 0.000000000000000000, 1.000000000000000000 ) ) ;
#81 = CARTESIAN_POINT ( 'NONE',  ( -65.00000000000000000, -35.00000000000000000, -50.00000000000001421 ) ) ;
#82 = VECTOR ( 'NONE', #384, 1000.000000000000000 ) ;
#83 = EDGE_CURVE ( 'NONE', #721, #1101, #73, .T. ) ;
#84 = AXIS2_PLACEMENT_3D ( 'NONE', #1236, #870, #467 ) ;
#85 = DIRECTION ( 'NONE',  ( -0.000000000000000000, -1.000000000000000000, -0.000000000000000000 ) ) ;
#86 = ORIENTED_EDGE ( 'NONE', *, *, #429, .T. ) ;
#87 = FACE_OUTER_BOUND ( 'NONE', #270, .T. ) ;
#88 = DIRECTION ( 'NONE',  ( -0.000000000000000000, -1.000000000000000000, -0.000000000000000000 ) ) ;
#89 = APPROVAL ( #814, 'UNSPECIFIED' ) ;
#90 = CARTESIAN_POINT ( 'NONE',  ( 65.00000000000000000, -15.00000000000000000, -50.00000000000000000 ) ) ;
#91 = ORIENTED_EDGE ( 'NONE', *, *, #1137, .T. ) ;
#92 = DIRECTION ( 'NONE',  ( 0.000000000000000000, 0.000000000000000000, -1.000000000000000000 ) ) ;
#93 = DIRECTION ( 'NONE',  ( 0.000000000000000000, -1.000000000000000000, 0.000000000000000000 ) ) ;
#94 = AXIS2_PLACEMENT_3D ( 'NONE', #136, #210, #986 ) ;
#95 = AXIS2_PLACEMENT_3D ( 'NONE', #530, #715, #828 ) ;
#96 = CARTESIAN_POINT ( 'NONE',  ( 2.515561355437166943E-15, 15.00000000000000000, -36.91776539670705404 ) ) ;
#97 = ORIENTED_EDGE ( 'NONE', *, *, #308, .F. ) ;
#98 = ADVANCED_FACE ( 'NONE', ( #1122 ), #275, .T. ) ;
#99 = CYLINDRICAL_SURFACE ( 'NONE', #560, 37.00000000000000000 ) ;
#100 = CARTESIAN_POINT ( 'NONE',  ( 16.22307692307691696, 0.000000000000000000, 25.16499870382101278 ) ) ;
#101 = CIRCLE ( 'NONE', #803, 32.96499999999999631 ) ;
#102 = CARTESIAN_POINT ( 'NONE',  ( -14.24999999999999822, 15.00000000000000000, 29.20937349550654716 ) ) ;
#103 = CIRCLE ( 'NONE', #545, 32.96499999999998920 ) ;
#104 = LOCAL_TIME ( 12, 28, 4.000000000000000000, #1106 ) ;
#105 = ORIENTED_EDGE ( 'NONE', *, *, #150, .T. ) ;
#106 = DIRECTION ( 'NONE',  ( 0.000000000000000000, -1.000000000000000000, 0.000000000000000000 ) ) ;
#107 = EDGE_CURVE ( 'NONE', #636, #79, #670, .T. ) ;
#108 = ORIENTED_EDGE ( 'NONE', *, *, #649, .T. ) ;
#109 = CYLINDRICAL_SURFACE ( 'NONE', #1168, 3.399999999999996803 ) ;
#110 = CARTESIAN_POINT ( 'NONE',  ( 2.449293598294706513E-15, -8.000000000000003553, -20.00000000000000000 ) ) ;
#111 = VERTEX_POINT ( 'NONE', #459 ) ;
#112 = DIRECTION ( 'NONE',  ( 0.000000000000000000, -0.5150380749100563760, -0.8571673007021110013 ) ) ;
#113 = VERTEX_POINT ( 'NONE', #837 ) ;
#114 = DIRECTION ( 'NONE',  ( -0.000000000000000000, -1.000000000000000000, -0.000000000000000000 ) ) ;
#115 = EDGE_CURVE ( 'NONE', #1018, #1215, #161, .T. ) ;
#116 = EDGE_CURVE ( 'NONE', #223, #1185, #621, .T. ) ;
#117 = AXIS2_PLACEMENT_3D ( 'NONE', #40, #45, #808 ) ;
#118 = CARTESIAN_POINT ( 'NONE',  ( 35.00000000000000000, -8.000000000000003553, 3.399999999999993250 ) ) ;
#119 = ORIENTED_EDGE ( 'NONE', *, *, #1072, .F. ) ;
#120 = EDGE_LOOP ( 'NONE', ( #86, #1163, #644, #128 ) ) ;
#121 = DIRECTION ( 'NONE',  ( 0.000000000000000000, 0.000000000000000000, 1.000000000000000000 ) ) ;
#122 = EDGE_CURVE ( 'NONE', #648, #28, #265, .T. ) ;
#123 = PLANE ( 'NONE',  #43 ) ;
#124 = ORIENTED_EDGE ( 'NONE', *, *, #1120, .F. ) ;
#125 = ORIENTED_EDGE ( 'NONE', *, *, #150, .F. ) ;
#126 = CARTESIAN_POINT ( 'NONE',  ( -35.00000000000000000, -35.00000000000000000, -3.400000000000001243 ) ) ;
#127 = LINE ( 'NONE', #311, #506 ) ;
#128 = ORIENTED_EDGE ( 'NONE', *, *, #387, .T. ) ;
#129 = VERTEX_POINT ( 'NONE', #1232 ) ;
#130 = DIRECTION ( 'NONE',  ( -0.000000000000000000, -1.000000000000000000, -0.000000000000000000 ) ) ;
#131 = CYLINDRICAL_SURFACE ( 'NONE', #1187, 32.96499999999998920 ) ;
#132 = ORIENTED_EDGE ( 'NONE', *, *, #990, .T. ) ;
#133 = AXIS2_PLACEMENT_3D ( 'NONE', #1132, #1059, #80 ) ;
#134 = EDGE_CURVE ( 'NONE', #769, #206, #139, .T. ) ;
#135 = VERTEX_POINT ( 'NONE', #945 ) ;
#136 = CARTESIAN_POINT ( 'NONE',  ( 2.515561355437166943E-15, 0.000000000000000000, 41.08223460329294596 ) ) ;
#137 = CARTESIAN_POINT ( 'NONE',  ( 2.515561355437166943E-15, 15.00000000000000000, 41.08223460329294596 ) ) ;
#138 = CYLINDRICAL_SURFACE ( 'NONE', #212, 3.399999999999996803 ) ;
#139 = CIRCLE ( 'NONE', #1184, 82.96499999999998920 ) ;
#140 = VERTEX_POINT ( 'NONE', #1040 ) ;
#141 = FACE_BOUND ( 'NONE', #930, .T. ) ;
#142 = EDGE_CURVE ( 'NONE', #661, #806, #1233, .T. ) ;
#143 = CARTESIAN_POINT ( 'NONE',  ( -35.00000000000000000, -8.000000000000003553, -3.399999999999997691 ) ) ;
#144 = CIRCLE ( 'NONE', #26, 3.399999999999993250 ) ;
#145 = CARTESIAN_POINT ( 'NONE',  ( -28.50000000000000000, -15.00000000000000000, -3.490243377569956456E-15 ) ) ;
#146 = ORIENTED_EDGE ( 'NONE', *, *, #1158, .F. ) ;
#147 = VERTEX_POINT ( 'NONE', #193 ) ;
#148 = FACE_OUTER_BOUND ( 'NONE', #391, .T. ) ;
#149 = APPLICATION_PROTOCOL_DEFINITION ( 'international standard', 'config_control_design', 1994, #1156 ) ;
#150 = EDGE_CURVE ( 'NONE', #661, #223, #475, .T. ) ;
#151 = CARTESIAN_POINT ( 'NONE',  ( -28.50000000000000000, 0.000000000000000000, 32.96499999999998209 ) ) ;
#152 = CARTESIAN_POINT ( 'NONE',  ( 0.000000000000000000, -35.00000000000000000, 15.00000000000000000 ) ) ;
#153 = ORIENTED_EDGE ( 'NONE', *, *, #462, .F. ) ;
#154 = FACE_OUTER_BOUND ( 'NONE', #33, .T. ) ;
#155 = AXIS2_PLACEMENT_3D ( 'NONE', #755, #106, #657 ) ;
#156 = AXIS2_PLACEMENT_3D ( 'NONE', #834, #59, #548 ) ;
#157 = DIRECTION ( 'NONE',  ( 0.000000000000000000, 0.000000000000000000, -1.000000000000000000 ) ) ;
#158 = PERSON_AND_ORGANIZATION ( #895, #1027 ) ;
#159 = EDGE_CURVE ( 'NONE', #625, #169, #470, .T. ) ;
#160 = ORIENTED_EDGE ( 'NONE', *, *, #1197, .F. ) ;
#161 = CIRCLE ( 'NONE', #858, 32.96499999999999631 ) ;
#162 = ORIENTED_EDGE ( 'NONE', *, *, #437, .F. ) ;
#163 = CARTESIAN_POINT ( 'NONE',  ( 53.00000000000000000, -15.00000000000000000, 43.00000000000000000 ) ) ;
#164 = DIRECTION ( 'NONE',  ( -0.000000000000000000, 1.000000000000000000, -0.000000000000000000 ) ) ;
#165 = CONICAL_SURFACE ( 'NONE', #841, 3.399999999999993250, 1.029744258676651869 ) ;
#166 = PERSON_AND_ORGANIZATION ( #895, #1027 ) ;
#167 = CARTESIAN_POINT ( 'NONE',  ( -65.00000000000000000, -35.00000000000000000, 49.99999999999998579 ) ) ;
#168 = CC_DESIGN_PERSON_AND_ORGANIZATION_ASSIGNMENT ( #179, #927, ( #1130 ) ) ;
#169 = VERTEX_POINT ( 'NONE', #1032 ) ;
#170 = CARTESIAN_POINT ( 'NONE',  ( -35.00000000000000000, -8.000000000000003553, -4.286263797015736496E-15 ) ) ;
#171 = DIRECTION ( 'NONE',  ( 0.000000000000000000, -1.000000000000000000, 0.000000000000000000 ) ) ;
#172 = AXIS2_PLACEMENT_3D ( 'NONE', #917, #525, #446 ) ;
#173 = FACE_OUTER_BOUND ( 'NONE', #39, .T. ) ;
#174 = ORIENTED_EDGE ( 'NONE', *, *, #216, .F. ) ;
#175 = FACE_BOUND ( 'NONE', #385, .T. ) ;
#176 = ADVANCED_FACE ( 'NONE', ( #173 ), #287, .F. ) ;
#177 = AXIS2_PLACEMENT_3D ( 'NONE', #442, #839, #1226 ) ;
#178 = CARTESIAN_POINT ( 'NONE',  ( 53.00000000000000000, -35.00000000000000000, 33.00000000000000711 ) ) ;
#179 = PERSON_AND_ORGANIZATION ( #895, #1027 ) ;
#180 = VECTOR ( 'NONE', #496, 1000.000000000000000 ) ;
#181 = CARTESIAN_POINT ( 'NONE',  ( 35.00000000000000000, -35.00000000000000000, -3.400000000000000355 ) ) ;
#182 = VERTEX_POINT ( 'NONE', #181 ) ;
#183 = DIRECTION ( 'NONE',  ( -1.000000000000000000, 0.000000000000000000, 0.000000000000000000 ) ) ;
#184 = CARTESIAN_POINT ( 'NONE',  ( -53.00000000000000711, -35.00000000000000000, -42.99999999999999289 ) ) ;
#185 = EDGE_CURVE ( 'NONE', #972, #733, #1237, .T. ) ;
#186 = VECTOR ( 'NONE', #788, 1000.000000000000000 ) ;
#187 = CARTESIAN_POINT ( 'NONE',  ( 47.29004999999995107, -15.00000000000000000, -27.08551727395103370 ) ) ;
#188 = AXIS2_PLACEMENT_3D ( 'NONE', #634, #357, #1022 ) ;
#189 = ORIENTED_EDGE ( 'NONE', *, *, #944, .F. ) ;
#190 = CYLINDRICAL_SURFACE ( 'NONE', #281, 37.00000000000000000 ) ;
#191 = LINE ( 'NONE', #573, #1002 ) ;
#192 = ADVANCED_FACE ( 'NONE', ( #840 ), #377, .F. ) ;
#193 = CARTESIAN_POINT ( 'NONE',  ( 4.163799117100992671E-16, -8.000000000000003553, 18.39999999999999147 ) ) ;
#194 = EDGE_LOOP ( 'NONE', ( #509, #243, #1207, #952 ) ) ;
#195 = FACE_OUTER_BOUND ( 'NONE', #946, .T. ) ;
#196 = DIRECTION ( 'NONE',  ( 0.000000000000000000, 1.000000000000000000, 0.000000000000000000 ) ) ;
#197 = VECTOR ( 'NONE', #722, 1000.000000000000000 ) ;
#198 = LINE ( 'NONE', #600, #203 ) ;
#199 = EDGE_CURVE ( 'NONE', #414, #972, #101, .T. ) ;
#200 = EDGE_LOOP ( 'NONE', ( #873, #1161, #1067, #1058, #1154, #897 ) ) ;
#201 = DIRECTION ( 'NONE',  ( -0.000000000000000000, -1.000000000000000000, -0.000000000000000000 ) ) ;
#202 = DIRECTION ( 'NONE',  ( -0.000000000000000000, -1.000000000000000000, -0.000000000000000000 ) ) ;
#203 = VECTOR ( 'NONE', #1153, 1000.000000000000000 ) ;
#204 = CARTESIAN_POINT ( 'NONE',  ( 65.00000000000000000, -35.00000000000000000, 50.00000000000000000 ) ) ;
#205 = CIRCLE ( 'NONE', #921, 3.400000000000000355 ) ;
#206 = VERTEX_POINT ( 'NONE', #187 ) ;
#207 = CARTESIAN_POINT ( 'NONE',  ( 3.577116575637162026E-15, 15.00000000000000000, 58.41874699101308721 ) ) ;
#208 = EDGE_CURVE ( 'NONE', #831, #129, #570, .T. ) ;
#209 = EDGE_LOOP ( 'NONE', ( #728, #602, #848, #876 ) ) ;
#210 = DIRECTION ( 'NONE',  ( 0.000000000000000000, 1.000000000000000000, 0.000000000000000000 ) ) ;
#211 = FACE_OUTER_BOUND ( 'NONE', #596, .T. ) ;
#212 = AXIS2_PLACEMENT_3D ( 'NONE', #152, #337, #818 ) ;
#213 = VERTEX_POINT ( 'NONE', #667 ) ;
#214 = VERTEX_POINT ( 'NONE', #167 ) ;
#215 = DIRECTION ( 'NONE',  ( 0.000000000000000000, -1.000000000000000000, 0.000000000000000000 ) ) ;
#216 = EDGE_CURVE ( 'NONE', #374, #36, #929, .T. ) ;
#217 = VECTOR ( 'NONE', #1080, 1000.000000000000000 ) ;
#218 = DIRECTION ( 'NONE',  ( -0.000000000000000000, -1.000000000000000000, -0.000000000000000000 ) ) ;
#219 = ORIENTED_EDGE ( 'NONE', *, *, #372, .F. ) ;
#220 = ORIENTED_EDGE ( 'NONE', *, *, #730, .F. ) ;
#221 = DIRECTION ( 'NONE',  ( -0.000000000000000000, -1.000000000000000000, -0.000000000000000000 ) ) ;
#222 = CARTESIAN_POINT ( 'NONE',  ( -28.50000000000000000, 0.000000000000000000, -3.490243377569956456E-15 ) ) ;
#223 = VERTEX_POINT ( 'NONE', #879 ) ;
#224 = VECTOR ( 'NONE', #523, 1000.000000000000000 ) ;
#225 = ORIENTED_EDGE ( 'NONE', *, *, #364, .T. ) ;
#226 = LINE ( 'NONE', #498, #236 ) ;
#227 = CARTESIAN_POINT ( 'NONE',  ( 28.50000000000000000, -15.00000000000000000, 32.96499999999999631 ) ) ;
#228 = ADVANCED_FACE ( 'NONE', ( #1070 ), #585, .F. ) ;
#229 = EDGE_LOOP ( 'NONE', ( #219, #638 ) ) ;
#230 = AXIS2_PLACEMENT_3D ( 'NONE', #254, #922, #66 ) ;
#231 = EDGE_LOOP ( 'NONE', ( #49, #674 ) ) ;
#232 = LINE ( 'NONE', #126, #257 ) ;
#233 = CARTESIAN_POINT ( 'NONE',  ( -65.00000000000000000, -35.00000000000000000, -50.00000000000001421 ) ) ;
#234 = DIRECTION ( 'NONE',  ( 0.000000000000000000, 1.000000000000000000, 0.000000000000000000 ) ) ;
#235 = EDGE_CURVE ( 'NONE', #21, #1096, #144, .T. ) ;
#236 = VECTOR ( 'NONE', #992, 1000.000000000000000 ) ;
#237 = ORIENTED_EDGE ( 'NONE', *, *, #790, .T. ) ;
#238 = DIRECTION ( 'NONE',  ( -0.000000000000000000, -1.000000000000000000, -0.000000000000000000 ) ) ;
#239 = DIRECTION ( 'NONE',  ( 0.000000000000000000, 0.000000000000000000, -1.000000000000000000 ) ) ;
#240 = ORIENTED_EDGE ( 'NONE', *, *, #321, .F. ) ;
#241 = ADVANCED_FACE ( 'NONE', ( #211 ), #580, .F. ) ;
#242 = AXIS2_PLACEMENT_3D ( 'NONE', #222, #1075, #768 ) ;
#243 = ORIENTED_EDGE ( 'NONE', *, *, #591, .T. ) ;
#244 = LINE ( 'NONE', #540, #381 ) ;
#245 = EDGE_CURVE ( 'NONE', #1079, #691, #1176, .T. ) ;
#246 = FACE_OUTER_BOUND ( 'NONE', #630, .T. ) ;
#247 = DATE_TIME_ROLE ( 'creation_date' ) ;
#248 = DIRECTION ( 'NONE',  ( -0.000000000000000000, -1.000000000000000000, -0.000000000000000000 ) ) ;
#249 = ORIENTED_EDGE ( 'NONE', *, *, #379, .T. ) ;
#250 = ORIENTED_EDGE ( 'NONE', *, *, #269, .F. ) ;
#251 = DIRECTION ( 'NONE',  ( -0.000000000000000000, -1.000000000000000000, -0.000000000000000000 ) ) ;
#252 = DIRECTION ( 'NONE',  ( 0.000000000000000000, 0.000000000000000000, -1.000000000000000000 ) ) ;
#253 = ADVANCED_FACE ( 'NONE', ( #965 ), #123, .T. ) ;
#254 = CARTESIAN_POINT ( 'NONE',  ( -53.00000000000000711, -15.00000000000000000, -37.99999999999999289 ) ) ;
#255 = ORIENTED_EDGE ( 'NONE', *, *, #134, .F. ) ;
#256 = CARTESIAN_POINT ( 'NONE',  ( 5.376881565599326453E-15, -15.00000000000000000, 58.41874699101308011 ) ) ;
#257 = VECTOR ( 'NONE', #221, 1000.000000000000000 ) ;
#258 = AXIS2_PLACEMENT_3D ( 'NONE', #1007, #905, #1125 ) ;
#259 = CARTESIAN_POINT ( 'NONE',  ( -16.22307692307692051, 15.00000000000000000, 25.16499870382101989 ) ) ;
#260 = COORDINATED_UNIVERSAL_TIME_OFFSET ( 7, 0, .AHEAD. ) ;
#261 = EDGE_CURVE ( 'NONE', #113, #1096, #971, .T. ) ;
#262 = DIRECTION ( 'NONE',  ( -0.000000000000000000, 1.000000000000000000, -0.000000000000000000 ) ) ;
#263 = ORIENTED_EDGE ( 'NONE', *, *, #476, .F. ) ;
#264 = DIRECTION ( 'NONE',  ( 0.000000000000000000, 0.000000000000000000, -1.000000000000000000 ) ) ;
#265 = CIRCLE ( 'NONE', #957, 27.99999999999999645 ) ;
#266 = CIRCLE ( 'NONE', #862, 3.399999999999993250 ) ;
#267 = APPROVAL_PERSON_ORGANIZATION ( #166, #89, #1228 ) ;
#268 = DIRECTION ( 'NONE',  ( 0.000000000000000000, -1.000000000000000000, 0.000000000000000000 ) ) ;
#269 = EDGE_CURVE ( 'NONE', #1150, #129, #198, .T. ) ;
#270 = EDGE_LOOP ( 'NONE', ( #319, #426, #520 ) ) ;
#271 = CARTESIAN_POINT ( 'NONE',  ( 65.00000000000000000, -35.00000000000000000, -50.00000000000000000 ) ) ;
#272 = ORIENTED_EDGE ( 'NONE', *, *, #261, .F. ) ;
#273 = CARTESIAN_POINT ( 'NONE',  ( 16.22307692307691696, 15.00000000000000000, 25.16499870382101278 ) ) ;
#274 = SECURITY_CLASSIFICATION_LEVEL ( 'unclassified' ) ;
#275 = CYLINDRICAL_SURFACE ( 'NONE', #987, 28.00000000000000000 ) ;
#276 = EDGE_CURVE ( 'NONE', #918, #881, #395, .T. ) ;
#277 = EDGE_LOOP ( 'NONE', ( #56, #240, #789, #1172 ) ) ;
#278 = FACE_OUTER_BOUND ( 'NONE', #1218, .T. ) ;
#279 = AXIS2_PLACEMENT_3D ( 'NONE', #256, #1013, #1219 ) ;
#280 = CARTESIAN_POINT ( 'NONE',  ( 65.00000000000000000, -35.00000000000000000, -50.00000000000000000 ) ) ;
#281 = AXIS2_PLACEMENT_3D ( 'NONE', #1235, #201, #490 ) ;
#282 = DIRECTION ( 'NONE',  ( 0.000000000000000000, 0.000000000000000000, -1.000000000000000000 ) ) ;
#283 = ORIENTED_EDGE ( 'NONE', *, *, #1050, .T. ) ;
#284 = FACE_OUTER_BOUND ( 'NONE', #807, .T. ) ;
#285 = DIRECTION ( 'NONE',  ( -0.000000000000000000, -1.000000000000000000, -0.000000000000000000 ) ) ;
#286 = EDGE_CURVE ( 'NONE', #140, #404, #1159, .T. ) ;
#287 = CYLINDRICAL_SURFACE ( 'NONE', #684, 32.03500000000000369 ) ;
#288 = APPROVAL_PERSON_ORGANIZATION ( #363, #38, #822 ) ;
#289 = ORIENTED_EDGE ( 'NONE', *, *, #235, .T. ) ;
#290 = CARTESIAN_POINT ( 'NONE',  ( 35.00000000000000000, -8.000000000000003553, 0.000000000000000000 ) ) ;
#291 = DIRECTION ( 'NONE',  ( -0.000000000000000000, -1.000000000000000000, -0.000000000000000000 ) ) ;
#292 = EDGE_CURVE ( 'NONE', #1150, #214, #1061, .T. ) ;
#293 = CIRCLE ( 'NONE', #230, 4.999999999999997335 ) ;
#294 = CARTESIAN_POINT ( 'NONE',  ( 44.46000000000000796, 15.00000000000000000, -23.00605137784404164 ) ) ;
#295 = EDGE_LOOP ( 'NONE', ( #1071, #592, #695, #759, #237, #513 ) ) ;
#296 = LINE ( 'NONE', #559, #537 ) ;
#297 = CARTESIAN_POINT ( 'NONE',  ( 2.449293598294706513E-15, -8.000000000000003553, -23.39999999999999503 ) ) ;
#298 = DIRECTION ( 'NONE',  ( -0.000000000000000000, -1.000000000000000000, -0.000000000000000000 ) ) ;
#299 = VERTEX_POINT ( 'NONE', #12 ) ;
#300 = CARTESIAN_POINT ( 'NONE',  ( 2.515561355437166943E-15, 0.000000000000000000, -36.91776539670705404 ) ) ;
#301 = ORIENTED_EDGE ( 'NONE', *, *, #961, .F. ) ;
#302 = DIRECTION ( 'NONE',  ( -0.000000000000000000, 1.000000000000000000, -0.000000000000000000 ) ) ;
#303 = AXIS2_PLACEMENT_3D ( 'NONE', #700, #774, #686 ) ;
#304 = DIRECTION ( 'NONE',  ( 0.000000000000000000, 0.000000000000000000, -1.000000000000000000 ) ) ;
#305 = VECTOR ( 'NONE', #663, 1000.000000000000000 ) ;
#306 = LOCAL_TIME ( 12, 28, 4.000000000000000000, #1009 ) ;
#307 = ORIENTED_EDGE ( 'NONE', *, *, #216, .T. ) ;
#308 = EDGE_CURVE ( 'NONE', #214, #918, #865, .T. ) ;
#309 = ORIENTED_EDGE ( 'NONE', *, *, #825, .T. ) ;
#310 = CARTESIAN_POINT ( 'NONE',  ( -44.46000000000000085, 15.00000000000000000, -23.00605137784404874 ) ) ;
#311 = CARTESIAN_POINT ( 'NONE',  ( 47.29004999999995107, -15.00000000000000000, -27.08551727395103370 ) ) ;
#312 = ORIENTED_EDGE ( 'NONE', *, *, #720, .F. ) ;
#313 = EDGE_LOOP ( 'NONE', ( #42, #589, #331, #1005 ) ) ;
#314 = CARTESIAN_POINT ( 'NONE',  ( 53.00000000000000000, -35.00000000000000000, 38.00000000000000711 ) ) ;
#315 = CIRCLE ( 'NONE', #1201, 3.399999999999993250 ) ;
#316 = DIRECTION ( 'NONE',  ( 0.000000000000000000, 0.000000000000000000, -1.000000000000000000 ) ) ;
#317 = VECTOR ( 'NONE', #1117, 1000.000000000000000 ) ;
#318 = ORIENTED_EDGE ( 'NONE', *, *, #413, .F. ) ;
#319 = ORIENTED_EDGE ( 'NONE', *, *, #605, .F. ) ;
#320 = CARTESIAN_POINT ( 'NONE',  ( 14.04611538461542430, 0.000000000000000000, 29.62729222398072437 ) ) ;
#321 = EDGE_CURVE ( 'NONE', #1169, #656, #346, .T. ) ;
#322 = FACE_OUTER_BOUND ( 'NONE', #1012, .T. ) ;
#323 = VECTOR ( 'NONE', #642, 1000.000000000000000 ) ;
#324 = DIRECTION ( 'NONE',  ( -0.000000000000000000, -1.000000000000000000, -0.000000000000000000 ) ) ;
#325 = CIRCLE ( 'NONE', #84, 4.999999999999997335 ) ;
#326 = EDGE_LOOP ( 'NONE', ( #651, #962, #454, #418 ) ) ;
#327 = DIRECTION ( 'NONE',  ( 0.000000000000000000, 0.000000000000000000, -1.000000000000000000 ) ) ;
#328 = EDGE_CURVE ( 'NONE', #113, #21, #1082, .T. ) ;
#329 = CARTESIAN_POINT ( 'NONE',  ( 65.00000000000000000, -15.00000000000000000, -50.00000000000000000 ) ) ;
#330 = CARTESIAN_POINT ( 'NONE',  ( -35.00000000000000000, -35.00000000000000000, 3.399999999999992362 ) ) ;
#331 = ORIENTED_EDGE ( 'NONE', *, *, #611, .F. ) ;
#332 = CARTESIAN_POINT ( 'NONE',  ( -28.50000000000000000, -15.00000000000000000, -3.490243377569956456E-15 ) ) ;
#333 = CARTESIAN_POINT ( 'NONE',  ( 65.00000000000000000, -35.00000000000000000, 50.00000000000000000 ) ) ;
#334 = CARTESIAN_POINT ( 'NONE',  ( -35.00000000000000000, -8.000000000000003553, -3.399999999999997691 ) ) ;
#335 = EDGE_CURVE ( 'NONE', #206, #1018, #127, .T. ) ;
#336 = CIRCLE ( 'NONE', #279, 32.03499999999999659 ) ;
#337 = DIRECTION ( 'NONE',  ( -0.000000000000000000, -1.000000000000000000, -0.000000000000000000 ) ) ;
#338 = EDGE_CURVE ( 'NONE', #581, #374, #487, .T. ) ;
#339 = AXIS2_PLACEMENT_3D ( 'NONE', #375, #572, #92 ) ;
#340 = EDGE_LOOP ( 'NONE', ( #503, #910, #283, #125 ) ) ;
#341 = CARTESIAN_POINT ( 'NONE',  ( -14.25000000000000000, 0.000000000000000000, 20.54111730164647298 ) ) ;
#342 = CARTESIAN_POINT ( 'NONE',  ( -7.113465298397252423E-15, -5.957073895306294276, 15.00000000000000000 ) ) ;
#343 = CALENDAR_DATE ( 2025, 22, 3 ) ;
#344 = CARTESIAN_POINT ( 'NONE',  ( 28.50000000000000000, -15.00000000000000000, 0.000000000000000000 ) ) ;
#345 = CARTESIAN_POINT ( 'NONE',  ( 4.163799117100997108E-16, -35.00000000000000000, 18.39999999999999503 ) ) ;
#346 = CIRCLE ( 'NONE', #1046, 4.999999999999997335 ) ;
#347 = EDGE_CURVE ( 'NONE', #424, #63, #622, .T. ) ;
#348 = VERTEX_POINT ( 'NONE', #294 ) ;
#349 = CARTESIAN_POINT ( 'NONE',  ( -65.00000000000000000, -15.00000000000000000, 49.99999999999998579 ) ) ;
#350 = FACE_OUTER_BOUND ( 'NONE', #546, .T. ) ;
#351 = PERSON_AND_ORGANIZATION ( #895, #1027 ) ;
#352 = CARTESIAN_POINT ( 'NONE',  ( 53.00000000000000000, -35.00000000000000000, 33.00000000000000711 ) ) ;
#353 = CARTESIAN_POINT ( 'NONE',  ( -47.29004999999996528, 0.000000000000000000, -27.08551727395103370 ) ) ;
#354 = ORIENTED_EDGE ( 'NONE', *, *, #107, .F. ) ;
#355 = FACE_OUTER_BOUND ( 'NONE', #378, .T. ) ;
#356 = DIRECTION ( 'NONE',  ( 0.000000000000000000, 0.000000000000000000, -1.000000000000000000 ) ) ;
#357 = DIRECTION ( 'NONE',  ( 0.000000000000000000, 0.000000000000000000, 1.000000000000000000 ) ) ;
#358 = CARTESIAN_POINT ( 'NONE',  ( -35.00000000000000000, -35.00000000000000000, -4.286263797015736496E-15 ) ) ;
#359 = EDGE_LOOP ( 'NONE', ( #74, #985, #719, #225 ) ) ;
#360 = DIRECTION ( 'NONE',  ( -0.000000000000000000, -1.000000000000000000, -0.000000000000000000 ) ) ;
#361 = CONICAL_SURFACE ( 'NONE', #479, 3.399999999999993250, 1.029744258676651869 ) ;
#362 = CARTESIAN_POINT ( 'NONE',  ( -16.22307692307692051, 0.000000000000000000, 25.16499870382101989 ) ) ;
#363 = PERSON_AND_ORGANIZATION ( #895, #1027 ) ;
#364 = EDGE_CURVE ( 'NONE', #497, #648, #956, .T. ) ;
#365 = CARTESIAN_POINT ( 'NONE',  ( -28.50000000000000000, 15.00000000000000000, 3.490243377569956456E-15 ) ) ;
#366 = ORIENTED_EDGE ( 'NONE', *, *, #780, .T. ) ;
#367 = DIRECTION ( 'NONE',  ( -0.000000000000000000, -1.000000000000000000, -0.000000000000000000 ) ) ;
#368 = VECTOR ( 'NONE', #488, 1000.000000000000000 ) ;
#369 = PERSON_AND_ORGANIZATION ( #895, #1027 ) ;
#370 = SECURITY_CLASSIFICATION ( '', '', #274 ) ;
#371 = CIRCLE ( 'NONE', #939, 4.999999999999997335 ) ;
#372 = EDGE_CURVE ( 'NONE', #898, #775, #371, .T. ) ;
#373 = DIRECTION ( 'NONE',  ( 0.000000000000000000, -1.000000000000000000, 0.000000000000000000 ) ) ;
#374 = VERTEX_POINT ( 'NONE', #507 ) ;
#375 = CARTESIAN_POINT ( 'NONE',  ( 5.376881565599326453E-15, 0.000000000000000000, 58.41874699101308011 ) ) ;
#376 = DIRECTION ( 'NONE',  ( -0.000000000000000000, -0.000000000000000000, -1.000000000000000000 ) ) ;
#377 = CYLINDRICAL_SURFACE ( 'NONE', #524, 3.399999999999996803 ) ;
#378 = EDGE_LOOP ( 'NONE', ( #432, #1083, #1102, #312 ) ) ;
#379 = EDGE_CURVE ( 'NONE', #656, #775, #536, .T. ) ;
#380 = CARTESIAN_POINT ( 'NONE',  ( 14.04611538461542430, -15.00000000000000000, 29.62729222398072437 ) ) ;
#381 = VECTOR ( 'NONE', #645, 1000.000000000000000 ) ;
#382 = CARTESIAN_POINT ( 'NONE',  ( -28.50000000000000000, -15.00000000000000000, -3.490243377569956456E-15 ) ) ;
#383 = AXIS2_PLACEMENT_3D ( 'NONE', #271, #183, #766 ) ;
#384 = DIRECTION ( 'NONE',  ( 0.000000000000000000, 0.000000000000000000, 1.000000000000000000 ) ) ;
#385 = EDGE_LOOP ( 'NONE', ( #162, #1089 ) ) ;
#386 = FACE_OUTER_BOUND ( 'NONE', #1225, .T. ) ;
#387 = EDGE_CURVE ( 'NONE', #464, #881, #1088, .T. ) ;
#388 = DIRECTION ( 'NONE',  ( 0.000000000000000000, 0.000000000000000000, -1.000000000000000000 ) ) ;
#389 = AXIS2_PLACEMENT_3D ( 'NONE', #55, #810, #1100 ) ;
#390 = DIRECTION ( 'NONE',  ( -0.000000000000000000, -1.000000000000000000, -0.000000000000000000 ) ) ;
#391 = EDGE_LOOP ( 'NONE', ( #419, #1199, #707, #891 ) ) ;
#392 = DIRECTION ( 'NONE',  ( 0.000000000000000000, -1.000000000000000000, 0.000000000000000000 ) ) ;
#393 = DIRECTION ( 'NONE',  ( 0.000000000000000000, 0.000000000000000000, 1.000000000000000000 ) ) ;
#394 = PRODUCT_DEFINITION ( 'UNKNOWN', '', #1130, #1140 ) ;
#395 = LINE ( 'NONE', #502, #368 ) ;
#396 = VERTEX_POINT ( 'NONE', #512 ) ;
#397 = CARTESIAN_POINT ( 'NONE',  ( 65.00000000000000000, -35.00000000000000000, -50.00000000000000000 ) ) ;
#398 = VERTEX_POINT ( 'NONE', #718 ) ;
#399 = DIRECTION ( 'NONE',  ( 0.000000000000000000, 0.000000000000000000, -1.000000000000000000 ) ) ;
#400 = AXIS2_PLACEMENT_3D ( 'NONE', #69, #742, #1103 ) ;
#401 = ADVANCED_FACE ( 'NONE', ( #1181 ), #890, .T. ) ;
#402 = CARTESIAN_POINT ( 'NONE',  ( 53.00000000000000000, -15.00000000000000000, 38.00000000000000711 ) ) ;
#403 = EDGE_LOOP ( 'NONE', ( #887, #318 ) ) ;
#404 = VERTEX_POINT ( 'NONE', #445 ) ;
#405 = PLANE ( 'NONE',  #448 ) ;
#406 = VECTOR ( 'NONE', #1212, 1000.000000000000000 ) ;
#407 = DIRECTION ( 'NONE',  ( -0.000000000000000000, 1.000000000000000000, -0.000000000000000000 ) ) ;
#408 = ORIENTED_EDGE ( 'NONE', *, *, #1044, .F. ) ;
#409 = EDGE_LOOP ( 'NONE', ( #1192, #978, #853, #966 ) ) ;
#410 = FACE_OUTER_BOUND ( 'NONE', #277, .T. ) ;
#411 = CARTESIAN_POINT ( 'NONE',  ( 3.577116575637162026E-15, 15.00000000000000000, 21.41874699101308721 ) ) ;
#412 = ORIENTED_EDGE ( 'NONE', *, *, #937, .T. ) ;
#413 = EDGE_CURVE ( 'NONE', #135, #558, #1210, .T. ) ;
#414 = VERTEX_POINT ( 'NONE', #227 ) ;
#415 = CARTESIAN_POINT ( 'NONE',  ( 53.00000000000000000, -35.00000000000000000, 43.00000000000000000 ) ) ;
#416 = AXIS2_PLACEMENT_3D ( 'NONE', #332, #215, #327 ) ;
#417 = FACE_OUTER_BOUND ( 'NONE', #359, .T. ) ;
#418 = ORIENTED_EDGE ( 'NONE', *, *, #159, .F. ) ;
#419 = ORIENTED_EDGE ( 'NONE', *, *, #611, .T. ) ;
#420 = CARTESIAN_POINT ( 'NONE',  ( 0.000000000000000000, -35.00000000000000000, 15.00000000000000000 ) ) ;
#421 = ADVANCED_FACE ( 'NONE', ( #417 ), #799, .T. ) ;
#422 = DIRECTION ( 'NONE',  ( 0.000000000000000000, 0.000000000000000000, 1.000000000000000000 ) ) ;
#423 = AXIS2_PLACEMENT_3D ( 'NONE', #6, #218, #304 ) ;
#424 = VERTEX_POINT ( 'NONE', #151 ) ;
#425 = AXIS2_PLACEMENT_3D ( 'NONE', #473, #291, #1157 ) ;
#426 = ORIENTED_EDGE ( 'NONE', *, *, #1120, .T. ) ;
#427 = DIRECTION ( 'NONE',  ( -0.000000000000000000, 1.000000000000000000, -0.000000000000000000 ) ) ;
#428 = CC_DESIGN_PERSON_AND_ORGANIZATION_ASSIGNMENT ( #732, #555, ( #1130 ) ) ;
#429 = EDGE_CURVE ( 'NONE', #881, #831, #908, .T. ) ;
#430 = FACE_OUTER_BOUND ( 'NONE', #623, .T. ) ;
#431 = VERTEX_POINT ( 'NONE', #41 ) ;
#432 = ORIENTED_EDGE ( 'NONE', *, *, #937, .F. ) ;
#433 = DIRECTION ( 'NONE',  ( 0.000000000000000000, 0.000000000000000000, 1.000000000000000000 ) ) ;
#434 =( NAMED_UNIT ( * ) PLANE_ANGLE_UNIT ( ) SI_UNIT ( $, .RADIAN. ) );
#435 = COORDINATED_UNIVERSAL_TIME_OFFSET ( 7, 0, .AHEAD. ) ;
#436 = LINE ( 'NONE', #896, #224 ) ;
#437 = EDGE_CURVE ( 'NONE', #169, #968, #586, .T. ) ;
#438 = CIRCLE ( 'NONE', #18, 3.400000000000000355 ) ;
#439 = CARTESIAN_POINT ( 'NONE',  ( 44.46000000000000796, 15.00000000000000000, -23.00605137784404164 ) ) ;
#440 = CIRCLE ( 'NONE', #258, 27.99999999999999645 ) ;
#441 = ORIENTED_EDGE ( 'NONE', *, *, #871, .F. ) ;
#442 = CARTESIAN_POINT ( 'NONE',  ( -35.00000000000000000, -35.00000000000000000, -4.286263797015736496E-15 ) ) ;
#443 = DIRECTION ( 'NONE',  ( 0.000000000000000000, 0.000000000000000000, 1.000000000000000000 ) ) ;
#444 = MECHANICAL_CONTEXT ( 'NONE', #1156, 'mechanical' ) ;
#445 = CARTESIAN_POINT ( 'NONE',  ( 3.577116575637162026E-15, 0.000000000000000000, 21.41874699101308721 ) ) ;
#446 = DIRECTION ( 'NONE',  ( 0.000000000000000000, 0.000000000000000000, 1.000000000000000000 ) ) ;
#447 = ADVANCED_FACE ( 'NONE', ( #430 ), #131, .T. ) ;
#448 = AXIS2_PLACEMENT_3D ( 'NONE', #597, #802, #34 ) ;
#449 = ORIENTED_EDGE ( 'NONE', *, *, #745, .T. ) ;
#450 = DIRECTION ( 'NONE',  ( 0.000000000000000000, 0.000000000000000000, -1.000000000000000000 ) ) ;
#452 = DIRECTION ( 'NONE',  ( -0.000000000000000000, -1.000000000000000000, -0.000000000000000000 ) ) ;
#451 = CC_DESIGN_SECURITY_CLASSIFICATION ( #370, ( #1130 ) ) ;
#453 = CARTESIAN_POINT ( 'NONE',  ( -35.00000000000000000, -35.00000000000000000, 3.399999999999996358 ) ) ;
#454 = ORIENTED_EDGE ( 'NONE', *, *, #67, .T. ) ;
#455 = FACE_BOUND ( 'NONE', #403, .T. ) ;
#456 = EDGE_CURVE ( 'NONE', #464, #213, #436, .T. ) ;
#457 = DIRECTION ( 'NONE',  ( 0.000000000000000000, -0.5150380749100563760, -0.8571673007021110013 ) ) ;
#458 = PERSON_AND_ORGANIZATION ( #895, #1027 ) ;
#459 = CARTESIAN_POINT ( 'NONE',  ( -28.50000000000000000, -15.00000000000000000, 32.96499999999998209 ) ) ;
#460 = EDGE_LOOP ( 'NONE', ( #146, #979, #301, #975, #1084, #784 ) ) ;
#461 = CYLINDRICAL_SURFACE ( 'NONE', #177, 3.399999999999996803 ) ;
#462 = EDGE_CURVE ( 'NONE', #1079, #1227, #1196, .T. ) ;
#463 = CARTESIAN_POINT ( 'NONE',  ( 14.04611538461542430, -15.00000000000000000, 29.62729222398072437 ) ) ;
#464 = VERTEX_POINT ( 'NONE', #817 ) ;
#465 = CARTESIAN_POINT ( 'NONE',  ( 0.000000000000000000, -15.00000000000000000, 0.000000000000000000 ) ) ;
#466 = VECTOR ( 'NONE', #407, 1000.000000000000000 ) ;
#467 = DIRECTION ( 'NONE',  ( 0.000000000000000000, 0.000000000000000000, 1.000000000000000000 ) ) ;
#468 = ADVANCED_FACE ( 'NONE', ( #1204 ), #901, .T. ) ;
#469 = ADVANCED_FACE ( 'NONE', ( #915 ), #1133, .T. ) ;
#470 = LINE ( 'NONE', #575, #566 ) ;
#471 = ORIENTED_EDGE ( 'NONE', *, *, #1064, .T. ) ;
#472 = CARTESIAN_POINT ( 'NONE',  ( 2.449293598294706513E-15, -8.000000000000003553, -20.00000000000000000 ) ) ;
#473 = CARTESIAN_POINT ( 'NONE',  ( 2.449293598294706513E-15, -8.000000000000003553, -20.00000000000000000 ) ) ;
#474 = UNCERTAINTY_MEASURE_WITH_UNIT (LENGTH_MEASURE( 1.000000000000000082E-05 ), #640, 'distance_accuracy_value', 'NONE');
#475 = LINE ( 'NONE', #550, #726 ) ;
#476 = EDGE_CURVE ( 'NONE', #36, #396, #205, .T. ) ;
#477 = ORIENTED_EDGE ( 'NONE', *, *, #338, .F. ) ;
#478 = CARTESIAN_POINT ( 'NONE',  ( 35.00000000000000000, -35.00000000000000000, 0.000000000000000000 ) ) ;
#479 = AXIS2_PLACEMENT_3D ( 'NONE', #472, #662, #942 ) ;
#480 = DIRECTION ( 'NONE',  ( 0.000000000000000000, 0.000000000000000000, -1.000000000000000000 ) ) ;
#481 = AXIS2_PLACEMENT_3D ( 'NONE', #633, #452, #731 ) ;
#482 = DIRECTION ( 'NONE',  ( 0.000000000000000000, 1.000000000000000000, 0.000000000000000000 ) ) ;
#483 = CC_DESIGN_PERSON_AND_ORGANIZATION_ASSIGNMENT ( #369, #738, ( #993 ) ) ;
#484 = ORIENTED_EDGE ( 'NONE', *, *, #269, .T. ) ;
#485 = CARTESIAN_POINT ( 'NONE',  ( 28.50000000000000000, -15.00000000000000000, 0.000000000000000000 ) ) ;
#486 = DIRECTION ( 'NONE',  ( 0.000000000000000000, 0.000000000000000000, 1.000000000000000000 ) ) ;
#487 = CIRCLE ( 'NONE', #1229, 3.399999999999993250 ) ;
#488 = DIRECTION ( 'NONE',  ( -0.000000000000000000, -0.000000000000000000, -1.000000000000000000 ) ) ;
#489 = ORIENTED_EDGE ( 'NONE', *, *, #413, .T. ) ;
#490 = DIRECTION ( 'NONE',  ( 0.000000000000000000, 0.000000000000000000, -1.000000000000000000 ) ) ;
#491 = ORIENTED_EDGE ( 'NONE', *, *, #276, .F. ) ;
#492 = CARTESIAN_POINT ( 'NONE',  ( 35.00000000000000000, -8.000000000000003553, 0.000000000000000000 ) ) ;
#493 = ADVANCED_FACE ( 'NONE', ( #322 ), #568, .F. ) ;
#494 = DIRECTION ( 'NONE',  ( 1.049727191138617093E-16, -0.5150380749100563760, 0.8571673007021110013 ) ) ;
#495 = ORIENTED_EDGE ( 'NONE', *, *, #508, .T. ) ;
#496 = DIRECTION ( 'NONE',  ( -0.000000000000000000, 1.000000000000000000, -0.000000000000000000 ) ) ;
#497 = VERTEX_POINT ( 'NONE', #273 ) ;
#498 = CARTESIAN_POINT ( 'NONE',  ( 2.449293598294706513E-15, -35.00000000000000000, -23.39999999999999858 ) ) ;
#499 = CIRCLE ( 'NONE', #1057, 4.999999999999997335 ) ;
#500 = ADVANCED_FACE ( 'NONE', ( #652 ), #1036, .F. ) ;
#501 = AXIS2_PLACEMENT_3D ( 'NONE', #1203, #171, #356 ) ;
#502 = CARTESIAN_POINT ( 'NONE',  ( -65.00000000000000000, -15.00000000000000000, -50.00000000000001421 ) ) ;
#503 = ORIENTED_EDGE ( 'NONE', *, *, #522, .F. ) ;
#504 = EDGE_LOOP ( 'NONE', ( #515, #1234, #15, #842 ) ) ;
#505 = DIRECTION ( 'NONE',  ( 0.000000000000000000, 0.000000000000000000, -1.000000000000000000 ) ) ;
#506 = VECTOR ( 'NONE', #588, 1000.000000000000000 ) ;
#507 = CARTESIAN_POINT ( 'NONE',  ( 2.865673510004805780E-15, -8.000000000000003553, -16.60000000000000853 ) ) ;
#508 = EDGE_CURVE ( 'NONE', #374, #581, #643, .T. ) ;
#509 = ORIENTED_EDGE ( 'NONE', *, *, #199, .F. ) ;
#510 = ORIENTED_EDGE ( 'NONE', *, *, #107, .T. ) ;
#511 = CARTESIAN_POINT ( 'NONE',  ( 53.00000000000000000, -35.00000000000000000, 38.00000000000000711 ) ) ;
#512 = CARTESIAN_POINT ( 'NONE',  ( 2.449293598294706513E-15, -35.00000000000000000, -23.40000000000000213 ) ) ;
#513 = ORIENTED_EDGE ( 'NONE', *, *, #199, .T. ) ;
#514 = EDGE_CURVE ( 'NONE', #775, #898, #1107, .T. ) ;
#515 = ORIENTED_EDGE ( 'NONE', *, *, #83, .F. ) ;
#516 = CARTESIAN_POINT ( 'NONE',  ( 3.577116575637162026E-15, 0.000000000000000000, 58.41874699101308721 ) ) ;
#517 = AXIS2_PLACEMENT_3D ( 'NONE', #314, #889, #433 ) ;
#518 = DIRECTION ( 'NONE',  ( -0.000000000000000000, -1.000000000000000000, -0.000000000000000000 ) ) ;
#519 = ORIENTED_EDGE ( 'NONE', *, *, #514, .T. ) ;
#520 = ORIENTED_EDGE ( 'NONE', *, *, #338, .T. ) ;
#521 = LINE ( 'NONE', #415, #217 ) ;
#522 = EDGE_CURVE ( 'NONE', #721, #661, #624, .T. ) ;
#523 = DIRECTION ( 'NONE',  ( 1.000000000000000000, -0.000000000000000000, 1.067522139062650425E-16 ) ) ;
#524 = AXIS2_PLACEMENT_3D ( 'NONE', #1148, #1026, #282 ) ;
#525 = DIRECTION ( 'NONE',  ( 0.000000000000000000, 1.000000000000000000, 0.000000000000000000 ) ) ;
#526 = AXIS2_PLACEMENT_3D ( 'NONE', #1043, #10, #779 ) ;
#527 = ORIENTED_EDGE ( 'NONE', *, *, #328, .T. ) ;
#528 = LINE ( 'NONE', #1124, #815 ) ;
#529 = AXIS2_PLACEMENT_3D ( 'NONE', #750, #61, #805 ) ;
#530 = CARTESIAN_POINT ( 'NONE',  ( -35.00000000000000000, -8.000000000000003553, -4.286263797015736496E-15 ) ) ;
#531 = ADVANCED_FACE ( 'NONE', ( #756 ), #109, .F. ) ;
#532 = DIRECTION ( 'NONE',  ( -0.000000000000000000, 1.000000000000000000, -0.000000000000000000 ) ) ;
#533 = VERTEX_POINT ( 'NONE', #184 ) ;
#534 = ORIENTED_EDGE ( 'NONE', *, *, #328, .F. ) ;
#535 = DIRECTION ( 'NONE',  ( -0.000000000000000000, -1.000000000000000000, -0.000000000000000000 ) ) ;
#536 = LINE ( 'NONE', #352, #406 ) ;
#537 = VECTOR ( 'NONE', #650, 1000.000000000000000 ) ;
#538 = CARTESIAN_POINT ( 'NONE',  ( 44.46000000000000796, 0.000000000000000000, -23.00605137784404164 ) ) ;
#539 = EDGE_LOOP ( 'NONE', ( #1041, #119 ) ) ;
#540 = CARTESIAN_POINT ( 'NONE',  ( -47.29004999999996528, -15.00000000000000000, -27.08551727395103370 ) ) ;
#541 =( NAMED_UNIT ( * ) SI_UNIT ( $, .STERADIAN. ) SOLID_ANGLE_UNIT ( ) );
#542 = PERSON_AND_ORGANIZATION_ROLE ( 'classification_officer' ) ;
#543 = ORIENTED_EDGE ( 'NONE', *, *, #544, .F. ) ;
#544 = EDGE_CURVE ( 'NONE', #147, #431, #1086, .T. ) ;
#545 = AXIS2_PLACEMENT_3D ( 'NONE', #382, #93, #480 ) ;
#546 = EDGE_LOOP ( 'NONE', ( #132, #754, #255, #612 ) ) ;
#547 = FACE_OUTER_BOUND ( 'NONE', #68, .T. ) ;
#548 = DIRECTION ( 'NONE',  ( -1.000000000000000000, 0.000000000000000000, -1.067522139062650425E-16 ) ) ;
#549 = CALENDAR_DATE ( 2025, 22, 3 ) ;
#550 = CARTESIAN_POINT ( 'NONE',  ( -44.46000000000000085, 15.00000000000000000, -23.00605137784404874 ) ) ;
#551 = EDGE_CURVE ( 'NONE', #213, #1150, #1049, .T. ) ;
#552 = ORIENTED_EDGE ( 'NONE', *, *, #286, .F. ) ;
#553 = LINE ( 'NONE', #1216, #197 ) ;
#554 = CARTESIAN_POINT ( 'NONE',  ( 28.50000000000000000, 0.000000000000000000, 32.96499999999999631 ) ) ;
#555 = PERSON_AND_ORGANIZATION_ROLE ( 'design_supplier' ) ;
#556 = CARTESIAN_POINT ( 'NONE',  ( 2.865673510004806174E-15, -35.00000000000000000, -16.60000000000000497 ) ) ;
#557 = CIRCLE ( 'NONE', #94, 78.00000000000001421 ) ;
#558 = VERTEX_POINT ( 'NONE', #677 ) ;
#559 = CARTESIAN_POINT ( 'NONE',  ( 0.000000000000000000, -35.00000000000000000, 11.60000000000000320 ) ) ;
#560 = AXIS2_PLACEMENT_3D ( 'NONE', #843, #935, #675 ) ;
#561 = FACE_OUTER_BOUND ( 'NONE', #1090, .T. ) ;
#562 = ADVANCED_FACE ( 'NONE', ( #659 ), #948, .F. ) ;
#563 = DIRECTION ( 'NONE',  ( 0.000000000000000000, 0.000000000000000000, 1.000000000000000000 ) ) ;
#564 = ORIENTED_EDGE ( 'NONE', *, *, #286, .T. ) ;
#565 = DIRECTION ( 'NONE',  ( 0.000000000000000000, 0.000000000000000000, -1.000000000000000000 ) ) ;
#566 = VECTOR ( 'NONE', #847, 1000.000000000000000 ) ;
#567 = DIRECTION ( 'NONE',  ( 0.000000000000000000, 0.000000000000000000, -1.000000000000000000 ) ) ;
#568 = CONICAL_SURFACE ( 'NONE', #7, 3.399999999999993250, 1.029744258676651869 ) ;
#569 = ADVANCED_FACE ( 'NONE', ( #936 ), #165, .F. ) ;
#570 = LINE ( 'NONE', #90, #82 ) ;
#571 = VERTEX_POINT ( 'NONE', #963 ) ;
#572 = DIRECTION ( 'NONE',  ( -0.000000000000000000, 1.000000000000000000, -0.000000000000000000 ) ) ;
#573 = CARTESIAN_POINT ( 'NONE',  ( 2.865673510004805780E-15, -8.000000000000003553, -16.60000000000000853 ) ) ;
#574 = CC_DESIGN_DATE_AND_TIME_ASSIGNMENT ( #724, #247, ( #394 ) ) ;
#575 = CARTESIAN_POINT ( 'NONE',  ( -53.00000000000000711, -35.00000000000000000, -32.99999999999999289 ) ) ;
#576 = ORIENTED_EDGE ( 'NONE', *, *, #551, .F. ) ;
#577 = CYLINDRICAL_SURFACE ( 'NONE', #1039, 32.96499999999999631 ) ;
#578 = AXIS2_PLACEMENT_3D ( 'NONE', #420, #1068, #1186 ) ;
#579 = CARTESIAN_POINT ( 'NONE',  ( 53.00000000000000000, -15.00000000000000000, 38.00000000000000711 ) ) ;
#580 = CYLINDRICAL_SURFACE ( 'NONE', #303, 3.399999999999996803 ) ;
#581 = VERTEX_POINT ( 'NONE', #297 ) ;
#582 = EDGE_CURVE ( 'NONE', #1004, #111, #103, .T. ) ;
#583 = FACE_BOUND ( 'NONE', #229, .T. ) ;
#584 = DIRECTION ( 'NONE',  ( -1.067522139062650425E-16, 0.000000000000000000, 1.000000000000000000 ) ) ;
#585 = CONICAL_SURFACE ( 'NONE', #423, 3.399999999999993250, 1.029744258676651869 ) ;
#586 = CIRCLE ( 'NONE', #65, 4.999999999999997335 ) ;
#587 = LOCAL_TIME ( 12, 28, 4.000000000000000000, #260 ) ;
#588 = DIRECTION ( 'NONE',  ( -0.000000000000000000, 1.000000000000000000, -0.000000000000000000 ) ) ;
#589 = ORIENTED_EDGE ( 'NONE', *, *, #387, .F. ) ;
#590 = DIRECTION ( 'NONE',  ( -0.000000000000000000, -1.000000000000000000, -0.000000000000000000 ) ) ;
#591 = EDGE_CURVE ( 'NONE', #414, #1215, #762, .T. ) ;
#592 = ORIENTED_EDGE ( 'NONE', *, *, #582, .T. ) ;
#593 = FACE_OUTER_BOUND ( 'NONE', #313, .T. ) ;
#594 = DIRECTION ( 'NONE',  ( 1.049727191138617093E-16, -0.5150380749100563760, 0.8571673007021110013 ) ) ;
#595 = ORIENTED_EDGE ( 'NONE', *, *, #1050, .F. ) ;
#596 = EDGE_LOOP ( 'NONE', ( #174, #477, #778, #984 ) ) ;
#597 = CARTESIAN_POINT ( 'NONE',  ( -65.00000000000000000, -35.00000000000000000, -50.00000000000001421 ) ) ;
#598 = CIRCLE ( 'NONE', #1077, 3.400000000000000355 ) ;
#599 = CIRCLE ( 'NONE', #974, 3.400000000000000355 ) ;
#600 = CARTESIAN_POINT ( 'NONE',  ( 65.00000000000000000, -35.00000000000000000, 50.00000000000000000 ) ) ;
#601 = ORIENTED_EDGE ( 'NONE', *, *, #983, .F. ) ;
#602 = ORIENTED_EDGE ( 'NONE', *, *, #790, .F. ) ;
#603 = DIRECTION ( 'NONE',  ( 0.000000000000000000, -1.000000000000000000, 0.000000000000000000 ) ) ;
#604 = VECTOR ( 'NONE', #1191, 1000.000000000000000 ) ;
#605 = EDGE_CURVE ( 'NONE', #398, #374, #191, .T. ) ;
#606 = CARTESIAN_POINT ( 'NONE',  ( -35.00000000000000000, -8.000000000000003553, 3.399999999999988809 ) ) ;
#607 = EDGE_LOOP ( 'NONE', ( #694, #934, #741, #105 ) ) ;
#608 = ORIENTED_EDGE ( 'NONE', *, *, #25, .T. ) ;
#609 = FACE_OUTER_BOUND ( 'NONE', #340, .T. ) ;
#610 = DIRECTION ( 'NONE',  ( -0.000000000000000000, -1.000000000000000000, -0.000000000000000000 ) ) ;
#611 = EDGE_CURVE ( 'NONE', #214, #464, #767, .T. ) ;
#612 = ORIENTED_EDGE ( 'NONE', *, *, #907, .T. ) ;
#613 = ORIENTED_EDGE ( 'NONE', *, *, #54, .T. ) ;
#614 = CARTESIAN_POINT ( 'NONE',  ( -28.50000000000000000, -15.00000000000000000, 32.96499999999998209 ) ) ;
#615 = CARTESIAN_POINT ( 'NONE',  ( -28.50000000000000000, -15.00000000000000000, -3.490243377569956456E-15 ) ) ;
#616 = CARTESIAN_POINT ( 'NONE',  ( 2.515561355437166943E-15, 15.00000000000000000, 41.08223460329294596 ) ) ;
#617 = EDGE_CURVE ( 'NONE', #1096, #21, #266, .T. ) ;
#618 = EDGE_LOOP ( 'NONE', ( #108, #702 ) ) ;
#619 = CYLINDRICAL_SURFACE ( 'NONE', #400, 3.399999999999996803 ) ;
#620 = DIRECTION ( 'NONE',  ( 0.000000000000000000, 0.000000000000000000, 1.000000000000000000 ) ) ;
#621 = CIRCLE ( 'NONE', #845, 28.00000000000000000 ) ;
#622 = CIRCLE ( 'NONE', #242, 32.96499999999998920 ) ;
#623 = EDGE_LOOP ( 'NONE', ( #689, #903, #682, #892 ) ) ;
#624 = CIRCLE ( 'NONE', #526, 78.00000000000001421 ) ;
#625 = VERTEX_POINT ( 'NONE', #1152 ) ;
#626 = FACE_BOUND ( 'NONE', #231, .T. ) ;
#627 = CYLINDRICAL_SURFACE ( 'NONE', #798, 3.399999999999996803 ) ;
#628 = CALENDAR_DATE ( 2025, 22, 3 ) ;
#629 = DIRECTION ( 'NONE',  ( 0.000000000000000000, 0.000000000000000000, -1.000000000000000000 ) ) ;
#630 = EDGE_LOOP ( 'NONE', ( #819, #91, #1034 ) ) ;
#631 = ORIENTED_EDGE ( 'NONE', *, *, #1206, .T. ) ;
#632 = CARTESIAN_POINT ( 'NONE',  ( -53.00000000000000711, -15.00000000000000000, -42.99999999999999289 ) ) ;
#633 = CARTESIAN_POINT ( 'NONE',  ( 0.000000000000000000, -35.00000000000000000, 15.00000000000000000 ) ) ;
#634 = CARTESIAN_POINT ( 'NONE',  ( 0.000000000000000000, 0.000000000000000000, 0.000000000000000000 ) ) ;
#635 = VECTOR ( 'NONE', #360, 1000.000000000000000 ) ;
#636 = VERTEX_POINT ( 'NONE', #671 ) ;
#637 = VECTOR ( 'NONE', #1014, 1000.000000000000000 ) ;
#638 = ORIENTED_EDGE ( 'NONE', *, *, #514, .F. ) ;
#639 = DIRECTION ( 'NONE',  ( 0.000000000000000000, -1.000000000000000000, 0.000000000000000000 ) ) ;
#640 =( LENGTH_UNIT ( ) NAMED_UNIT ( * ) SI_UNIT ( .MILLI., .METRE. ) );
#641 = ADVANCED_FACE ( 'NONE', ( #1054 ), #1164, .F. ) ;
#642 = DIRECTION ( 'NONE',  ( -0.000000000000000000, 1.000000000000000000, -0.000000000000000000 ) ) ;
#643 = CIRCLE ( 'NONE', #425, 3.399999999999993250 ) ;
#644 = ORIENTED_EDGE ( 'NONE', *, *, #456, .F. ) ;
#645 = DIRECTION ( 'NONE',  ( -0.000000000000000000, 1.000000000000000000, -0.000000000000000000 ) ) ;
#646 = DIRECTION ( 'NONE',  ( 0.000000000000000000, 0.000000000000000000, -1.000000000000000000 ) ) ;
#647 = APPROVAL ( #1118, 'UNSPECIFIED' ) ;
#648 = VERTEX_POINT ( 'NONE', #100 ) ;
#649 = EDGE_CURVE ( 'NONE', #625, #533, #325, .T. ) ;
#650 = DIRECTION ( 'NONE',  ( -0.000000000000000000, -1.000000000000000000, -0.000000000000000000 ) ) ;
#651 = ORIENTED_EDGE ( 'NONE', *, *, #47, .F. ) ;
#652 = FACE_OUTER_BOUND ( 'NONE', #1174, .T. ) ;
#653 = DATE_AND_TIME ( #549, #587 ) ;
#654 = DIRECTION ( 'NONE',  ( 0.000000000000000000, 0.000000000000000000, -1.000000000000000000 ) ) ;
#655 = AXIS2_PLACEMENT_3D ( 'NONE', #736, #238, #925 ) ;
#656 = VERTEX_POINT ( 'NONE', #178 ) ;
#657 = DIRECTION ( 'NONE',  ( 0.000000000000000000, 0.000000000000000000, -1.000000000000000000 ) ) ;
#658 = ADVANCED_FACE ( 'NONE', ( #561 ), #1024, .F. ) ;
#659 = FACE_OUTER_BOUND ( 'NONE', #120, .T. ) ;
#660 = DIRECTION ( 'NONE',  ( 0.000000000000000000, -1.000000000000000000, 0.000000000000000000 ) ) ;
#661 = VERTEX_POINT ( 'NONE', #310 ) ;
#662 = DIRECTION ( 'NONE',  ( -0.000000000000000000, -1.000000000000000000, -0.000000000000000000 ) ) ;
#663 = DIRECTION ( 'NONE',  ( -0.000000000000000000, 1.000000000000000000, -0.000000000000000000 ) ) ;
#664 = VECTOR ( 'NONE', #712, 1000.000000000000000 ) ;
#665 = CC_DESIGN_APPROVAL ( #647, ( #1130 ) ) ;
#666 = MANIFOLD_SOLID_BREP ( 'M8x1.25 Tapped Hole1', #884 ) ;
#667 = CARTESIAN_POINT ( 'NONE',  ( 65.00000000000000000, -35.00000000000000000, -50.00000000000000000 ) ) ;
#668 = ORIENTED_EDGE ( 'NONE', *, *, #605, .T. ) ;
#669 = CARTESIAN_POINT ( 'NONE',  ( -53.00000000000000711, -35.00000000000000000, -42.99999999999999289 ) ) ;
#670 = CIRCLE ( 'NONE', #763, 3.400000000000000355 ) ;
#671 = CARTESIAN_POINT ( 'NONE',  ( -35.00000000000000000, -35.00000000000000000, -3.400000000000004796 ) ) ;
#672 = ADVANCED_FACE ( 'NONE', ( #593 ), #405, .F. ) ;
#673 = DIRECTION ( 'NONE',  ( -1.000000000000000000, 0.000000000000000000, -1.067522139062650425E-16 ) ) ;
#674 = ORIENTED_EDGE ( 'NONE', *, *, #753, .T. ) ;
#675 = DIRECTION ( 'NONE',  ( 0.000000000000000000, 0.000000000000000000, -1.000000000000000000 ) ) ;
#676 = CIRCLE ( 'NONE', #77, 3.399999999999993250 ) ;
#677 = CARTESIAN_POINT ( 'NONE',  ( 0.000000000000000000, -35.00000000000000000, 11.59999999999999964 ) ) ;
#678 = DIRECTION ( 'NONE',  ( -0.000000000000000000, -1.000000000000000000, -0.000000000000000000 ) ) ;
#679 = EDGE_CURVE ( 'NONE', #1169, #898, #521, .T. ) ;
#680 = ORIENTED_EDGE ( 'NONE', *, *, #617, .F. ) ;
#681 = LINE ( 'NONE', #1162, #1078 ) ;
#682 = ORIENTED_EDGE ( 'NONE', *, *, #347, .T. ) ;
#683 = DIRECTION ( 'NONE',  ( 0.000000000000000000, 0.000000000000000000, 1.000000000000000000 ) ) ;
#684 = AXIS2_PLACEMENT_3D ( 'NONE', #752, #262, #1051 ) ;
#685 = AXIS2_PLACEMENT_3D ( 'NONE', #943, #584, #850 ) ;
#686 = DIRECTION ( 'NONE',  ( 0.000000000000000000, 0.000000000000000000, -1.000000000000000000 ) ) ;
#687 = AXIS2_PLACEMENT_3D ( 'NONE', #365, #2, #563 ) ;
#688 = EDGE_CURVE ( 'NONE', #111, #424, #882, .T. ) ;
#689 = ORIENTED_EDGE ( 'NONE', *, *, #782, .F. ) ;
#690 = EDGE_CURVE ( 'NONE', #581, #396, #226, .T. ) ;
#691 = VERTEX_POINT ( 'NONE', #1175 ) ;
#692 = CYLINDRICAL_SURFACE ( 'NONE', #852, 4.999999999999997335 ) ;
#693 = DIRECTION ( 'NONE',  ( 0.000000000000000000, 0.000000000000000000, -1.000000000000000000 ) ) ;
#694 = ORIENTED_EDGE ( 'NONE', *, *, #116, .T. ) ;
#695 = ORIENTED_EDGE ( 'NONE', *, *, #782, .T. ) ;
#696 = DIRECTION ( 'NONE',  ( 0.000000000000000000, 1.000000000000000000, 0.000000000000000000 ) ) ;
#697 = ADVANCED_FACE ( 'NONE', ( #980 ), #692, .F. ) ;
#698 = AXIS2_PLACEMENT_3D ( 'NONE', #1200, #251, #264 ) ;
#699 = AXIS2_PLACEMENT_3D ( 'NONE', #723, #926, #157 ) ;
#700 = CARTESIAN_POINT ( 'NONE',  ( 2.449293598294706513E-15, -35.00000000000000000, -20.00000000000000000 ) ) ;
#701 = ORIENTED_EDGE ( 'NONE', *, *, #1206, .F. ) ;
#702 = ORIENTED_EDGE ( 'NONE', *, *, #47, .T. ) ;
#703 = DIRECTION ( 'NONE',  ( 0.000000000000000000, 0.000000000000000000, -1.000000000000000000 ) ) ;
#704 = AXIS2_PLACEMENT_3D ( 'NONE', #705, #1060, #864 ) ;
#705 = CARTESIAN_POINT ( 'NONE',  ( 53.00000000000000000, -35.00000000000000000, 38.00000000000000711 ) ) ;
#706 = EDGE_LOOP ( 'NONE', ( #31, #869, #997, #366 ) ) ;
#707 = ORIENTED_EDGE ( 'NONE', *, *, #551, .T. ) ;
#708 = CARTESIAN_POINT ( 'NONE',  ( -16.22307692307692051, 15.00000000000000000, 25.16499870382101989 ) ) ;
#709 = VECTOR ( 'NONE', #764, 1000.000000000000000 ) ;
#710 = CARTESIAN_POINT ( 'NONE',  ( -53.00000000000000711, -15.00000000000000000, -37.99999999999999289 ) ) ;
#711 = ADVANCED_FACE ( 'NONE', ( #609 ), #976, .T. ) ;
#712 = DIRECTION ( 'NONE',  ( -0.000000000000000000, -1.000000000000000000, -0.000000000000000000 ) ) ;
#713 = ORIENTED_EDGE ( 'NONE', *, *, #916, .F. ) ;
#714 = CARTESIAN_POINT ( 'NONE',  ( 28.50000000000000000, 0.000000000000000000, 0.000000000000000000 ) ) ;
#715 = DIRECTION ( 'NONE',  ( -0.000000000000000000, -1.000000000000000000, -0.000000000000000000 ) ) ;
#716 = AXIS2_PLACEMENT_3D ( 'NONE', #341, #904, #998 ) ;
#717 = AXIS2_PLACEMENT_3D ( 'NONE', #207, #590, #776 ) ;
#718 = CARTESIAN_POINT ( 'NONE',  ( -4.664171700102545516E-15, -5.957073895306294276, -20.00000000000000000 ) ) ;
#719 = ORIENTED_EDGE ( 'NONE', *, *, #1238, .F. ) ;
#720 = EDGE_CURVE ( 'NONE', #1227, #636, #232, .T. ) ;
#721 = VERTEX_POINT ( 'NONE', #969 ) ;
#722 = DIRECTION ( 'NONE',  ( -1.000000000000000000, 0.000000000000000000, -1.067522139062650425E-16 ) ) ;
#723 = CARTESIAN_POINT ( 'NONE',  ( 0.000000000000000000, -8.000000000000003553, 15.00000000000000000 ) ) ;
#724 = DATE_AND_TIME ( #628, #1188 ) ;
#725 = DIRECTION ( 'NONE',  ( -0.000000000000000000, 1.000000000000000000, -0.000000000000000000 ) ) ;
#726 = VECTOR ( 'NONE', #85, 1000.000000000000000 ) ;
#727 = DIRECTION ( 'NONE',  ( 0.000000000000000000, 0.000000000000000000, 1.000000000000000000 ) ) ;
#728 = ORIENTED_EDGE ( 'NONE', *, *, #591, .F. ) ;
#729 = FACE_BOUND ( 'NONE', #618, .T. ) ;
#730 = EDGE_CURVE ( 'NONE', #28, #1101, #557, .T. ) ;
#731 = DIRECTION ( 'NONE',  ( 0.000000000000000000, 0.000000000000000000, -1.000000000000000000 ) ) ;
#732 = PERSON_AND_ORGANIZATION ( #895, #1027 ) ;
#733 = VERTEX_POINT ( 'NONE', #320 ) ;
#734 = VECTOR ( 'NONE', #324, 1000.000000000000000 ) ;
#735 = ORIENTED_EDGE ( 'NONE', *, *, #833, .F. ) ;
#736 = CARTESIAN_POINT ( 'NONE',  ( 3.577116575637162026E-15, 0.000000000000000000, 58.41874699101308721 ) ) ;
#737 = EDGE_CURVE ( 'NONE', #431, #147, #676, .T. ) ;
#738 = PERSON_AND_ORGANIZATION_ROLE ( 'design_owner' ) ;
#739 = VECTOR ( 'NONE', #1048, 1000.000000000000000 ) ;
#740 = DIRECTION ( 'NONE',  ( 0.000000000000000000, 0.000000000000000000, -1.000000000000000000 ) ) ;
#741 = ORIENTED_EDGE ( 'NONE', *, *, #142, .F. ) ;
#742 = DIRECTION ( 'NONE',  ( -0.000000000000000000, -1.000000000000000000, -0.000000000000000000 ) ) ;
#743 = LINE ( 'NONE', #259, #637 ) ;
#744 = DATE_AND_TIME ( #1113, #844 ) ;
#745 = EDGE_CURVE ( 'NONE', #1185, #404, #1119, .T. ) ;
#746 = CARTESIAN_POINT ( 'NONE',  ( 28.50000000000000000, 0.000000000000000000, 0.000000000000000000 ) ) ;
#747 = AXIS2_PLACEMENT_3D ( 'NONE', #344, #725, #422 ) ;
#748 = ORIENTED_EDGE ( 'NONE', *, *, #753, .F. ) ;
#749 = FACE_OUTER_BOUND ( 'NONE', #209, .T. ) ;
#750 = CARTESIAN_POINT ( 'NONE',  ( 0.000000000000000000, -35.00000000000000000, 15.00000000000000000 ) ) ;
#751 = APPROVAL_DATE_TIME ( #653, #647 ) ;
#752 = CARTESIAN_POINT ( 'NONE',  ( 5.376881565599326453E-15, -15.00000000000000000, 58.41874699101308011 ) ) ;
#753 = EDGE_CURVE ( 'NONE', #656, #1169, #499, .T. ) ;
#754 = ORIENTED_EDGE ( 'NONE', *, *, #335, .F. ) ;
#755 = CARTESIAN_POINT ( 'NONE',  ( -1.531698087479299077E-15, 0.000000000000000000, 41.08223460329295307 ) ) ;
#756 = FACE_OUTER_BOUND ( 'NONE', #44, .T. ) ;
#757 = CARTESIAN_POINT ( 'NONE',  ( 28.50000000000000000, -15.00000000000000000, 0.000000000000000000 ) ) ;
#758 = VECTOR ( 'NONE', #427, 1000.000000000000000 ) ;
#759 = ORIENTED_EDGE ( 'NONE', *, *, #134, .T. ) ;
#760 = LINE ( 'NONE', #669, #739 ) ;
#761 = VECTOR ( 'NONE', #457, 1000.000000000000000 ) ;
#762 = LINE ( 'NONE', #1147, #305 ) ;
#763 = AXIS2_PLACEMENT_3D ( 'NONE', #358, #1143, #654 ) ;
#764 = DIRECTION ( 'NONE',  ( -0.000000000000000000, -1.000000000000000000, -0.000000000000000000 ) ) ;
#765 = ORIENTED_EDGE ( 'NONE', *, *, #208, .F. ) ;
#766 = DIRECTION ( 'NONE',  ( 0.000000000000000000, 0.000000000000000000, 1.000000000000000000 ) ) ;
#767 = LINE ( 'NONE', #81, #787 ) ;
#768 = DIRECTION ( 'NONE',  ( 0.000000000000000000, 0.000000000000000000, -1.000000000000000000 ) ) ;
#769 = VERTEX_POINT ( 'NONE', #785 ) ;
#770 = CARTESIAN_POINT ( 'NONE',  ( 35.00000000000000000, -35.00000000000000000, 0.000000000000000000 ) ) ;
#771 = AXIS2_PLACEMENT_3D ( 'NONE', #616, #234, #727 ) ;
#772 = DIRECTION ( 'NONE',  ( 1.049727191138617093E-16, -0.5150380749100563760, 0.8571673007021110013 ) ) ;
#773 = EDGE_CURVE ( 'NONE', #79, #636, #777, .T. ) ;
#774 = DIRECTION ( 'NONE',  ( -0.000000000000000000, -1.000000000000000000, -0.000000000000000000 ) ) ;
#775 = VERTEX_POINT ( 'NONE', #1194 ) ;
#776 = DIRECTION ( 'NONE',  ( 0.000000000000000000, 0.000000000000000000, 1.000000000000000000 ) ) ;
#777 = CIRCLE ( 'NONE', #117, 3.400000000000000355 ) ;
#778 = ORIENTED_EDGE ( 'NONE', *, *, #690, .T. ) ;
#779 = DIRECTION ( 'NONE',  ( 0.000000000000000000, 0.000000000000000000, 1.000000000000000000 ) ) ;
#780 = EDGE_CURVE ( 'NONE', #558, #135, #894, .T. ) ;
#781 = DIRECTION ( 'NONE',  ( 0.000000000000000000, 1.000000000000000000, 0.000000000000000000 ) ) ;
#782 = EDGE_CURVE ( 'NONE', #111, #769, #932, .T. ) ;
#783 = ORIENTED_EDGE ( 'NONE', *, *, #1158, .T. ) ;
#784 = ORIENTED_EDGE ( 'NONE', *, *, #347, .F. ) ;
#785 = CARTESIAN_POINT ( 'NONE',  ( -47.29004999999996528, -15.00000000000000000, -27.08551727395103370 ) ) ;
#786 = VECTOR ( 'NONE', #977, 1000.000000000000000 ) ;
#787 = VECTOR ( 'NONE', #376, 1000.000000000000000 ) ;
#788 = DIRECTION ( 'NONE',  ( -0.000000000000000000, -1.000000000000000000, -0.000000000000000000 ) ) ;
#789 = ORIENTED_EDGE ( 'NONE', *, *, #679, .T. ) ;
#790 = EDGE_CURVE ( 'NONE', #206, #414, #1038, .T. ) ;
#791 = ORIENTED_EDGE ( 'NONE', *, *, #245, .F. ) ;
#792 = CYLINDRICAL_SURFACE ( 'NONE', #517, 4.999999999999997335 ) ;
#793 = CARTESIAN_POINT ( 'NONE',  ( 53.00000000000000000, -35.00000000000000000, 38.00000000000000711 ) ) ;
#794 = ORIENTED_EDGE ( 'NONE', *, *, #679, .F. ) ;
#795 = EDGE_LOOP ( 'NONE', ( #826, #97, #50, #484 ) ) ;
#796 = DIRECTION ( 'NONE',  ( -0.000000000000000000, 1.000000000000000000, -0.000000000000000000 ) ) ;
#797 = AXIS2_PLACEMENT_3D ( 'NONE', #1179, #130, #505 ) ;
#798 = AXIS2_PLACEMENT_3D ( 'NONE', #1099, #1209, #252 ) ;
#799 = CYLINDRICAL_SURFACE ( 'NONE', #389, 27.99999999999999645 ) ;
#800 = EDGE_LOOP ( 'NONE', ( #1019, #307, #958, #991 ) ) ;
#801 = ORIENTED_EDGE ( 'NONE', *, *, #825, .F. ) ;
#802 = DIRECTION ( 'NONE',  ( 1.000000000000000000, 0.000000000000000000, -0.000000000000000000 ) ) ;
#803 = AXIS2_PLACEMENT_3D ( 'NONE', #757, #660, #1045 ) ;
#804 = AXIS2_PLACEMENT_3D ( 'NONE', #137, #610, #239 ) ;
#805 = DIRECTION ( 'NONE',  ( 0.000000000000000000, 0.000000000000000000, -1.000000000000000000 ) ) ;
#806 = VERTEX_POINT ( 'NONE', #708 ) ;
#807 = EDGE_LOOP ( 'NONE', ( #552, #1076, #1063, #449 ) ) ;
#808 = DIRECTION ( 'NONE',  ( 0.000000000000000000, 0.000000000000000000, -1.000000000000000000 ) ) ;
#809 = ADVANCED_FACE ( 'NONE', ( #410 ), #792, .F. ) ;
#810 = DIRECTION ( 'NONE',  ( -0.000000000000000000, -1.000000000000000000, -0.000000000000000000 ) ) ;
#811 = ORIENTED_EDGE ( 'NONE', *, *, #970, .T. ) ;
#812 = ORIENTED_EDGE ( 'NONE', *, *, #617, .T. ) ;
#813 = DIRECTION ( 'NONE',  ( 0.000000000000000000, -1.000000000000000000, 0.000000000000000000 ) ) ;
#814 = APPROVAL_STATUS ( 'not_yet_approved' ) ;
#815 = VECTOR ( 'NONE', #1111, 1000.000000000000000 ) ;
#816 = CONICAL_SURFACE ( 'NONE', #699, 3.399999999999993250, 1.029744258676651869 ) ;
#817 = CARTESIAN_POINT ( 'NONE',  ( -65.00000000000000000, -35.00000000000000000, -50.00000000000001421 ) ) ;
#818 = DIRECTION ( 'NONE',  ( 0.000000000000000000, 0.000000000000000000, -1.000000000000000000 ) ) ;
#819 = ORIENTED_EDGE ( 'NONE', *, *, #54, .F. ) ;
#820 = CARTESIAN_POINT ( 'NONE',  ( 0.000000000000000000, -35.00000000000000000, 0.000000000000000000 ) ) ;
#821 = FACE_OUTER_BOUND ( 'NONE', #800, .T. ) ;
#822 = APPROVAL_ROLE ( '' ) ;
#823 = DIRECTION ( 'NONE',  ( -0.000000000000000000, 1.000000000000000000, -0.000000000000000000 ) ) ;
#824 = CARTESIAN_POINT ( 'NONE',  ( 4.163799117100992671E-16, -8.000000000000003553, 18.39999999999999147 ) ) ;
#825 = EDGE_CURVE ( 'NONE', #1096, #571, #528, .T. ) ;
#826 = ORIENTED_EDGE ( 'NONE', *, *, #916, .T. ) ;
#827 = FACE_BOUND ( 'NONE', #888, .T. ) ;
#828 = DIRECTION ( 'NONE',  ( 0.000000000000000000, 0.000000000000000000, -1.000000000000000000 ) ) ;
#829 = APPROVAL_DATE_TIME ( #913, #89 ) ;
#830 = LINE ( 'NONE', #824, #868 ) ;
#831 = VERTEX_POINT ( 'NONE', #58 ) ;
#832 = DIRECTION ( 'NONE',  ( 0.000000000000000000, 0.000000000000000000, -1.000000000000000000 ) ) ;
#833 = EDGE_CURVE ( 'NONE', #404, #648, #37, .T. ) ;
#834 = CARTESIAN_POINT ( 'NONE',  ( 65.00000000000000000, -35.00000000000000000, 50.00000000000000000 ) ) ;
#835 = CALENDAR_DATE ( 2025, 22, 3 ) ;
#836 = CONICAL_SURFACE ( 'NONE', #698, 3.399999999999993250, 1.029744258676651869 ) ;
#837 = CARTESIAN_POINT ( 'NONE',  ( 34.99999999999999289, -5.957073895306294276, 0.000000000000000000 ) ) ;
#838 = EDGE_LOOP ( 'NONE', ( #801, #1110, #1052, #811 ) ) ;
#839 = DIRECTION ( 'NONE',  ( -0.000000000000000000, -1.000000000000000000, -0.000000000000000000 ) ) ;
#840 = FACE_OUTER_BOUND ( 'NONE', #838, .T. ) ;
#841 = AXIS2_PLACEMENT_3D ( 'NONE', #5, #88, #1241 ) ;
#842 = ORIENTED_EDGE ( 'NONE', *, *, #730, .T. ) ;
#843 = CARTESIAN_POINT ( 'NONE',  ( 3.577116575637162026E-15, 15.00000000000000000, 58.41874699101308721 ) ) ;
#844 = LOCAL_TIME ( 12, 28, 4.000000000000000000, #1037 ) ;
#845 = AXIS2_PLACEMENT_3D ( 'NONE', #78, #1134, #938 ) ;
#846 = CARTESIAN_POINT ( 'NONE',  ( 0.000000000000000000, -8.000000000000003553, 15.00000000000000000 ) ) ;
#847 = DIRECTION ( 'NONE',  ( -0.000000000000000000, 1.000000000000000000, -0.000000000000000000 ) ) ;
#848 = ORIENTED_EDGE ( 'NONE', *, *, #335, .T. ) ;
#849 = DIRECTION ( 'NONE',  ( 0.000000000000000000, 0.000000000000000000, 1.000000000000000000 ) ) ;
#850 = DIRECTION ( 'NONE',  ( 1.000000000000000000, 0.000000000000000000, 1.067522139062650425E-16 ) ) ;
#851 = CARTESIAN_POINT ( 'NONE',  ( -28.50000000000000000, 15.00000000000000000, 3.490243377569956456E-15 ) ) ;
#852 = AXIS2_PLACEMENT_3D ( 'NONE', #1091, #796, #1085 ) ;
#853 = ORIENTED_EDGE ( 'NONE', *, *, #159, .T. ) ;
#854 = ADVANCED_FACE ( 'NONE', ( #547 ), #836, .F. ) ;
#855 = CARTESIAN_POINT ( 'NONE',  ( -35.00000000000000711, -5.957073895306294276, -4.286263797015736496E-15 ) ) ;
#856 = AXIS2_PLACEMENT_3D ( 'NONE', #52, #164, #443 ) ;
#857 = DIRECTION ( 'NONE',  ( -0.000000000000000000, -1.000000000000000000, -0.000000000000000000 ) ) ;
#858 = AXIS2_PLACEMENT_3D ( 'NONE', #949, #268, #933 ) ;
#859 = CARTESIAN_POINT ( 'NONE',  ( 35.00000000000000000, -8.000000000000003553, -3.399999999999993250 ) ) ;
#860 = EDGE_LOOP ( 'NONE', ( #534, #924, #812 ) ) ;
#861 = DIRECTION ( 'NONE',  ( -0.000000000000000000, 1.000000000000000000, -0.000000000000000000 ) ) ;
#862 = AXIS2_PLACEMENT_3D ( 'NONE', #492, #857, #388 ) ;
#863 = ADVANCED_FACE ( 'NONE', ( #827, #931 ), #64, .F. ) ;
#864 = DIRECTION ( 'NONE',  ( 0.000000000000000000, 0.000000000000000000, 1.000000000000000000 ) ) ;
#865 = LINE ( 'NONE', #24, #466 ) ;
#866 = EDGE_LOOP ( 'NONE', ( #62, #263 ) ) ;
#867 = PLANE ( 'NONE',  #383 ) ;
#868 = VECTOR ( 'NONE', #1214, 1000.000000000000000 ) ;
#869 = ORIENTED_EDGE ( 'NONE', *, *, #737, .F. ) ;
#870 = DIRECTION ( 'NONE',  ( 0.000000000000000000, 1.000000000000000000, 0.000000000000000000 ) ) ;
#871 = EDGE_CURVE ( 'NONE', #972, #1004, #336, .T. ) ;
#872 = CARTESIAN_POINT ( 'NONE',  ( 16.22307692307691696, 15.00000000000000000, 25.16499870382101278 ) ) ;
#873 = ORIENTED_EDGE ( 'NONE', *, *, #1135, .T. ) ;
#874 = AXIS2_PLACEMENT_3D ( 'NONE', #22, #603, #29 ) ;
#875 = AXIS2_PLACEMENT_3D ( 'NONE', #953, #1042, #849 ) ;
#876 = ORIENTED_EDGE ( 'NONE', *, *, #115, .T. ) ;
#877 = DIRECTION ( 'NONE',  ( -0.000000000000000000, -1.000000000000000000, -0.000000000000000000 ) ) ;
#878 = ADVANCED_FACE ( 'NONE', ( #355 ), #619, .F. ) ;
#879 = CARTESIAN_POINT ( 'NONE',  ( -44.46000000000000085, 0.000000000000000000, -23.00605137784404874 ) ) ;
#880 = ORIENTED_EDGE ( 'NONE', *, *, #11, .F. ) ;
#881 = VERTEX_POINT ( 'NONE', #919 ) ;
#882 = LINE ( 'NONE', #614, #758 ) ;
#883 = VECTOR ( 'NONE', #298, 1000.000000000000000 ) ;
#884 = CLOSED_SHELL ( 'NONE', ( #878, #228, #1173, #658, #531, #569, #1221, #493, #697, #500, #469, #447, #711, #1055, #1033, #421, #468, #98, #253, #401, #1180, #1095, #176, #863, #1008, #672, #562, #1081, #1166, #923, #809, #641, #1028, #241, #1087, #192, #1146, #23, #854, #950 ) ) ;
#885 = CC_DESIGN_APPROVAL ( #38, ( #370 ) ) ;
#886 = CARTESIAN_POINT ( 'NONE',  ( 35.00000000000000000, -8.000000000000003553, 0.000000000000000000 ) ) ;
#887 = ORIENTED_EDGE ( 'NONE', *, *, #780, .F. ) ;
#888 = EDGE_LOOP ( 'NONE', ( #941, #1239, #595, #220, #13, #735 ) ) ;
#889 = DIRECTION ( 'NONE',  ( -0.000000000000000000, 1.000000000000000000, -0.000000000000000000 ) ) ;
#890 = CYLINDRICAL_SURFACE ( 'NONE', #1069, 32.96499999999998920 ) ;
#891 = ORIENTED_EDGE ( 'NONE', *, *, #292, .T. ) ;
#892 = ORIENTED_EDGE ( 'NONE', *, *, #907, .F. ) ;
#893 = DIRECTION ( 'NONE',  ( 0.000000000000000000, 0.000000000000000000, 1.000000000000000000 ) ) ;
#894 = CIRCLE ( 'NONE', #578, 3.400000000000000355 ) ;
#895 = PERSON ( 'UNSPECIFIED', 'UNSPECIFIED', 'UNSPECIFIED', ('UNSPECIFIED'), ('UNSPECIFIED'), ('UNSPECIFIED') ) ;
#896 = CARTESIAN_POINT ( 'NONE',  ( 65.00000000000000000, -35.00000000000000000, -50.00000000000000000 ) ) ;
#897 = ORIENTED_EDGE ( 'NONE', *, *, #142, .T. ) ;
#898 = VERTEX_POINT ( 'NONE', #163 ) ;
#899 = DIRECTION ( 'NONE',  ( 0.000000000000000000, 0.000000000000000000, -1.000000000000000000 ) ) ;
#900 = EDGE_CURVE ( 'NONE', #396, #36, #438, .T. ) ;
#901 = CYLINDRICAL_SURFACE ( 'NONE', #804, 78.00000000000000000 ) ;
#902 = ORIENTED_EDGE ( 'NONE', *, *, #364, .F. ) ;
#903 = ORIENTED_EDGE ( 'NONE', *, *, #688, .T. ) ;
#904 = DIRECTION ( 'NONE',  ( 0.000000000000000000, -1.000000000000000000, 0.000000000000000000 ) ) ;
#905 = DIRECTION ( 'NONE',  ( 0.000000000000000000, 1.000000000000000000, 0.000000000000000000 ) ) ;
#906 = CC_DESIGN_DATE_AND_TIME_ASSIGNMENT ( #60, #1222, ( #370 ) ) ;
#907 = EDGE_CURVE ( 'NONE', #769, #63, #244, .T. ) ;
#908 = LINE ( 'NONE', #329, #604 ) ;
#909 = LINE ( 'NONE', #330, #1211 ) ;
#910 = ORIENTED_EDGE ( 'NONE', *, *, #83, .T. ) ;
#911 = LINE ( 'NONE', #1097, #635 ) ;
#912 = CARTESIAN_POINT ( 'NONE',  ( 0.000000000000000000, -8.000000000000003553, 11.60000000000000675 ) ) ;
#913 = DATE_AND_TIME ( #343, #104 ) ;
#914 = CIRCLE ( 'NONE', #717, 36.99999999999999289 ) ;
#915 = FACE_OUTER_BOUND ( 'NONE', #194, .T. ) ;
#916 = EDGE_CURVE ( 'NONE', #129, #918, #553, .T. ) ;
#917 = CARTESIAN_POINT ( 'NONE',  ( -53.00000000000000711, -35.00000000000000000, -37.99999999999999289 ) ) ;
#918 = VERTEX_POINT ( 'NONE', #349 ) ;
#919 = CARTESIAN_POINT ( 'NONE',  ( -65.00000000000000000, -15.00000000000000000, -50.00000000000001421 ) ) ;
#920 = APPROVAL_DATE_TIME ( #744, #38 ) ;
#921 = AXIS2_PLACEMENT_3D ( 'NONE', #1108, #248, #629 ) ;
#922 = DIRECTION ( 'NONE',  ( 0.000000000000000000, 1.000000000000000000, 0.000000000000000000 ) ) ;
#923 = ADVANCED_FACE ( 'NONE', ( #141, #455, #1030, #1006, #729, #626, #148 ), #51, .T. ) ;
#924 = ORIENTED_EDGE ( 'NONE', *, *, #261, .T. ) ;
#925 = DIRECTION ( 'NONE',  ( 0.000000000000000000, 0.000000000000000000, 1.000000000000000000 ) ) ;
#926 = DIRECTION ( 'NONE',  ( -0.000000000000000000, -1.000000000000000000, -0.000000000000000000 ) ) ;
#927 = PERSON_AND_ORGANIZATION_ROLE ( 'creator' ) ;
#928 = CIRCLE ( 'NONE', #172, 4.999999999999997335 ) ;
#929 = LINE ( 'NONE', #556, #186 ) ;
#930 = EDGE_LOOP ( 'NONE', ( #354, #1193 ) ) ;
#931 = FACE_OUTER_BOUND ( 'NONE', #460, .T. ) ;
#932 = CIRCLE ( 'NONE', #416, 32.96499999999998920 ) ;
#933 = DIRECTION ( 'NONE',  ( 0.000000000000000000, 0.000000000000000000, -1.000000000000000000 ) ) ;
#934 = ORIENTED_EDGE ( 'NONE', *, *, #1231, .F. ) ;
#935 = DIRECTION ( 'NONE',  ( -0.000000000000000000, -1.000000000000000000, -0.000000000000000000 ) ) ;
#936 = FACE_OUTER_BOUND ( 'NONE', #860, .T. ) ;
#937 = EDGE_CURVE ( 'NONE', #691, #1227, #315, .T. ) ;
#938 = DIRECTION ( 'NONE',  ( 0.000000000000000000, 0.000000000000000000, 1.000000000000000000 ) ) ;
#939 = AXIS2_PLACEMENT_3D ( 'NONE', #402, #781, #1165 ) ;
#940 = AXIS2_PLACEMENT_3D ( 'NONE', #846, #1170, #703 ) ;
#941 = ORIENTED_EDGE ( 'NONE', *, *, #745, .F. ) ;
#942 = DIRECTION ( 'NONE',  ( 0.000000000000000000, 0.000000000000000000, -1.000000000000000000 ) ) ;
#943 = CARTESIAN_POINT ( 'NONE',  ( 65.00000000000000000, -35.00000000000000000, -50.00000000000000000 ) ) ;
#944 = EDGE_CURVE ( 'NONE', #21, #182, #911, .T. ) ;
#945 = CARTESIAN_POINT ( 'NONE',  ( 4.163799117101000559E-16, -35.00000000000000000, 18.39999999999999858 ) ) ;
#946 = EDGE_LOOP ( 'NONE', ( #408, #564, #1178, #902 ) ) ;
#947 = DIRECTION ( 'NONE',  ( 0.000000000000000000, -0.000000000000000000, -1.000000000000000000 ) ) ;
#948 = PLANE ( 'NONE',  #685 ) ;
#949 = CARTESIAN_POINT ( 'NONE',  ( 28.50000000000000000, 0.000000000000000000, 0.000000000000000000 ) ) ;
#950 = ADVANCED_FACE ( 'NONE', ( #154 ), #461, .F. ) ;
#951 = AXIS2_PLACEMENT_3D ( 'NONE', #516, #114, #121 ) ;
#952 = ORIENTED_EDGE ( 'NONE', *, *, #185, .F. ) ;
#953 = CARTESIAN_POINT ( 'NONE',  ( 2.515561355437166943E-15, 0.000000000000000000, 41.08223460329294596 ) ) ;
#954 = CIRCLE ( 'NONE', #501, 32.96499999999998920 ) ;
#955 = CARTESIAN_POINT ( 'NONE',  ( -53.00000000000000711, -35.00000000000000000, -37.99999999999999289 ) ) ;
#956 = LINE ( 'NONE', #872, #786 ) ;
#957 = AXIS2_PLACEMENT_3D ( 'NONE', #746, #482, #1224 ) ;
#958 = ORIENTED_EDGE ( 'NONE', *, *, #476, .T. ) ;
#959 = FACE_BOUND ( 'NONE', #295, .T. ) ;
#960 = VECTOR ( 'NONE', #393, 1000.000000000000000 ) ;
#961 = EDGE_CURVE ( 'NONE', #1215, #733, #1141, .T. ) ;
#962 = ORIENTED_EDGE ( 'NONE', *, *, #999, .T. ) ;
#963 = CARTESIAN_POINT ( 'NONE',  ( 35.00000000000000000, -35.00000000000000000, 3.400000000000000799 ) ) ;
#964 = APPROVAL_PERSON_ORGANIZATION ( #351, #647, #1015 ) ;
#965 = FACE_OUTER_BOUND ( 'NONE', #200, .T. ) ;
#966 = ORIENTED_EDGE ( 'NONE', *, *, #437, .T. ) ;
#967 = CARTESIAN_POINT ( 'NONE',  ( 35.00000000000000000, -8.000000000000003553, 3.399999999999993250 ) ) ;
#968 = VERTEX_POINT ( 'NONE', #632 ) ;
#969 = CARTESIAN_POINT ( 'NONE',  ( 2.515561355437166943E-15, 15.00000000000000000, -36.91776539670705404 ) ) ;
#970 = EDGE_CURVE ( 'NONE', #182, #571, #598, .T. ) ;
#971 = LINE ( 'NONE', #118, #1001 ) ;
#972 = VERTEX_POINT ( 'NONE', #380 ) ;
#973 = AXIS2_PLACEMENT_3D ( 'NONE', #820, #639, #1020 ) ;
#974 = AXIS2_PLACEMENT_3D ( 'NONE', #478, #1138, #565 ) ;
#975 = ORIENTED_EDGE ( 'NONE', *, *, #115, .F. ) ;
#976 = CYLINDRICAL_SURFACE ( 'NONE', #797, 78.00000000000000000 ) ;
#977 = DIRECTION ( 'NONE',  ( -0.000000000000000000, -1.000000000000000000, -0.000000000000000000 ) ) ;
#978 = ORIENTED_EDGE ( 'NONE', *, *, #649, .F. ) ;
#979 = ORIENTED_EDGE ( 'NONE', *, *, #1064, .F. ) ;
#980 = FACE_OUTER_BOUND ( 'NONE', #326, .T. ) ;
#981 =( GEOMETRIC_REPRESENTATION_CONTEXT ( 3 ) GLOBAL_UNCERTAINTY_ASSIGNED_CONTEXT ( ( #474 ) ) GLOBAL_UNIT_ASSIGNED_CONTEXT ( ( #640, #434, #541 ) ) REPRESENTATION_CONTEXT ( 'NONE', 'WORKASPACE' ) );
#982 = DIRECTION ( 'NONE',  ( 0.000000000000000000, 0.000000000000000000, 1.000000000000000000 ) ) ;
#983 = EDGE_CURVE ( 'NONE', #431, #558, #296, .T. ) ;
#984 = ORIENTED_EDGE ( 'NONE', *, *, #900, .T. ) ;
#985 = ORIENTED_EDGE ( 'NONE', *, *, #17, .F. ) ;
#986 = DIRECTION ( 'NONE',  ( 0.000000000000000000, 0.000000000000000000, 1.000000000000000000 ) ) ;
#987 = AXIS2_PLACEMENT_3D ( 'NONE', #851, #1129, #740 ) ;
#988 = DIRECTION ( 'NONE',  ( 0.000000000000000000, -0.5150380749100563760, -0.8571673007021110013 ) ) ;
#989 = ORIENTED_EDGE ( 'NONE', *, *, #462, .T. ) ;
#990 = EDGE_CURVE ( 'NONE', #63, #1018, #994, .T. ) ;
#991 = ORIENTED_EDGE ( 'NONE', *, *, #690, .F. ) ;
#992 = DIRECTION ( 'NONE',  ( -0.000000000000000000, -1.000000000000000000, -0.000000000000000000 ) ) ;
#993 = PRODUCT ( '3Dpunch', '3Dpunch', '', ( #444 ) ) ;
#994 = CIRCLE ( 'NONE', #155, 82.96499999999998920 ) ;
#995 = DIRECTION ( 'NONE',  ( -0.000000000000000000, 1.000000000000000000, -0.000000000000000000 ) ) ;
#996 = LINE ( 'NONE', #439, #664 ) ;
#997 = ORIENTED_EDGE ( 'NONE', *, *, #983, .T. ) ;
#998 = DIRECTION ( 'NONE',  ( 0.000000000000000000, -0.000000000000000000, -1.000000000000000000 ) ) ;
#999 = EDGE_CURVE ( 'NONE', #533, #968, #760, .T. ) ;
#1000 = FACE_OUTER_BOUND ( 'NONE', #795, .T. ) ;
#1001 = VECTOR ( 'NONE', #494, 1000.000000000000000 ) ;
#1002 = VECTOR ( 'NONE', #772, 1000.000000000000000 ) ;
#1003 = DIRECTION ( 'NONE',  ( 0.000000000000000000, 1.000000000000000000, 0.000000000000000000 ) ) ;
#1004 = VERTEX_POINT ( 'NONE', #1155 ) ;
#1005 = ORIENTED_EDGE ( 'NONE', *, *, #308, .T. ) ;
#1006 = FACE_BOUND ( 'NONE', #866, .T. ) ;
#1007 = CARTESIAN_POINT ( 'NONE',  ( 28.50000000000000000, 15.00000000000000000, 0.000000000000000000 ) ) ;
#1008 = ADVANCED_FACE ( 'NONE', ( #175, #583, #386, #959 ), #1035, .F. ) ;
#1009 = COORDINATED_UNIVERSAL_TIME_OFFSET ( 7, 0, .AHEAD. ) ;
#1010 = DIRECTION ( 'NONE',  ( 0.000000000000000000, 0.000000000000000000, -1.000000000000000000 ) ) ;
#1011 = FACE_OUTER_BOUND ( 'NONE', #706, .T. ) ;
#1012 = EDGE_LOOP ( 'NONE', ( #124, #668, #495 ) ) ;
#1013 = DIRECTION ( 'NONE',  ( -0.000000000000000000, 1.000000000000000000, -0.000000000000000000 ) ) ;
#1014 = DIRECTION ( 'NONE',  ( -0.000000000000000000, -1.000000000000000000, -0.000000000000000000 ) ) ;
#1015 = APPROVAL_ROLE ( '' ) ;
#1016 = CC_DESIGN_PERSON_AND_ORGANIZATION_ASSIGNMENT ( #158, #542, ( #370 ) ) ;
#1017 = CIRCLE ( 'NONE', #95, 3.399999999999993250 ) ;
#1018 = VERTEX_POINT ( 'NONE', #4 ) ;
#1019 = ORIENTED_EDGE ( 'NONE', *, *, #508, .F. ) ;
#1020 = DIRECTION ( 'NONE',  ( 0.000000000000000000, -0.000000000000000000, -1.000000000000000000 ) ) ;
#1021 = CARTESIAN_POINT ( 'NONE',  ( 53.00000000000000000, -35.00000000000000000, 43.00000000000000000 ) ) ;
#1022 = DIRECTION ( 'NONE',  ( 1.000000000000000000, 0.000000000000000000, 0.000000000000000000 ) ) ;
#1023 = VECTOR ( 'NONE', #1171, 1000.000000000000000 ) ;
#1024 = CONICAL_SURFACE ( 'NONE', #940, 3.399999999999993250, 1.029744258676651869 ) ;
#1025 = APPLICATION_CONTEXT ( 'configuration controlled 3d designs of mechanical parts and assemblies' ) ;
#1026 = DIRECTION ( 'NONE',  ( -0.000000000000000000, -1.000000000000000000, -0.000000000000000000 ) ) ;
#1027 = ORGANIZATION ( 'UNSPECIFIED', 'UNSPECIFIED', '' ) ;
#1028 = ADVANCED_FACE ( 'NONE', ( #87 ), #361, .F. ) ;
#1029 = EDGE_LOOP ( 'NONE', ( #543, #608, #489, #601 ) ) ;
#1030 = FACE_BOUND ( 'NONE', #539, .T. ) ;
#1031 = FACE_OUTER_BOUND ( 'NONE', #1029, .T. ) ;
#1032 = CARTESIAN_POINT ( 'NONE',  ( -53.00000000000000711, -15.00000000000000000, -32.99999999999999289 ) ) ;
#1033 = ADVANCED_FACE ( 'NONE', ( #284 ), #99, .F. ) ;
#1034 = ORIENTED_EDGE ( 'NONE', *, *, #737, .T. ) ;
#1035 = PLANE ( 'NONE',  #1 ) ;
#1036 = CYLINDRICAL_SURFACE ( 'NONE', #704, 4.999999999999997335 ) ;
#1037 = COORDINATED_UNIVERSAL_TIME_OFFSET ( 7, 0, .AHEAD. ) ;
#1038 = CIRCLE ( 'NONE', #874, 32.96499999999999631 ) ;
#1039 = AXIS2_PLACEMENT_3D ( 'NONE', #485, #861, #9 ) ;
#1040 = CARTESIAN_POINT ( 'NONE',  ( 3.577116575637162026E-15, 15.00000000000000000, 21.41874699101308721 ) ) ;
#1041 = ORIENTED_EDGE ( 'NONE', *, *, #970, .F. ) ;
#1042 = DIRECTION ( 'NONE',  ( 0.000000000000000000, 1.000000000000000000, 0.000000000000000000 ) ) ;
#1043 = CARTESIAN_POINT ( 'NONE',  ( 2.515561355437166943E-15, 15.00000000000000000, 41.08223460329294596 ) ) ;
#1044 = EDGE_CURVE ( 'NONE', #140, #497, #1223, .T. ) ;
#1045 = DIRECTION ( 'NONE',  ( 0.000000000000000000, 0.000000000000000000, -1.000000000000000000 ) ) ;
#1046 = AXIS2_PLACEMENT_3D ( 'NONE', #793, #1056, #982 ) ;
#1047 = ORIENTED_EDGE ( 'NONE', *, *, #185, .T. ) ;
#1048 = DIRECTION ( 'NONE',  ( -0.000000000000000000, 1.000000000000000000, -0.000000000000000000 ) ) ;
#1049 = LINE ( 'NONE', #280, #960 ) ;
#1050 = EDGE_CURVE ( 'NONE', #1101, #223, #1160, .T. ) ;
#1051 = DIRECTION ( 'NONE',  ( 0.000000000000000000, 0.000000000000000000, 1.000000000000000000 ) ) ;
#1052 = ORIENTED_EDGE ( 'NONE', *, *, #944, .T. ) ;
#1053 = DIRECTION ( 'NONE',  ( 0.000000000000000000, 0.000000000000000000, -1.000000000000000000 ) ) ;
#1054 = FACE_OUTER_BOUND ( 'NONE', #409, .T. ) ;
#1055 = ADVANCED_FACE ( 'NONE', ( #195 ), #190, .F. ) ;
#1056 = DIRECTION ( 'NONE',  ( 0.000000000000000000, 1.000000000000000000, 0.000000000000000000 ) ) ;
#1057 = AXIS2_PLACEMENT_3D ( 'NONE', #511, #696, #893 ) ;
#1058 = ORIENTED_EDGE ( 'NONE', *, *, #32, .T. ) ;
#1059 = DIRECTION ( 'NONE',  ( -0.000000000000000000, -1.000000000000000000, -0.000000000000000000 ) ) ;
#1060 = DIRECTION ( 'NONE',  ( -0.000000000000000000, 1.000000000000000000, -0.000000000000000000 ) ) ;
#1061 = LINE ( 'NONE', #204, #1062 ) ;
#1062 = VECTOR ( 'NONE', #673, 1000.000000000000000 ) ;
#1063 = ORIENTED_EDGE ( 'NONE', *, *, #1231, .T. ) ;
#1064 = EDGE_CURVE ( 'NONE', #733, #299, #1142, .T. ) ;
#1065 = LINE ( 'NONE', #397, #180 ) ;
#1066 = AXIS2_PLACEMENT_3D ( 'NONE', #579, #196, #486 ) ;
#1067 = ORIENTED_EDGE ( 'NONE', *, *, #1238, .T. ) ;
#1068 = DIRECTION ( 'NONE',  ( -0.000000000000000000, -1.000000000000000000, -0.000000000000000000 ) ) ;
#1069 = AXIS2_PLACEMENT_3D ( 'NONE', #145, #532, #35 ) ;
#1070 = FACE_OUTER_BOUND ( 'NONE', #8, .T. ) ;
#1071 = ORIENTED_EDGE ( 'NONE', *, *, #871, .T. ) ;
#1072 = EDGE_CURVE ( 'NONE', #571, #182, #599, .T. ) ;
#1073 = ORIENTED_EDGE ( 'NONE', *, *, #208, .T. ) ;
#1074 = CARTESIAN_POINT ( 'NONE',  ( 0.000000000000000000, -8.000000000000003553, 15.00000000000000000 ) ) ;
#1075 = DIRECTION ( 'NONE',  ( 0.000000000000000000, -1.000000000000000000, 0.000000000000000000 ) ) ;
#1076 = ORIENTED_EDGE ( 'NONE', *, *, #1135, .F. ) ;
#1077 = AXIS2_PLACEMENT_3D ( 'NONE', #770, #1145, #1240 ) ;
#1078 = VECTOR ( 'NONE', #112, 1000.000000000000000 ) ;
#1079 = VERTEX_POINT ( 'NONE', #855 ) ;
#1080 = DIRECTION ( 'NONE',  ( -0.000000000000000000, 1.000000000000000000, -0.000000000000000000 ) ) ;
#1081 = ADVANCED_FACE ( 'NONE', ( #278 ), #867, .F. ) ;
#1082 = LINE ( 'NONE', #859, #1023 ) ;
#1083 = ORIENTED_EDGE ( 'NONE', *, *, #11, .T. ) ;
#1084 = ORIENTED_EDGE ( 'NONE', *, *, #990, .F. ) ;
#1085 = DIRECTION ( 'NONE',  ( 0.000000000000000000, 0.000000000000000000, 1.000000000000000000 ) ) ;
#1086 = CIRCLE ( 'NONE', #1230, 3.399999999999993250 ) ;
#1087 = ADVANCED_FACE ( 'NONE', ( #1151 ), #1202, .F. ) ;
#1088 = LINE ( 'NONE', #233, #1105 ) ;
#1089 = ORIENTED_EDGE ( 'NONE', *, *, #67, .F. ) ;
#1090 = EDGE_LOOP ( 'NONE', ( #1115, #613, #27 ) ) ;
#1091 = CARTESIAN_POINT ( 'NONE',  ( -53.00000000000000711, -35.00000000000000000, -37.99999999999999289 ) ) ;
#1092 = DIRECTION ( 'NONE',  ( 0.000000000000000000, 0.000000000000000000, 1.000000000000000000 ) ) ;
#1093 = CC_DESIGN_PERSON_AND_ORGANIZATION_ASSIGNMENT ( #458, #53, ( #394 ) ) ;
#1094 = CARTESIAN_POINT ( 'NONE',  ( 35.00000000000000000, -8.000000000000003553, -3.399999999999993250 ) ) ;
#1095 = ADVANCED_FACE ( 'NONE', ( #749 ), #577, .T. ) ;
#1096 = VERTEX_POINT ( 'NONE', #967 ) ;
#1097 = CARTESIAN_POINT ( 'NONE',  ( 35.00000000000000000, -35.00000000000000000, -3.399999999999996803 ) ) ;
#1098 = AXIS2_PLACEMENT_3D ( 'NONE', #714, #813, #1208 ) ;
#1099 = CARTESIAN_POINT ( 'NONE',  ( 2.449293598294706513E-15, -35.00000000000000000, -20.00000000000000000 ) ) ;
#1100 = DIRECTION ( 'NONE',  ( 0.000000000000000000, 0.000000000000000000, -1.000000000000000000 ) ) ;
#1101 = VERTEX_POINT ( 'NONE', #300 ) ;
#1102 = ORIENTED_EDGE ( 'NONE', *, *, #773, .T. ) ;
#1103 = DIRECTION ( 'NONE',  ( 0.000000000000000000, 0.000000000000000000, -1.000000000000000000 ) ) ;
#1104 = PLANE ( 'NONE',  #156 ) ;
#1105 = VECTOR ( 'NONE', #823, 1000.000000000000000 ) ;
#1106 = COORDINATED_UNIVERSAL_TIME_OFFSET ( 7, 0, .AHEAD. ) ;
#1107 = CIRCLE ( 'NONE', #1066, 4.999999999999997335 ) ;
#1108 = CARTESIAN_POINT ( 'NONE',  ( 2.449293598294706513E-15, -35.00000000000000000, -20.00000000000000000 ) ) ;
#1109 = CARTESIAN_POINT ( 'NONE',  ( 2.865673510004806569E-15, -35.00000000000000000, -16.60000000000000142 ) ) ;
#1110 = ORIENTED_EDGE ( 'NONE', *, *, #235, .F. ) ;
#1111 = DIRECTION ( 'NONE',  ( -0.000000000000000000, -1.000000000000000000, -0.000000000000000000 ) ) ;
#1112 = LINE ( 'NONE', #70, #317 ) ;
#1113 = CALENDAR_DATE ( 2025, 22, 3 ) ;
#1114 = DIRECTION ( 'NONE',  ( -0.000000000000000000, -1.000000000000000000, -0.000000000000000000 ) ) ;
#1115 = ORIENTED_EDGE ( 'NONE', *, *, #1137, .F. ) ;
#1116 = DIRECTION ( 'NONE',  ( -0.000000000000000000, -1.000000000000000000, -0.000000000000000000 ) ) ;
#1117 = DIRECTION ( 'NONE',  ( -0.000000000000000000, 1.000000000000000000, -0.000000000000000000 ) ) ;
#1118 = APPROVAL_STATUS ( 'not_yet_approved' ) ;
#1119 = CIRCLE ( 'NONE', #951, 36.99999999999999289 ) ;
#1120 = EDGE_CURVE ( 'NONE', #398, #581, #681, .T. ) ;
#1121 = AXIS2_PLACEMENT_3D ( 'NONE', #290, #367, #1053 ) ;
#1122 = FACE_OUTER_BOUND ( 'NONE', #607, .T. ) ;
#1123 = ORIENTED_EDGE ( 'NONE', *, *, #245, .T. ) ;
#1124 = CARTESIAN_POINT ( 'NONE',  ( 35.00000000000000000, -35.00000000000000000, 3.399999999999996803 ) ) ;
#1125 = DIRECTION ( 'NONE',  ( 0.000000000000000000, 0.000000000000000000, 1.000000000000000000 ) ) ;
#1126 = SHAPE_DEFINITION_REPRESENTATION ( #1190, #1182 ) ;
#1127 = VECTOR ( 'NONE', #594, 1000.000000000000000 ) ;
#1128 = EDGE_CURVE ( 'NONE', #213, #831, #1065, .T. ) ;
#1129 = DIRECTION ( 'NONE',  ( -0.000000000000000000, -1.000000000000000000, -0.000000000000000000 ) ) ;
#1130 = PRODUCT_DEFINITION_FORMATION_WITH_SPECIFIED_SOURCE ( 'ANY', '', #993, .NOT_KNOWN. ) ;
#1131 = ORIENTED_EDGE ( 'NONE', *, *, #429, .F. ) ;
#1132 = CARTESIAN_POINT ( 'NONE',  ( 3.577116575637162026E-15, 15.00000000000000000, 58.41874699101308721 ) ) ;
#1133 = CYLINDRICAL_SURFACE ( 'NONE', #747, 32.96499999999999631 ) ;
#1134 = DIRECTION ( 'NONE',  ( 0.000000000000000000, 1.000000000000000000, 0.000000000000000000 ) ) ;
#1135 = EDGE_CURVE ( 'NONE', #806, #140, #914, .T. ) ;
#1136 = ORIENTED_EDGE ( 'NONE', *, *, #1128, .T. ) ;
#1137 = EDGE_CURVE ( 'NONE', #1167, #431, #14, .T. ) ;
#1138 = DIRECTION ( 'NONE',  ( -0.000000000000000000, -1.000000000000000000, -0.000000000000000000 ) ) ;
#1139 = CARTESIAN_POINT ( 'NONE',  ( 0.000000000000000000, -8.000000000000003553, 15.00000000000000000 ) ) ;
#1140 = DESIGN_CONTEXT ( 'detailed design', #1025, 'design' ) ;
#1141 = CIRCLE ( 'NONE', #1098, 32.96499999999999631 ) ;
#1142 = CIRCLE ( 'NONE', #339, 32.03499999999999659 ) ;
#1143 = DIRECTION ( 'NONE',  ( -0.000000000000000000, -1.000000000000000000, -0.000000000000000000 ) ) ;
#1144 = EDGE_LOOP ( 'NONE', ( #272, #527, #289 ) ) ;
#1145 = DIRECTION ( 'NONE',  ( -0.000000000000000000, -1.000000000000000000, -0.000000000000000000 ) ) ;
#1146 = ADVANCED_FACE ( 'NONE', ( #246 ), #816, .F. ) ;
#1147 = CARTESIAN_POINT ( 'NONE',  ( 28.50000000000000000, -15.00000000000000000, 32.96499999999999631 ) ) ;
#1148 = CARTESIAN_POINT ( 'NONE',  ( 35.00000000000000000, -35.00000000000000000, 0.000000000000000000 ) ) ;
#1149 = AXIS2_PLACEMENT_3D ( 'NONE', #955, #302, #683 ) ;
#1150 = VERTEX_POINT ( 'NONE', #333 ) ;
#1151 = FACE_OUTER_BOUND ( 'NONE', #1144, .T. ) ;
#1152 = CARTESIAN_POINT ( 'NONE',  ( -53.00000000000000711, -35.00000000000000000, -32.99999999999999289 ) ) ;
#1153 = DIRECTION ( 'NONE',  ( -0.000000000000000000, 1.000000000000000000, -0.000000000000000000 ) ) ;
#1154 = ORIENTED_EDGE ( 'NONE', *, *, #522, .T. ) ;
#1155 = CARTESIAN_POINT ( 'NONE',  ( -14.04611538461538878, -15.00000000000000000, 29.62729222398071727 ) ) ;
#1156 = APPLICATION_CONTEXT ( 'configuration controlled 3d designs of mechanical parts and assemblies' ) ;
#1157 = DIRECTION ( 'NONE',  ( 0.000000000000000000, 0.000000000000000000, -1.000000000000000000 ) ) ;
#1158 = EDGE_CURVE ( 'NONE', #299, #424, #954, .T. ) ;
#1159 = LINE ( 'NONE', #411, #883 ) ;
#1160 = CIRCLE ( 'NONE', #875, 78.00000000000001421 ) ;
#1161 = ORIENTED_EDGE ( 'NONE', *, *, #1044, .T. ) ;
#1162 = CARTESIAN_POINT ( 'NONE',  ( 2.449293598294706513E-15, -8.000000000000003553, -23.39999999999999503 ) ) ;
#1163 = ORIENTED_EDGE ( 'NONE', *, *, #1128, .F. ) ;
#1164 = CYLINDRICAL_SURFACE ( 'NONE', #1149, 4.999999999999997335 ) ;
#1165 = DIRECTION ( 'NONE',  ( 0.000000000000000000, 0.000000000000000000, 1.000000000000000000 ) ) ;
#1166 = ADVANCED_FACE ( 'NONE', ( #1000 ), #1104, .F. ) ;
#1167 = VERTEX_POINT ( 'NONE', #342 ) ;
#1168 = AXIS2_PLACEMENT_3D ( 'NONE', #16, #285, #399 ) ;
#1169 = VERTEX_POINT ( 'NONE', #1021 ) ;
#1170 = DIRECTION ( 'NONE',  ( -0.000000000000000000, -1.000000000000000000, -0.000000000000000000 ) ) ;
#1171 = DIRECTION ( 'NONE',  ( 0.000000000000000000, -0.5150380749100563760, -0.8571673007021110013 ) ) ;
#1172 = ORIENTED_EDGE ( 'NONE', *, *, #372, .T. ) ;
#1173 = ADVANCED_FACE ( 'NONE', ( #1031 ), #1220, .F. ) ;
#1174 = EDGE_LOOP ( 'NONE', ( #748, #249, #519, #794 ) ) ;
#1175 = CARTESIAN_POINT ( 'NONE',  ( -35.00000000000000000, -8.000000000000003553, 3.399999999999988809 ) ) ;
#1176 = LINE ( 'NONE', #606, #1127 ) ;
#1177 = ORIENTED_EDGE ( 'NONE', *, *, #1072, .T. ) ;
#1178 = ORIENTED_EDGE ( 'NONE', *, *, #833, .T. ) ;
#1179 = CARTESIAN_POINT ( 'NONE',  ( 2.515561355437166943E-15, 15.00000000000000000, 41.08223460329294596 ) ) ;
#1180 = ADVANCED_FACE ( 'NONE', ( #350 ), #1195, .T. ) ;
#1181 = FACE_OUTER_BOUND ( 'NONE', #3, .T. ) ;
#1182 = ADVANCED_BREP_SHAPE_REPRESENTATION ( '3Dpunch', ( #666, #188 ), #981 ) ;
#1183 = ORIENTED_EDGE ( 'NONE', *, *, #720, .T. ) ;
#1184 = AXIS2_PLACEMENT_3D ( 'NONE', #1217, #373, #646 ) ;
#1185 = VERTEX_POINT ( 'NONE', #362 ) ;
#1186 = DIRECTION ( 'NONE',  ( 0.000000000000000000, 0.000000000000000000, -1.000000000000000000 ) ) ;
#1187 = AXIS2_PLACEMENT_3D ( 'NONE', #615, #995, #620 ) ;
#1188 = LOCAL_TIME ( 12, 28, 4.000000000000000000, #435 ) ;
#1189 = PRODUCT_RELATED_PRODUCT_CATEGORY ( 'detail', '', ( #993 ) ) ;
#1190 = PRODUCT_DEFINITION_SHAPE ( 'NONE', 'NONE',  #394 ) ;
#1191 = DIRECTION ( 'NONE',  ( 1.000000000000000000, -0.000000000000000000, 1.067522139062650425E-16 ) ) ;
#1192 = ORIENTED_EDGE ( 'NONE', *, *, #999, .F. ) ;
#1193 = ORIENTED_EDGE ( 'NONE', *, *, #773, .F. ) ;
#1194 = CARTESIAN_POINT ( 'NONE',  ( 53.00000000000000000, -15.00000000000000000, 33.00000000000000711 ) ) ;
#1195 = CYLINDRICAL_SURFACE ( 'NONE', #856, 82.96499999999998920 ) ;
#1196 = LINE ( 'NONE', #334, #46 ) ;
#1197 = EDGE_CURVE ( 'NONE', #1004, #299, #1112, .T. ) ;
#1198 = ORIENTED_EDGE ( 'NONE', *, *, #582, .F. ) ;
#1199 = ORIENTED_EDGE ( 'NONE', *, *, #456, .T. ) ;
#1200 = CARTESIAN_POINT ( 'NONE',  ( -35.00000000000000000, -8.000000000000003553, -4.286263797015736496E-15 ) ) ;
#1201 = AXIS2_PLACEMENT_3D ( 'NONE', #170, #535, #832 ) ;
#1202 = CONICAL_SURFACE ( 'NONE', #1121, 3.399999999999993250, 1.029744258676651869 ) ;
#1203 = CARTESIAN_POINT ( 'NONE',  ( -28.50000000000000000, 0.000000000000000000, -3.490243377569956456E-15 ) ) ;
#1204 = FACE_OUTER_BOUND ( 'NONE', #504, .T. ) ;
#1205 = LINE ( 'NONE', #345, #734 ) ;
#1206 = EDGE_CURVE ( 'NONE', #1227, #691, #1017, .T. ) ;
#1207 = ORIENTED_EDGE ( 'NONE', *, *, #961, .T. ) ;
#1208 = DIRECTION ( 'NONE',  ( 0.000000000000000000, 0.000000000000000000, -1.000000000000000000 ) ) ;
#1209 = DIRECTION ( 'NONE',  ( -0.000000000000000000, -1.000000000000000000, -0.000000000000000000 ) ) ;
#1210 = CIRCLE ( 'NONE', #529, 3.400000000000000355 ) ;
#1211 = VECTOR ( 'NONE', #1114, 1000.000000000000000 ) ;
#1212 = DIRECTION ( 'NONE',  ( -0.000000000000000000, 1.000000000000000000, -0.000000000000000000 ) ) ;
#1213 = CC_DESIGN_APPROVAL ( #89, ( #394 ) ) ;
#1214 = DIRECTION ( 'NONE',  ( 1.049727191138617093E-16, -0.5150380749100563760, 0.8571673007021110013 ) ) ;
#1215 = VERTEX_POINT ( 'NONE', #554 ) ;
#1216 = CARTESIAN_POINT ( 'NONE',  ( 65.00000000000000000, -15.00000000000000000, 50.00000000000000000 ) ) ;
#1217 = CARTESIAN_POINT ( 'NONE',  ( -1.531698087479299077E-15, -15.00000000000000000, 41.08223460329295307 ) ) ;
#1218 = EDGE_LOOP ( 'NONE', ( #1073, #250, #576, #1136 ) ) ;
#1219 = DIRECTION ( 'NONE',  ( 0.000000000000000000, 0.000000000000000000, -1.000000000000000000 ) ) ;
#1220 = CYLINDRICAL_SURFACE ( 'NONE', #481, 3.399999999999996803 ) ;
#1221 = ADVANCED_FACE ( 'NONE', ( #821 ), #627, .F. ) ;
#1222 = DATE_TIME_ROLE ( 'classification_date' ) ;
#1223 = CIRCLE ( 'NONE', #133, 36.99999999999999289 ) ;
#1224 = DIRECTION ( 'NONE',  ( 0.000000000000000000, 0.000000000000000000, 1.000000000000000000 ) ) ;
#1225 = EDGE_LOOP ( 'NONE', ( #491, #713, #765, #1131 ) ) ;
#1226 = DIRECTION ( 'NONE',  ( 0.000000000000000000, 0.000000000000000000, -1.000000000000000000 ) ) ;
#1227 = VERTEX_POINT ( 'NONE', #143 ) ;
#1228 = APPROVAL_ROLE ( '' ) ;
#1229 = AXIS2_PLACEMENT_3D ( 'NONE', #110, #678, #693 ) ;
#1230 = AXIS2_PLACEMENT_3D ( 'NONE', #1139, #202, #567 ) ;
#1231 = EDGE_CURVE ( 'NONE', #806, #1185, #743, .T. ) ;
#1232 = CARTESIAN_POINT ( 'NONE',  ( 65.00000000000000000, -15.00000000000000000, 50.00000000000000000 ) ) ;
#1233 = CIRCLE ( 'NONE', #687, 28.00000000000000000 ) ;
#1234 = ORIENTED_EDGE ( 'NONE', *, *, #32, .F. ) ;
#1235 = CARTESIAN_POINT ( 'NONE',  ( 3.577116575637162026E-15, 15.00000000000000000, 58.41874699101308721 ) ) ;
#1236 = CARTESIAN_POINT ( 'NONE',  ( -53.00000000000000711, -35.00000000000000000, -37.99999999999999289 ) ) ;
#1237 = LINE ( 'NONE', #463, #323 ) ;
#1238 = EDGE_CURVE ( 'NONE', #497, #348, #440, .T. ) ;
#1239 = ORIENTED_EDGE ( 'NONE', *, *, #116, .F. ) ;
#1240 = DIRECTION ( 'NONE',  ( 0.000000000000000000, 0.000000000000000000, -1.000000000000000000 ) ) ;
#1241 = DIRECTION ( 'NONE',  ( 0.000000000000000000, 0.000000000000000000, -1.000000000000000000 ) ) ;
ENDSEC;
END-ISO-10303-21;
