ISO-10303-21;
HEADER;
FILE_DESCRIPTION(
  ('This file contains a STEP AP42 implementation'
    ,'as created by ZW3D STEP Interface translator.'
    ,'')
  ,'2;1'
  );
FILE_NAME(
  'POM21.stp'
  ,'2510 3.135041',
  (''),
  ('ZWCAD Software Co.'),
  'Version 1.0',
  'ZW3D to STEP translator',
  ''
  );
FILE_SCHEMA(('AUTOMOTIVE_DESIGN { 1 0 10303 214 1 1 1 1 }'));
ENDSEC;

DATA;

/**File Base Unit**/
#1 = (LENGTH_UNIT()NAMED_UNIT(*)SI_UNIT(.MILLI.,.METRE.));
#2 = (NAMED_UNIT(*)PLANE_ANGLE_UNIT()SI_UNIT($,.RADIAN.));
#3 = (NAMED_UNIT(*)SI_UNIT($,.STERADIAN.)SOLID_ANGLE_UNIT());
#4 = UNCERTAINTY_MEASURE_WITH_UNIT(LENGTH_MEASURE(0.01),#1,'DISTANCE_ACCURACY_VALUE','Maximum Tolerance applied to model');
#5 = (GEOMETRIC_REPRESENTATION_CONTEXT(3)GLOBAL_UNCERTAINTY_ASSIGNED_CONTEXT((#4))GLOBAL_UNIT_ASSIGNED_CONTEXT((#1,#2,#3))REPRESENTATION_CONTEXT('STEP 203','TOP_LEVEL_ASSEMBLY_PART'));

/**product_definition_shape**/
#6=APPLICATION_CONTEXT('mechanical parts and assemblies' );
#7=DESIGN_CONTEXT('NONE',#6,'design');
#8=MECHANICAL_CONTEXT('NONE',#6,'mechanical');
#9=PRODUCT('0','Part','',(#8));
#10=PRODUCT_DEFINITION_FORMATION_WITH_SPECIFIED_SOURCE('ANY','',#9,.NOT_KNOWN.);
#11=PRODUCT_DEFINITION('UNKNOWN','',#10,#7);
#12=PRODUCT_DEFINITION_SHAPE('NONE','NONE',#11);
#13=PRODUCT_RELATED_PRODUCT_CATEGORY('detail','',(#9));
/**geometry information**/
#14=CARTESIAN_POINT('',(0.,0.,0.));
#15=DIRECTION('',(0.,0.,1.));
#16=DIRECTION('',(1.,0.,0.));
#17=AXIS2_PLACEMENT_3D('',#14,#15,#16);
#18=SHAPE_REPRESENTATION('none',(#17),#5);
#19=SHAPE_DEFINITION_REPRESENTATION(#12,#18);
#20=CARTESIAN_POINT('',(-2.6794919243112,-7.105427357601E-15,20.));
#21=DIRECTION('',(1.,0.,0.));
#22=DIRECTION('',(0.,0.,1.));
#23=AXIS2_PLACEMENT_3D('',#20,#22,#21);
#24=PLANE('',#23);
#25=CARTESIAN_POINT('',(10.,0.,20.));
#26=VERTEX_POINT('',#25);
#27=CARTESIAN_POINT('',(1.7763568394003E-15,0.,20.));
#28=DIRECTION('',(1.,-0.,-0.));
#29=DIRECTION('',(0.,-0.,1.));
#30=AXIS2_PLACEMENT_3D('',#27,#29,#28);
#31=CIRCLE('',#30,10.);
#32=EDGE_CURVE('',#26,#26,#31,.T.);
#33=ORIENTED_EDGE('E2',*,*,#32,.T.);
#34=EDGE_LOOP('',(#33));
#35=FACE_OUTER_BOUND('',#34,.T.);
#36=CARTESIAN_POINT('',(8.,0.,20.));
#37=VERTEX_POINT('',#36);
#38=CARTESIAN_POINT('',(-1.7763568394003E-15,0.,20.));
#39=DIRECTION('',(1.,-0.,-0.));
#40=DIRECTION('',(0.,-0.,1.));
#41=AXIS2_PLACEMENT_3D('',#38,#40,#39);
#42=CIRCLE('',#41,8.);
#43=EDGE_CURVE('',#37,#37,#42,.T.);
#44=ORIENTED_EDGE('E4',*,*,#43,.F.);
#45=EDGE_LOOP('',(#44));
#46=FACE_BOUND('',#45,.T.);
#47=ADVANCED_FACE('F2',(#35,#46),#24,.T.);
#48=CARTESIAN_POINT('',(-2.6794919243112,-7.105427357601E-15,0.));
#49=DIRECTION('',(1.,0.,0.));
#50=DIRECTION('',(0.,0.,1.));
#51=AXIS2_PLACEMENT_3D('',#48,#50,#49);
#52=PLANE('',#51);
#53=CARTESIAN_POINT('',(9.5,0.,-5.5511151231258E-17));
#54=VERTEX_POINT('',#53);
#55=CARTESIAN_POINT('',(0.,6.2803698347351E-16,1.895269253967E-16));
#56=DIRECTION('',(1.,-6.6109156155106E-17,-2.5793481750312E-17));
#57=DIRECTION('',(-2.5793481750312E-17,2.4203654424138E-18,-1.));
#58=AXIS2_PLACEMENT_3D('',#55,#57,#56);
#59=CIRCLE('',#58,9.5);
#60=EDGE_CURVE('',#54,#54,#59,.T.);
#61=ORIENTED_EDGE('E8',*,*,#60,.F.);
#62=EDGE_LOOP('',(#61));
#63=FACE_OUTER_BOUND('',#62,.F.);
#64=ADVANCED_FACE('F1',(#63),#52,.F.);
#65=CARTESIAN_POINT('',(-4.4408920985006E-16,0.,0.));
#66=DIRECTION('',(1.,0.,0.));
#67=DIRECTION('',(2.2204460492503E-17,0.,1.));
#68=AXIS2_PLACEMENT_3D('',#65,#67,#66);
#69=CYLINDRICAL_SURFACE('',#68,10.);
#70=ORIENTED_EDGE('',*,*,#32,.F.);
#71=CARTESIAN_POINT('',(10.,-2.4492935982947E-15,0.5));
#72=VERTEX_POINT('',#71);
#73=CARTESIAN_POINT('',(10.,-2.4492935982947E-15,0.5));
#74=DIRECTION('',(0.,0.,1.));
#75=VECTOR('',#74,19.5);
#76=LINE('',#73,#75);
#77=EDGE_CURVE('',#72,#26,#76,.T.);
#78=ORIENTED_EDGE('E3',*,*,#77,.F.);
#79=CARTESIAN_POINT('',(0.,-6.2175154991358E-15,0.5));
#80=DIRECTION('',(1.,3.7682219008411E-16,-3.0054922785922E-17));
#81=DIRECTION('',(-3.0054922785922E-17,7.8504622934189E-18,-1.));
#82=AXIS2_PLACEMENT_3D('',#79,#81,#80);
#83=CIRCLE('',#82,10.);
#84=EDGE_CURVE('',#72,#72,#83,.T.);
#85=ORIENTED_EDGE('E9',*,*,#84,.F.);
#86=ORIENTED_EDGE('E9',*,*,#77,.T.);
#87=EDGE_LOOP('',(#70,#78,#85,#86));
#88=FACE_OUTER_BOUND('',#87,.T.);
#89=ADVANCED_FACE('F3',(#88),#69,.T.);
#90=CARTESIAN_POINT('',(-4.4408920985006E-16,-1.7763568394003E-15,20.));
#91=DIRECTION('',(1.,2.2204460492503E-16,0.));
#92=DIRECTION('',(8.8817841970013E-18,0.,1.));
#93=AXIS2_PLACEMENT_3D('',#90,#92,#91);
#94=CYLINDRICAL_SURFACE('',#93,8.);
#95=ORIENTED_EDGE('',*,*,#43,.T.);
#96=CARTESIAN_POINT('',(8.,-1.9594348786358E-15,69.5));
#97=VERTEX_POINT('',#96);
#98=CARTESIAN_POINT('',(8.,-1.9594348786358E-15,20.));
#99=DIRECTION('',(0.,0.,1.));
#100=VECTOR('',#99,49.5);
#101=LINE('',#98,#100);
#102=EDGE_CURVE('',#37,#97,#101,.T.);
#103=ORIENTED_EDGE('E6',*,*,#102,.T.);
#104=CARTESIAN_POINT('',(1.7763568394003E-15,-5.7276567794768E-15,69.5));
#105=DIRECTION('',(1.,4.7102773760513E-16,6.2803698347351E-16));
#106=DIRECTION('',(6.2803698347351E-16,-6.2803698347351E-16,-1.));
#107=AXIS2_PLACEMENT_3D('',#104,#106,#105);
#108=CIRCLE('',#107,8.);
#109=EDGE_CURVE('',#97,#97,#108,.T.);
#110=ORIENTED_EDGE('E12',*,*,#109,.T.);
#111=ORIENTED_EDGE('E12',*,*,#102,.F.);
#112=EDGE_LOOP('',(#95,#103,#110,#111));
#113=FACE_OUTER_BOUND('',#112,.T.);
#114=ADVANCED_FACE('F6',(#113),#94,.T.);
#115=CARTESIAN_POINT('',(1.1143541944522E-15,-8.9037248459229E-15,-1.6653345369377E-15));
#116=DIRECTION('',(1.,8.9026800531171E-16,-2.0753660485526E-17));
#117=DIRECTION('',(2.0753660485526E-17,2.0895856115897E-18,1.));
#118=AXIS2_PLACEMENT_3D('',#115,#117,#116);
#119=CONICAL_SURFACE('',#118,9.5,0.78539816339745);
#120=CARTESIAN_POINT('',(9.5,0.,-5.5511151231258E-17));
#121=DIRECTION('',(0.70710678118655,0.,0.70710678118655));
#122=VECTOR('',#121,0.70710678118655);
#123=LINE('',#120,#122);
#124=EDGE_CURVE('',#54,#72,#123,.T.);
#125=ORIENTED_EDGE('E7',*,*,#124,.T.);
#126=ORIENTED_EDGE('E7',*,*,#84,.F.);
#127=ORIENTED_EDGE('E7',*,*,#124,.F.);
#128=ORIENTED_EDGE('E7',*,*,#60,.T.);
#129=EDGE_LOOP('',(#125,#126,#127,#128));
#130=FACE_OUTER_BOUND('',#129,.F.);
#131=ADVANCED_FACE('F7',(#130),#119,.T.);
#132=CARTESIAN_POINT('',(1.3766765505352E-14,-7.105427357601E-15,70.));
#133=DIRECTION('',(1.,8.8817841970013E-16,0.));
#134=DIRECTION('',(-0.,-0.,-1.));
#135=AXIS2_PLACEMENT_3D('',#132,#134,#133);
#136=CONICAL_SURFACE('',#135,7.5,0.78539816339748);
#137=CARTESIAN_POINT('',(7.5,-1.1102230246252E-16,70.));
#138=VERTEX_POINT('',#137);
#139=CARTESIAN_POINT('',(7.5,-1.1102230246252E-16,70.));
#140=DIRECTION('',(0.70710678118655,1.5700924586838E-16,-0.70710678118655));
#141=VECTOR('',#140,0.70710678118655);
#142=LINE('',#139,#141);
#143=EDGE_CURVE('',#138,#97,#142,.T.);
#144=ORIENTED_EDGE('E10',*,*,#143,.T.);
#145=ORIENTED_EDGE('E10',*,*,#109,.F.);
#146=ORIENTED_EDGE('E10',*,*,#143,.F.);
#147=CARTESIAN_POINT('',(8.8817841970013E-16,-1.9951332528831E-15,70.));
#148=DIRECTION('',(1.,2.5121479338941E-16,1.3398122314102E-15));
#149=DIRECTION('',(1.3398122314102E-15,-1.3398122314102E-15,-1.));
#150=AXIS2_PLACEMENT_3D('',#147,#149,#148);
#151=CIRCLE('',#150,7.5);
#152=EDGE_CURVE('',#138,#138,#151,.T.);
#153=ORIENTED_EDGE('E11',*,*,#152,.T.);
#154=EDGE_LOOP('',(#144,#145,#146,#153));
#155=FACE_OUTER_BOUND('',#154,.T.);
#156=ADVANCED_FACE('F8',(#155),#136,.T.);
#157=CARTESIAN_POINT('',(-2.143593539449,-1.0658141036402E-14,70.));
#158=DIRECTION('',(1.,0.,0.));
#159=DIRECTION('',(0.,0.,1.));
#160=AXIS2_PLACEMENT_3D('',#157,#159,#158);
#161=PLANE('',#160);
#162=ORIENTED_EDGE('',*,*,#152,.F.);
#163=EDGE_LOOP('',(#162));
#164=FACE_OUTER_BOUND('',#163,.T.);
#165=CARTESIAN_POINT('',(-1.1021821192326E-15,6.,70.));
#166=VERTEX_POINT('',#165);
#167=CARTESIAN_POINT('',(2.6525801330681E-16,-3.5527136788005E-15,70.));
#168=DIRECTION('',(-2.2790668875657E-16,1.,-0.));
#169=DIRECTION('',(0.,0.,1.));
#170=AXIS2_PLACEMENT_3D('',#167,#169,#168);
#171=CIRCLE('',#170,6.);
#172=EDGE_CURVE('',#166,#166,#171,.T.);
#173=ORIENTED_EDGE('E13',*,*,#172,.F.);
#174=EDGE_LOOP('',(#173));
#175=FACE_BOUND('',#174,.T.);
#176=ADVANCED_FACE('F5',(#164,#175),#161,.T.);
#177=CARTESIAN_POINT('',(8.8817841970013E-16,8.8817841970013E-16,70.));
#178=DIRECTION('',(-3.3172675648879E-16,1.,0.));
#179=DIRECTION('',(0.,0.,1.));
#180=AXIS2_PLACEMENT_3D('',#177,#179,#178);
#181=CYLINDRICAL_SURFACE('',#180,6.);
#182=ORIENTED_EDGE('',*,*,#172,.T.);
#183=CARTESIAN_POINT('',(-1.1021821192326E-15,6.,105.));
#184=VERTEX_POINT('',#183);
#185=CARTESIAN_POINT('',(3.6739403974421E-16,6.,70.));
#186=DIRECTION('',(0.,0.,1.));
#187=VECTOR('',#186,35.);
#188=LINE('',#185,#187);
#189=EDGE_CURVE('',#166,#184,#188,.T.);
#190=ORIENTED_EDGE('E15',*,*,#189,.T.);
#191=CARTESIAN_POINT('',(2.6525801330681E-16,-3.5527136788005E-15,105.));
#192=DIRECTION('',(-2.2790668875657E-16,1.,-0.));
#193=DIRECTION('',(0.,0.,1.));
#194=AXIS2_PLACEMENT_3D('',#191,#193,#192);
#195=CIRCLE('',#194,6.);
#196=EDGE_CURVE('',#184,#184,#195,.T.);
#197=ORIENTED_EDGE('E14',*,*,#196,.F.);
#198=ORIENTED_EDGE('E14',*,*,#189,.F.);
#199=EDGE_LOOP('',(#182,#190,#197,#198));
#200=FACE_OUTER_BOUND('',#199,.T.);
#201=ADVANCED_FACE('F9',(#200),#181,.T.);
#202=CARTESIAN_POINT('',(1.7763568394003E-15,-1.6076951545867,105.));
#203=DIRECTION('',(-1.5539092415221E-16,1.,0.));
#204=DIRECTION('',(0.,0.,1.));
#205=AXIS2_PLACEMENT_3D('',#202,#204,#203);
#206=PLANE('',#205);
#207=ORIENTED_EDGE('',*,*,#196,.T.);
#208=EDGE_LOOP('',(#207));
#209=FACE_OUTER_BOUND('',#208,.T.);
#210=ADVANCED_FACE('F10',(#209),#206,.T.);
#211=CLOSED_SHELL('',(#47,#64,#89,#114,#131,#156,#176,#201,#210));
#212=COLOUR_RGB('',0.745098,0.901961,0.960784);
#213=FILL_AREA_STYLE_COLOUR('',#212);
#214=FILL_AREA_STYLE('',(#213));
#215=SURFACE_STYLE_FILL_AREA(#214);
#216=SURFACE_SIDE_STYLE('',(#215));
#217=SURFACE_STYLE_USAGE(.BOTH.,#216);
#218=PRESENTATION_STYLE_ASSIGNMENT((#217));
#219=OVER_RIDING_STYLED_ITEM('',(#218),#47,#211);
#220=OVER_RIDING_STYLED_ITEM('',(#218),#64,#211);
#221=OVER_RIDING_STYLED_ITEM('',(#218),#89,#211);
#222=OVER_RIDING_STYLED_ITEM('',(#218),#114,#211);
#223=OVER_RIDING_STYLED_ITEM('',(#218),#131,#211);
#224=OVER_RIDING_STYLED_ITEM('',(#218),#156,#211);
#225=OVER_RIDING_STYLED_ITEM('',(#218),#176,#211);
#226=OVER_RIDING_STYLED_ITEM('',(#218),#201,#211);
#227=OVER_RIDING_STYLED_ITEM('',(#218),#210,#211);
#228=MANIFOLD_SOLID_BREP('S1',#211);
#229=ADVANCED_BREP_SHAPE_REPRESENTATION('none',(#228),#5);
#230=SHAPE_REPRESENTATION_RELATIONSHIP('none','generic',#18,#229);
#231=CARTESIAN_POINT('',(-9.3873519897461,-13.675888061523,2.8421709430404E-14));
#232=CARTESIAN_POINT('',(-1.4338595867157,-13.675888061523,2.8421709430404E-14));
#233=CARTESIAN_POINT('',(1.4338595867157,-13.675888061523,2.8421709430404E-14));
#234=CARTESIAN_POINT('',(9.3873519897461,-13.675888061523,2.8421709430404E-14));
#235=CARTESIAN_POINT('',(-10.,-10.317499995232,2.8421709430404E-14));
#236=CARTESIAN_POINT('',(-10.,-14.288536071777,2.8421709430404E-14));
#237=CARTESIAN_POINT('',(10.,-10.317499995232,2.8421709430404E-14));
#238=CARTESIAN_POINT('',(10.,-14.288536071777,2.8421709430404E-14));
#239=CARTESIAN_POINT('',(-1.2029677629471,-13.517939567566,2.8421709430404E-14));
#240=CARTESIAN_POINT('',(-1.2029677629471,-13.489221572876,2.8421709430404E-14));
#241=CARTESIAN_POINT('',(-1.2029677629471,-13.489221572876,2.8421709430404E-14));
#242=CARTESIAN_POINT('',(-1.1741063594818,-13.431786060333,2.8421709430404E-14));
#243=CARTESIAN_POINT('',(-1.1741063594818,-13.431786060333,2.8421709430404E-14));
#244=CARTESIAN_POINT('',(-1.1452448368073,-13.403068065643,2.8421709430404E-14));
#245=CARTESIAN_POINT('',(-1.1452448368073,-13.403068065643,2.8421709430404E-14));
#246=CARTESIAN_POINT('',(-1.0811083316803,-13.369563817978,2.8421709430404E-14));
#247=CARTESIAN_POINT('',(-1.0811083316803,-13.369563817978,2.8421709430404E-14));
#248=CARTESIAN_POINT('',(-0.96886920928955,-13.369563817978,2.8421709430404E-14));
#249=CARTESIAN_POINT('',(-0.96886920928955,-13.369563817978,2.8421709430404E-14));
#250=CARTESIAN_POINT('',(-0.90473264455795,-13.403068065643,2.8421709430404E-14));
#251=CARTESIAN_POINT('',(-0.90473264455795,-13.403068065643,2.8421709430404E-14));
#252=CARTESIAN_POINT('',(-0.87587118148804,-13.431786060333,2.8421709430404E-14));
#253=CARTESIAN_POINT('',(-0.87587118148804,-13.431786060333,2.8421709430404E-14));
#254=CARTESIAN_POINT('',(-0.84700971841812,-13.489221572876,2.8421709430404E-14));
#255=CARTESIAN_POINT('',(-0.84700971841812,-13.489221572876,2.8421709430404E-14));
#256=CARTESIAN_POINT('',(-0.84700971841812,-13.551443815231,2.8421709430404E-14));
#257=CARTESIAN_POINT('',(-0.84700971841812,-13.551443815231,2.8421709430404E-14));
#258=CARTESIAN_POINT('',(-0.87587118148804,-13.604093074799,2.8421709430404E-14));
#259=CARTESIAN_POINT('',(-0.87587118148804,-13.604093074799,2.8421709430404E-14));
#260=CARTESIAN_POINT('',(-0.94000780582428,-13.69024682045,2.8421709430404E-14));
#261=CARTESIAN_POINT('',(-0.94000780582428,-13.69024682045,2.8421709430404E-14));
#262=CARTESIAN_POINT('',(-1.2286224365234,-13.982211828232,2.8421709430404E-14));
#263=CARTESIAN_POINT('',(-1.2286224365234,-13.982211828232,2.8421709430404E-14));
#264=CARTESIAN_POINT('',(-0.8181482553482,-13.982211828232,2.8421709430404E-14));
#265=CARTESIAN_POINT('',(-0.45797824859619,-13.369563817978,2.8421709430404E-14));
#266=CARTESIAN_POINT('',(-0.5509762763977,-13.403068065643,2.8421709430404E-14));
#267=CARTESIAN_POINT('',(-0.5509762763977,-13.403068065643,2.8421709430404E-14));
#268=CARTESIAN_POINT('',(-0.60869926214218,-13.489221572876,2.8421709430404E-14));
#269=CARTESIAN_POINT('',(-0.60869926214218,-13.489221572876,2.8421709430404E-14));
#270=CARTESIAN_POINT('',(-0.63435387611389,-13.637597322464,2.8421709430404E-14));
#271=CARTESIAN_POINT('',(-0.63435387611389,-13.637597322464,2.8421709430404E-14));
#272=CARTESIAN_POINT('',(-0.63435387611389,-13.718964576721,2.8421709430404E-14));
#273=CARTESIAN_POINT('',(-0.63435387611389,-13.718964576721,2.8421709430404E-14));
#274=CARTESIAN_POINT('',(-0.60869926214218,-13.867340326309,2.8421709430404E-14));
#275=CARTESIAN_POINT('',(-0.60869926214218,-13.867340326309,2.8421709430404E-14));
#276=CARTESIAN_POINT('',(-0.5509762763977,-13.95349407196,2.8421709430404E-14));
#277=CARTESIAN_POINT('',(-0.5509762763977,-13.95349407196,2.8421709430404E-14));
#278=CARTESIAN_POINT('',(-0.45797824859619,-13.982211828232,2.8421709430404E-14));
#279=CARTESIAN_POINT('',(-0.45797824859619,-13.982211828232,2.8421709430404E-14));
#280=CARTESIAN_POINT('',(-0.40346214175224,-13.982211828232,2.8421709430404E-14));
#281=CARTESIAN_POINT('',(-0.40346214175224,-13.982211828232,2.8421709430404E-14));
#282=CARTESIAN_POINT('',(-0.31046408414841,-13.95349407196,2.8421709430404E-14));
#283=CARTESIAN_POINT('',(-0.31046408414841,-13.95349407196,2.8421709430404E-14));
#284=CARTESIAN_POINT('',(-0.25274115800857,-13.867340326309,2.8421709430404E-14));
#285=CARTESIAN_POINT('',(-0.25274115800857,-13.867340326309,2.8421709430404E-14));
#286=CARTESIAN_POINT('',(-0.22387969493866,-13.718964576721,2.8421709430404E-14));
#287=CARTESIAN_POINT('',(-0.22387969493866,-13.718964576721,2.8421709430404E-14));
#288=CARTESIAN_POINT('',(-0.22387969493866,-13.637597322464,2.8421709430404E-14));
#289=CARTESIAN_POINT('',(-0.22387969493866,-13.637597322464,2.8421709430404E-14));
#290=CARTESIAN_POINT('',(-0.25274115800857,-13.489221572876,2.8421709430404E-14));
#291=CARTESIAN_POINT('',(-0.25274115800857,-13.489221572876,2.8421709430404E-14));
#292=CARTESIAN_POINT('',(-0.31046408414841,-13.403068065643,2.8421709430404E-14));
#293=CARTESIAN_POINT('',(-0.31046408414841,-13.403068065643,2.8421709430404E-14));
#294=CARTESIAN_POINT('',(-0.40346214175224,-13.369563817978,2.8421709430404E-14));
#295=CARTESIAN_POINT('',(-0.40346214175224,-13.369563817978,2.8421709430404E-14));
#296=CARTESIAN_POINT('',(-0.45797824859619,-13.369563817978,2.8421709430404E-14));
#297=CARTESIAN_POINT('',(0.0016034692525873,-13.924776077271,2.8421709430404E-14));
#298=CARTESIAN_POINT('',(-0.040085315704345,-13.95349407196,2.8421709430404E-14));
#299=CARTESIAN_POINT('',(-0.040085315704345,-13.95349407196,2.8421709430404E-14));
#300=CARTESIAN_POINT('',(0.0016034692525873,-13.982211828232,2.8421709430404E-14));
#301=CARTESIAN_POINT('',(0.0016034692525873,-13.982211828232,2.8421709430404E-14));
#302=CARTESIAN_POINT('',(0.040085420012475,-13.95349407196,2.8421709430404E-14));
#303=CARTESIAN_POINT('',(0.040085420012475,-13.95349407196,2.8421709430404E-14));
#304=CARTESIAN_POINT('',(0.0016034692525873,-13.924776077271,2.8421709430404E-14));
#305=CARTESIAN_POINT('',(0.40025544166565,-13.369563817978,2.8421709430404E-14));
#306=CARTESIAN_POINT('',(0.30725738406181,-13.403068065643,2.8421709430404E-14));
#307=CARTESIAN_POINT('',(0.30725738406181,-13.403068065643,2.8421709430404E-14));
#308=CARTESIAN_POINT('',(0.24953445792198,-13.489221572876,2.8421709430404E-14));
#309=CARTESIAN_POINT('',(0.24953445792198,-13.489221572876,2.8421709430404E-14));
#310=CARTESIAN_POINT('',(0.22387981414795,-13.637597322464,2.8421709430404E-14));
#311=CARTESIAN_POINT('',(0.22387981414795,-13.637597322464,2.8421709430404E-14));
#312=CARTESIAN_POINT('',(0.22387981414795,-13.718964576721,2.8421709430404E-14));
#313=CARTESIAN_POINT('',(0.22387981414795,-13.718964576721,2.8421709430404E-14));
#314=CARTESIAN_POINT('',(0.24953445792198,-13.867340326309,2.8421709430404E-14));
#315=CARTESIAN_POINT('',(0.24953445792198,-13.867340326309,2.8421709430404E-14));
#316=CARTESIAN_POINT('',(0.30725738406181,-13.95349407196,2.8421709430404E-14));
#317=CARTESIAN_POINT('',(0.30725738406181,-13.95349407196,2.8421709430404E-14));
#318=CARTESIAN_POINT('',(0.40025544166565,-13.982211828232,2.8421709430404E-14));
#319=CARTESIAN_POINT('',(0.40025544166565,-13.982211828232,2.8421709430404E-14));
#320=CARTESIAN_POINT('',(0.4547715485096,-13.982211828232,2.8421709430404E-14));
#321=CARTESIAN_POINT('',(0.4547715485096,-13.982211828232,2.8421709430404E-14));
#322=CARTESIAN_POINT('',(0.54776960611343,-13.95349407196,2.8421709430404E-14));
#323=CARTESIAN_POINT('',(0.54776960611343,-13.95349407196,2.8421709430404E-14));
#324=CARTESIAN_POINT('',(0.60549253225327,-13.867340326309,2.8421709430404E-14));
#325=CARTESIAN_POINT('',(0.60549253225327,-13.867340326309,2.8421709430404E-14));
#326=CARTESIAN_POINT('',(0.63435399532318,-13.718964576721,2.8421709430404E-14));
#327=CARTESIAN_POINT('',(0.63435399532318,-13.718964576721,2.8421709430404E-14));
#328=CARTESIAN_POINT('',(0.63435399532318,-13.637597322464,2.8421709430404E-14));
#329=CARTESIAN_POINT('',(0.63435399532318,-13.637597322464,2.8421709430404E-14));
#330=CARTESIAN_POINT('',(0.60549253225327,-13.489221572876,2.8421709430404E-14));
#331=CARTESIAN_POINT('',(0.60549253225327,-13.489221572876,2.8421709430404E-14));
#332=CARTESIAN_POINT('',(0.54776960611343,-13.403068065643,2.8421709430404E-14));
#333=CARTESIAN_POINT('',(0.54776960611343,-13.403068065643,2.8421709430404E-14));
#334=CARTESIAN_POINT('',(0.4547715485096,-13.369563817978,2.8421709430404E-14));
#335=CARTESIAN_POINT('',(0.4547715485096,-13.369563817978,2.8421709430404E-14));
#336=CARTESIAN_POINT('',(0.40025544166565,-13.369563817978,2.8421709430404E-14));
#337=CARTESIAN_POINT('',(0.9945240020752,-13.369563817978,2.8421709430404E-14));
#338=CARTESIAN_POINT('',(0.90152597427368,-13.403068065643,2.8421709430404E-14));
#339=CARTESIAN_POINT('',(0.90152597427368,-13.403068065643,2.8421709430404E-14));
#340=CARTESIAN_POINT('',(0.84380298852921,-13.489221572876,2.8421709430404E-14));
#341=CARTESIAN_POINT('',(0.84380298852921,-13.489221572876,2.8421709430404E-14));
#342=CARTESIAN_POINT('',(0.8181483745575,-13.637597322464,2.8421709430404E-14));
#343=CARTESIAN_POINT('',(0.8181483745575,-13.637597322464,2.8421709430404E-14));
#344=CARTESIAN_POINT('',(0.8181483745575,-13.718964576721,2.8421709430404E-14));
#345=CARTESIAN_POINT('',(0.8181483745575,-13.718964576721,2.8421709430404E-14));
#346=CARTESIAN_POINT('',(0.84380298852921,-13.867340326309,2.8421709430404E-14));
#347=CARTESIAN_POINT('',(0.84380298852921,-13.867340326309,2.8421709430404E-14));
#348=CARTESIAN_POINT('',(0.90152597427368,-13.95349407196,2.8421709430404E-14));
#349=CARTESIAN_POINT('',(0.90152597427368,-13.95349407196,2.8421709430404E-14));
#350=CARTESIAN_POINT('',(0.9945240020752,-13.982211828232,2.8421709430404E-14));
#351=CARTESIAN_POINT('',(0.9945240020752,-13.982211828232,2.8421709430404E-14));
#352=CARTESIAN_POINT('',(1.0490400791168,-13.982211828232,2.8421709430404E-14));
#353=CARTESIAN_POINT('',(1.0490400791168,-13.982211828232,2.8421709430404E-14));
#354=CARTESIAN_POINT('',(1.1420381069183,-13.95349407196,2.8421709430404E-14));
#355=CARTESIAN_POINT('',(1.1420381069183,-13.95349407196,2.8421709430404E-14));
#356=CARTESIAN_POINT('',(1.1997611522675,-13.867340326309,2.8421709430404E-14));
#357=CARTESIAN_POINT('',(1.1997611522675,-13.867340326309,2.8421709430404E-14));
#358=CARTESIAN_POINT('',(1.2286225557327,-13.718964576721,2.8421709430404E-14));
#359=CARTESIAN_POINT('',(1.2286225557327,-13.718964576721,2.8421709430404E-14));
#360=CARTESIAN_POINT('',(1.2286225557327,-13.637597322464,2.8421709430404E-14));
#361=CARTESIAN_POINT('',(1.2286225557327,-13.637597322464,2.8421709430404E-14));
#362=CARTESIAN_POINT('',(1.1997611522675,-13.489221572876,2.8421709430404E-14));
#363=CARTESIAN_POINT('',(1.1997611522675,-13.489221572876,2.8421709430404E-14));
#364=CARTESIAN_POINT('',(1.1420381069183,-13.403068065643,2.8421709430404E-14));
#365=CARTESIAN_POINT('',(1.1420381069183,-13.403068065643,2.8421709430404E-14));
#366=CARTESIAN_POINT('',(1.0490400791168,-13.369563817978,2.8421709430404E-14));
#367=CARTESIAN_POINT('',(1.0490400791168,-13.369563817978,2.8421709430404E-14));
#368=CARTESIAN_POINT('',(0.9945240020752,-13.369563817978,2.8421709430404E-14));
#369=CARTESIAN_POINT('',(-9.3873519897461,-13.511729478836,2.8421709430404E-14));
#370=CARTESIAN_POINT('',(-10.,-13.675888061523,2.8421709430404E-14));
#371=CARTESIAN_POINT('',(-9.3873519897461,-13.840046644211,2.8421709430404E-14));
#372=CARTESIAN_POINT('',(9.3873519897461,-13.840046644211,2.8421709430404E-14));
#373=CARTESIAN_POINT('',(10.,-13.675888061523,2.8421709430404E-14));
#374=CARTESIAN_POINT('',(9.3873519897461,-13.511729478836,2.8421709430404E-14));
#375=CARTESIAN_POINT('',(-13.675888061523,9.3873519897461,2.8421709430404E-14));
#376=CARTESIAN_POINT('',(-13.675888061523,0.61264801025391,2.8421709430404E-14));
#377=CARTESIAN_POINT('',(-13.675888061523,-0.61264801025391,2.8421709430404E-14));
#378=CARTESIAN_POINT('',(-13.675888061523,-9.3873519897461,2.8421709430404E-14));
#379=CARTESIAN_POINT('',(-10.317499995232,10.,2.8421709430404E-14));
#380=CARTESIAN_POINT('',(-14.288536071777,10.,2.8421709430404E-14));
#381=CARTESIAN_POINT('',(-10.317499995232,-10.,2.8421709430404E-14));
#382=CARTESIAN_POINT('',(-14.288536071777,-10.,2.8421709430404E-14));
#383=CARTESIAN_POINT('',(-14.878855705261,0.15794831514358,2.8421709430404E-14));
#384=CARTESIAN_POINT('',(-14.878855705261,0.18666619062424,2.8421709430404E-14));
#385=CARTESIAN_POINT('',(-14.878855705261,0.18666619062424,2.8421709430404E-14));
#386=CARTESIAN_POINT('',(-14.849994182587,0.24410194158554,2.8421709430404E-14));
#387=CARTESIAN_POINT('',(-14.849994182587,0.24410194158554,2.8421709430404E-14));
#388=CARTESIAN_POINT('',(-14.821133136749,0.27281981706619,2.8421709430404E-14));
#389=CARTESIAN_POINT('',(-14.821133136749,0.27281981706619,2.8421709430404E-14));
#390=CARTESIAN_POINT('',(-14.756996154785,0.30632400512695,2.8421709430404E-14));
#391=CARTESIAN_POINT('',(-14.756996154785,0.30632400512695,2.8421709430404E-14));
#392=CARTESIAN_POINT('',(-14.644757270813,0.30632400512695,2.8421709430404E-14));
#393=CARTESIAN_POINT('',(-14.644757270813,0.30632400512695,2.8421709430404E-14));
#394=CARTESIAN_POINT('',(-14.580620765686,0.27281981706619,2.8421709430404E-14));
#395=CARTESIAN_POINT('',(-14.580620765686,0.27281981706619,2.8421709430404E-14));
#396=CARTESIAN_POINT('',(-14.551759243011,0.24410194158554,2.8421709430404E-14));
#397=CARTESIAN_POINT('',(-14.551759243011,0.24410194158554,2.8421709430404E-14));
#398=CARTESIAN_POINT('',(-14.522897720337,0.18666619062424,2.8421709430404E-14));
#399=CARTESIAN_POINT('',(-14.522897720337,0.18666619062424,2.8421709430404E-14));
#400=CARTESIAN_POINT('',(-14.522897720337,0.12444412708282,2.8421709430404E-14));
#401=CARTESIAN_POINT('',(-14.522897720337,0.12444412708282,2.8421709430404E-14));
#402=CARTESIAN_POINT('',(-14.551759243011,0.071794688701629,2.8421709430404E-14));
#403=CARTESIAN_POINT('',(-14.551759243011,0.071794688701629,2.8421709430404E-14));
#404=CARTESIAN_POINT('',(-14.615895748138,-0.014358937740327,2.8421709430404E-14));
#405=CARTESIAN_POINT('',(-14.615895748138,-0.014358937740327,2.8421709430404E-14));
#406=CARTESIAN_POINT('',(-14.904510498047,-0.30632400512695,2.8421709430404E-14));
#407=CARTESIAN_POINT('',(-14.904510498047,-0.30632400512695,2.8421709430404E-14));
#408=CARTESIAN_POINT('',(-14.494036197662,-0.30632400512695,2.8421709430404E-14));
#409=CARTESIAN_POINT('',(-14.13386631012,0.30632400512695,2.8421709430404E-14));
#410=CARTESIAN_POINT('',(-14.226864337921,0.27281981706619,2.8421709430404E-14));
#411=CARTESIAN_POINT('',(-14.226864337921,0.27281981706619,2.8421709430404E-14));
#412=CARTESIAN_POINT('',(-14.284586906433,0.18666619062424,2.8421709430404E-14));
#413=CARTESIAN_POINT('',(-14.284586906433,0.18666619062424,2.8421709430404E-14));
#414=CARTESIAN_POINT('',(-14.310241699219,0.038290500640868,2.8421709430404E-14));
#415=CARTESIAN_POINT('',(-14.310241699219,0.038290500640868,2.8421709430404E-14));
#416=CARTESIAN_POINT('',(-14.310241699219,-0.043076813220979,2.8421709430404E-14));
#417=CARTESIAN_POINT('',(-14.310241699219,-0.043076813220979,2.8421709430404E-14));
#418=CARTESIAN_POINT('',(-14.284586906433,-0.19145250320435,2.8421709430404E-14));
#419=CARTESIAN_POINT('',(-14.284586906433,-0.19145250320435,2.8421709430404E-14));
#420=CARTESIAN_POINT('',(-14.226864337921,-0.2776061296463,2.8421709430404E-14));
#421=CARTESIAN_POINT('',(-14.226864337921,-0.2776061296463,2.8421709430404E-14));
#422=CARTESIAN_POINT('',(-14.13386631012,-0.30632400512695,2.8421709430404E-14));
#423=CARTESIAN_POINT('',(-14.13386631012,-0.30632400512695,2.8421709430404E-14));
#424=CARTESIAN_POINT('',(-14.079349994659,-0.30632400512695,2.8421709430404E-14));
#425=CARTESIAN_POINT('',(-14.079349994659,-0.30632400512695,2.8421709430404E-14));
#426=CARTESIAN_POINT('',(-13.986351966858,-0.2776061296463,2.8421709430404E-14));
#427=CARTESIAN_POINT('',(-13.986351966858,-0.2776061296463,2.8421709430404E-14));
#428=CARTESIAN_POINT('',(-13.928628921509,-0.19145250320435,2.8421709430404E-14));
#429=CARTESIAN_POINT('',(-13.928628921509,-0.19145250320435,2.8421709430404E-14));
#430=CARTESIAN_POINT('',(-13.899767398834,-0.043076813220979,2.8421709430404E-14));
#431=CARTESIAN_POINT('',(-13.899767398834,-0.043076813220979,2.8421709430404E-14));
#432=CARTESIAN_POINT('',(-13.899767398834,0.038290500640868,2.8421709430404E-14));
#433=CARTESIAN_POINT('',(-13.899767398834,0.038290500640868,2.8421709430404E-14));
#434=CARTESIAN_POINT('',(-13.928628921509,0.18666619062424,2.8421709430404E-14));
#435=CARTESIAN_POINT('',(-13.928628921509,0.18666619062424,2.8421709430404E-14));
#436=CARTESIAN_POINT('',(-13.986351966858,0.27281981706619,2.8421709430404E-14));
#437=CARTESIAN_POINT('',(-13.986351966858,0.27281981706619,2.8421709430404E-14));
#438=CARTESIAN_POINT('',(-14.079349994659,0.30632400512695,2.8421709430404E-14));
#439=CARTESIAN_POINT('',(-14.079349994659,0.30632400512695,2.8421709430404E-14));
#440=CARTESIAN_POINT('',(-14.13386631012,0.30632400512695,2.8421709430404E-14));
#441=CARTESIAN_POINT('',(-13.67428445816,-0.24888825416565,2.8421709430404E-14));
#442=CARTESIAN_POINT('',(-13.715973138809,-0.2776061296463,2.8421709430404E-14));
#443=CARTESIAN_POINT('',(-13.715973138809,-0.2776061296463,2.8421709430404E-14));
#444=CARTESIAN_POINT('',(-13.67428445816,-0.30632400512695,2.8421709430404E-14));
#445=CARTESIAN_POINT('',(-13.67428445816,-0.30632400512695,2.8421709430404E-14));
#446=CARTESIAN_POINT('',(-13.635802507401,-0.2776061296463,2.8421709430404E-14));
#447=CARTESIAN_POINT('',(-13.635802507401,-0.2776061296463,2.8421709430404E-14));
#448=CARTESIAN_POINT('',(-13.67428445816,-0.24888825416565,2.8421709430404E-14));
#449=CARTESIAN_POINT('',(-13.275632381439,0.30632400512695,2.8421709430404E-14));
#450=CARTESIAN_POINT('',(-13.368630409241,0.27281981706619,2.8421709430404E-14));
#451=CARTESIAN_POINT('',(-13.368630409241,0.27281981706619,2.8421709430404E-14));
#452=CARTESIAN_POINT('',(-13.42635345459,0.18666619062424,2.8421709430404E-14));
#453=CARTESIAN_POINT('',(-13.42635345459,0.18666619062424,2.8421709430404E-14));
#454=CARTESIAN_POINT('',(-13.452008008957,0.038290500640868,2.8421709430404E-14));
#455=CARTESIAN_POINT('',(-13.452008008957,0.038290500640868,2.8421709430404E-14));
#456=CARTESIAN_POINT('',(-13.452008008957,-0.043076813220979,2.8421709430404E-14));
#457=CARTESIAN_POINT('',(-13.452008008957,-0.043076813220979,2.8421709430404E-14));
#458=CARTESIAN_POINT('',(-13.42635345459,-0.19145250320435,2.8421709430404E-14));
#459=CARTESIAN_POINT('',(-13.42635345459,-0.19145250320435,2.8421709430404E-14));
#460=CARTESIAN_POINT('',(-13.368630409241,-0.2776061296463,2.8421709430404E-14));
#461=CARTESIAN_POINT('',(-13.368630409241,-0.2776061296463,2.8421709430404E-14));
#462=CARTESIAN_POINT('',(-13.275632381439,-0.30632400512695,2.8421709430404E-14));
#463=CARTESIAN_POINT('',(-13.275632381439,-0.30632400512695,2.8421709430404E-14));
#464=CARTESIAN_POINT('',(-13.221116304398,-0.30632400512695,2.8421709430404E-14));
#465=CARTESIAN_POINT('',(-13.221116304398,-0.30632400512695,2.8421709430404E-14));
#466=CARTESIAN_POINT('',(-13.128118276596,-0.2776061296463,2.8421709430404E-14));
#467=CARTESIAN_POINT('',(-13.128118276596,-0.2776061296463,2.8421709430404E-14));
#468=CARTESIAN_POINT('',(-13.070395231247,-0.19145250320435,2.8421709430404E-14));
#469=CARTESIAN_POINT('',(-13.070395231247,-0.19145250320435,2.8421709430404E-14));
#470=CARTESIAN_POINT('',(-13.041533946991,-0.043076813220979,2.8421709430404E-14));
#471=CARTESIAN_POINT('',(-13.041533946991,-0.043076813220979,2.8421709430404E-14));
#472=CARTESIAN_POINT('',(-13.041533946991,0.038290500640868,2.8421709430404E-14));
#473=CARTESIAN_POINT('',(-13.041533946991,0.038290500640868,2.8421709430404E-14));
#474=CARTESIAN_POINT('',(-13.070395231247,0.18666619062424,2.8421709430404E-14));
#475=CARTESIAN_POINT('',(-13.070395231247,0.18666619062424,2.8421709430404E-14));
#476=CARTESIAN_POINT('',(-13.128118276596,0.27281981706619,2.8421709430404E-14));
#477=CARTESIAN_POINT('',(-13.128118276596,0.27281981706619,2.8421709430404E-14));
#478=CARTESIAN_POINT('',(-13.221116304398,0.30632400512695,2.8421709430404E-14));
#479=CARTESIAN_POINT('',(-13.221116304398,0.30632400512695,2.8421709430404E-14));
#480=CARTESIAN_POINT('',(-13.275632381439,0.30632400512695,2.8421709430404E-14));
#481=CARTESIAN_POINT('',(-12.68136382103,0.30632400512695,2.8421709430404E-14));
#482=CARTESIAN_POINT('',(-12.774361848831,0.27281981706619,2.8421709430404E-14));
#483=CARTESIAN_POINT('',(-12.774361848831,0.27281981706619,2.8421709430404E-14));
#484=CARTESIAN_POINT('',(-12.83208489418,0.18666619062424,2.8421709430404E-14));
#485=CARTESIAN_POINT('',(-12.83208489418,0.18666619062424,2.8421709430404E-14));
#486=CARTESIAN_POINT('',(-12.857739448547,0.038290500640868,2.8421709430404E-14));
#487=CARTESIAN_POINT('',(-12.857739448547,0.038290500640868,2.8421709430404E-14));
#488=CARTESIAN_POINT('',(-12.857739448547,-0.043076813220979,2.8421709430404E-14));
#489=CARTESIAN_POINT('',(-12.857739448547,-0.043076813220979,2.8421709430404E-14));
#490=CARTESIAN_POINT('',(-12.83208489418,-0.19145250320435,2.8421709430404E-14));
#491=CARTESIAN_POINT('',(-12.83208489418,-0.19145250320435,2.8421709430404E-14));
#492=CARTESIAN_POINT('',(-12.774361848831,-0.2776061296463,2.8421709430404E-14));
#493=CARTESIAN_POINT('',(-12.774361848831,-0.2776061296463,2.8421709430404E-14));
#494=CARTESIAN_POINT('',(-12.68136382103,-0.30632400512695,2.8421709430404E-14));
#495=CARTESIAN_POINT('',(-12.68136382103,-0.30632400512695,2.8421709430404E-14));
#496=CARTESIAN_POINT('',(-12.626847743988,-0.30632400512695,2.8421709430404E-14));
#497=CARTESIAN_POINT('',(-12.626847743988,-0.30632400512695,2.8421709430404E-14));
#498=CARTESIAN_POINT('',(-12.533849716187,-0.2776061296463,2.8421709430404E-14));
#499=CARTESIAN_POINT('',(-12.533849716187,-0.2776061296463,2.8421709430404E-14));
#500=CARTESIAN_POINT('',(-12.476126670837,-0.19145250320435,2.8421709430404E-14));
#501=CARTESIAN_POINT('',(-12.476126670837,-0.19145250320435,2.8421709430404E-14));
#502=CARTESIAN_POINT('',(-12.447265148163,-0.043076813220979,2.8421709430404E-14));
#503=CARTESIAN_POINT('',(-12.447265148163,-0.043076813220979,2.8421709430404E-14));
#504=CARTESIAN_POINT('',(-12.447265148163,0.038290500640868,2.8421709430404E-14));
#505=CARTESIAN_POINT('',(-12.447265148163,0.038290500640868,2.8421709430404E-14));
#506=CARTESIAN_POINT('',(-12.476126670837,0.18666619062424,2.8421709430404E-14));
#507=CARTESIAN_POINT('',(-12.476126670837,0.18666619062424,2.8421709430404E-14));
#508=CARTESIAN_POINT('',(-12.533849716187,0.27281981706619,2.8421709430404E-14));
#509=CARTESIAN_POINT('',(-12.533849716187,0.27281981706619,2.8421709430404E-14));
#510=CARTESIAN_POINT('',(-12.626847743988,0.30632400512695,2.8421709430404E-14));
#511=CARTESIAN_POINT('',(-12.626847743988,0.30632400512695,2.8421709430404E-14));
#512=CARTESIAN_POINT('',(-12.68136382103,0.30632400512695,2.8421709430404E-14));
#513=CARTESIAN_POINT('',(-13.511729478836,9.3873519897461,2.8421709430404E-14));
#514=CARTESIAN_POINT('',(-13.675888061523,10.,2.8421709430404E-14));
#515=CARTESIAN_POINT('',(-13.840046644211,9.3873519897461,2.8421709430404E-14));
#516=CARTESIAN_POINT('',(-13.840046644211,-9.3873519897461,2.8421709430404E-14));
#517=CARTESIAN_POINT('',(-13.675888061523,-10.,2.8421709430404E-14));
#518=CARTESIAN_POINT('',(-13.511729478836,-9.3873519897461,2.8421709430404E-14));
#519=CARTESIAN_POINT('',(-10.,-13.675888061523,0.61264801025393));
#520=CARTESIAN_POINT('',(-10.,-13.675888061523,34.387351989746));
#521=CARTESIAN_POINT('',(-10.,-13.675888061523,35.612648010254));
#522=CARTESIAN_POINT('',(-10.,-13.675888061523,69.387351989746));
#523=CARTESIAN_POINT('',(-10.,-10.317499995232,2.1316282072803E-14));
#524=CARTESIAN_POINT('',(-10.,-14.288536071777,2.1316282072803E-14));
#525=CARTESIAN_POINT('',(-10.,-10.317499995232,70.));
#526=CARTESIAN_POINT('',(-10.,-14.288536071777,70.));
#527=CARTESIAN_POINT('',(-10.,-14.904510498047,34.693675994873));
#528=CARTESIAN_POINT('',(-10.,-14.494036197662,34.693675994873));
#529=CARTESIAN_POINT('',(-10.,-14.494036197662,34.693675994873));
#530=CARTESIAN_POINT('',(-10.,-14.78585767746,35.306324005127));
#531=CARTESIAN_POINT('',(-10.,-14.13386631012,34.693675994873));
#532=CARTESIAN_POINT('',(-10.,-14.226864337921,34.727180182934));
#533=CARTESIAN_POINT('',(-10.,-14.226864337921,34.727180182934));
#534=CARTESIAN_POINT('',(-10.,-14.284586906433,34.813333809376));
#535=CARTESIAN_POINT('',(-10.,-14.284586906433,34.813333809376));
#536=CARTESIAN_POINT('',(-10.,-14.310241699219,34.961709499359));
#537=CARTESIAN_POINT('',(-10.,-14.310241699219,34.961709499359));
#538=CARTESIAN_POINT('',(-10.,-14.310241699219,35.043076813221));
#539=CARTESIAN_POINT('',(-10.,-14.310241699219,35.043076813221));
#540=CARTESIAN_POINT('',(-10.,-14.284586906433,35.191452503204));
#541=CARTESIAN_POINT('',(-10.,-14.284586906433,35.191452503204));
#542=CARTESIAN_POINT('',(-10.,-14.226864337921,35.277606129646));
#543=CARTESIAN_POINT('',(-10.,-14.226864337921,35.277606129646));
#544=CARTESIAN_POINT('',(-10.,-14.13386631012,35.306324005127));
#545=CARTESIAN_POINT('',(-10.,-14.13386631012,35.306324005127));
#546=CARTESIAN_POINT('',(-10.,-14.079349994659,35.306324005127));
#547=CARTESIAN_POINT('',(-10.,-14.079349994659,35.306324005127));
#548=CARTESIAN_POINT('',(-10.,-13.986351966858,35.277606129646));
#549=CARTESIAN_POINT('',(-10.,-13.986351966858,35.277606129646));
#550=CARTESIAN_POINT('',(-10.,-13.928628921509,35.191452503204));
#551=CARTESIAN_POINT('',(-10.,-13.928628921509,35.191452503204));
#552=CARTESIAN_POINT('',(-10.,-13.899767398834,35.043076813221));
#553=CARTESIAN_POINT('',(-10.,-13.899767398834,35.043076813221));
#554=CARTESIAN_POINT('',(-10.,-13.899767398834,34.961709499359));
#555=CARTESIAN_POINT('',(-10.,-13.899767398834,34.961709499359));
#556=CARTESIAN_POINT('',(-10.,-13.928628921509,34.813333809376));
#557=CARTESIAN_POINT('',(-10.,-13.928628921509,34.813333809376));
#558=CARTESIAN_POINT('',(-10.,-13.986351966858,34.727180182934));
#559=CARTESIAN_POINT('',(-10.,-13.986351966858,34.727180182934));
#560=CARTESIAN_POINT('',(-10.,-14.079349994659,34.693675994873));
#561=CARTESIAN_POINT('',(-10.,-14.079349994659,34.693675994873));
#562=CARTESIAN_POINT('',(-10.,-14.13386631012,34.693675994873));
#563=CARTESIAN_POINT('',(-10.,-13.67428445816,35.248888254166));
#564=CARTESIAN_POINT('',(-10.,-13.715973138809,35.277606129646));
#565=CARTESIAN_POINT('',(-10.,-13.715973138809,35.277606129646));
#566=CARTESIAN_POINT('',(-10.,-13.67428445816,35.306324005127));
#567=CARTESIAN_POINT('',(-10.,-13.67428445816,35.306324005127));
#568=CARTESIAN_POINT('',(-10.,-13.635802507401,35.277606129646));
#569=CARTESIAN_POINT('',(-10.,-13.635802507401,35.277606129646));
#570=CARTESIAN_POINT('',(-10.,-13.67428445816,35.248888254166));
#571=CARTESIAN_POINT('',(-10.,-13.275632381439,34.693675994873));
#572=CARTESIAN_POINT('',(-10.,-13.368630409241,34.727180182934));
#573=CARTESIAN_POINT('',(-10.,-13.368630409241,34.727180182934));
#574=CARTESIAN_POINT('',(-10.,-13.42635345459,34.813333809376));
#575=CARTESIAN_POINT('',(-10.,-13.42635345459,34.813333809376));
#576=CARTESIAN_POINT('',(-10.,-13.452008008957,34.961709499359));
#577=CARTESIAN_POINT('',(-10.,-13.452008008957,34.961709499359));
#578=CARTESIAN_POINT('',(-10.,-13.452008008957,35.043076813221));
#579=CARTESIAN_POINT('',(-10.,-13.452008008957,35.043076813221));
#580=CARTESIAN_POINT('',(-10.,-13.42635345459,35.191452503204));
#581=CARTESIAN_POINT('',(-10.,-13.42635345459,35.191452503204));
#582=CARTESIAN_POINT('',(-10.,-13.368630409241,35.277606129646));
#583=CARTESIAN_POINT('',(-10.,-13.368630409241,35.277606129646));
#584=CARTESIAN_POINT('',(-10.,-13.275632381439,35.306324005127));
#585=CARTESIAN_POINT('',(-10.,-13.275632381439,35.306324005127));
#586=CARTESIAN_POINT('',(-10.,-13.221116304398,35.306324005127));
#587=CARTESIAN_POINT('',(-10.,-13.221116304398,35.306324005127));
#588=CARTESIAN_POINT('',(-10.,-13.128118276596,35.277606129646));
#589=CARTESIAN_POINT('',(-10.,-13.128118276596,35.277606129646));
#590=CARTESIAN_POINT('',(-10.,-13.070395231247,35.191452503204));
#591=CARTESIAN_POINT('',(-10.,-13.070395231247,35.191452503204));
#592=CARTESIAN_POINT('',(-10.,-13.041533946991,35.043076813221));
#593=CARTESIAN_POINT('',(-10.,-13.041533946991,35.043076813221));
#594=CARTESIAN_POINT('',(-10.,-13.041533946991,34.961709499359));
#595=CARTESIAN_POINT('',(-10.,-13.041533946991,34.961709499359));
#596=CARTESIAN_POINT('',(-10.,-13.070395231247,34.813333809376));
#597=CARTESIAN_POINT('',(-10.,-13.070395231247,34.813333809376));
#598=CARTESIAN_POINT('',(-10.,-13.128118276596,34.727180182934));
#599=CARTESIAN_POINT('',(-10.,-13.128118276596,34.727180182934));
#600=CARTESIAN_POINT('',(-10.,-13.221116304398,34.693675994873));
#601=CARTESIAN_POINT('',(-10.,-13.221116304398,34.693675994873));
#602=CARTESIAN_POINT('',(-10.,-13.275632381439,34.693675994873));
#603=CARTESIAN_POINT('',(-10.,-12.68136382103,34.693675994873));
#604=CARTESIAN_POINT('',(-10.,-12.774361848831,34.727180182934));
#605=CARTESIAN_POINT('',(-10.,-12.774361848831,34.727180182934));
#606=CARTESIAN_POINT('',(-10.,-12.83208489418,34.813333809376));
#607=CARTESIAN_POINT('',(-10.,-12.83208489418,34.813333809376));
#608=CARTESIAN_POINT('',(-10.,-12.857739448547,34.961709499359));
#609=CARTESIAN_POINT('',(-10.,-12.857739448547,34.961709499359));
#610=CARTESIAN_POINT('',(-10.,-12.857739448547,35.043076813221));
#611=CARTESIAN_POINT('',(-10.,-12.857739448547,35.043076813221));
#612=CARTESIAN_POINT('',(-10.,-12.83208489418,35.191452503204));
#613=CARTESIAN_POINT('',(-10.,-12.83208489418,35.191452503204));
#614=CARTESIAN_POINT('',(-10.,-12.774361848831,35.277606129646));
#615=CARTESIAN_POINT('',(-10.,-12.774361848831,35.277606129646));
#616=CARTESIAN_POINT('',(-10.,-12.68136382103,35.306324005127));
#617=CARTESIAN_POINT('',(-10.,-12.68136382103,35.306324005127));
#618=CARTESIAN_POINT('',(-10.,-12.626847743988,35.306324005127));
#619=CARTESIAN_POINT('',(-10.,-12.626847743988,35.306324005127));
#620=CARTESIAN_POINT('',(-10.,-12.533849716187,35.277606129646));
#621=CARTESIAN_POINT('',(-10.,-12.533849716187,35.277606129646));
#622=CARTESIAN_POINT('',(-10.,-12.476126670837,35.191452503204));
#623=CARTESIAN_POINT('',(-10.,-12.476126670837,35.191452503204));
#624=CARTESIAN_POINT('',(-10.,-12.447265148163,35.043076813221));
#625=CARTESIAN_POINT('',(-10.,-12.447265148163,35.043076813221));
#626=CARTESIAN_POINT('',(-10.,-12.447265148163,34.961709499359));
#627=CARTESIAN_POINT('',(-10.,-12.447265148163,34.961709499359));
#628=CARTESIAN_POINT('',(-10.,-12.476126670837,34.813333809376));
#629=CARTESIAN_POINT('',(-10.,-12.476126670837,34.813333809376));
#630=CARTESIAN_POINT('',(-10.,-12.533849716187,34.727180182934));
#631=CARTESIAN_POINT('',(-10.,-12.533849716187,34.727180182934));
#632=CARTESIAN_POINT('',(-10.,-12.626847743988,34.693675994873));
#633=CARTESIAN_POINT('',(-10.,-12.626847743988,34.693675994873));
#634=CARTESIAN_POINT('',(-10.,-12.68136382103,34.693675994873));
#635=CARTESIAN_POINT('',(-10.,-13.840046644211,0.61264801025393));
#636=CARTESIAN_POINT('',(-10.,-13.675888061523,2.1316282072803E-14));
#637=CARTESIAN_POINT('',(-10.,-13.511729478836,0.61264801025393));
#638=CARTESIAN_POINT('',(-10.,-13.511729478836,69.387351989746));
#639=CARTESIAN_POINT('',(-10.,-13.675888061523,70.));
#640=CARTESIAN_POINT('',(-10.,-13.840046644211,69.387351989746));
#641=POLYLINE('Linear',(#231,#232));
#642=POLYLINE('Linear',(#233,#234));
#643=POLYLINE('Linear',(#235,#236));
#644=POLYLINE('Linear',(#237,#238));
#645=POLYLINE('Linear',(#239,#240,#241,#242,#243,#244,#245,#246,#247,#248,#249,
#250,#251,#252,#253,#254,#255,#256,#257,#258,#259,
#260,#261,#262,#263,#264));
#646=POLYLINE('Linear',(#265,#266,#267,#268,#269,#270,#271,#272,#273,#274,#275,
#276,#277,#278,#279,#280,#281,#282,#283,#284,#285,
#286,#287,#288,#289,#290,#291,#292,#293,#294,#295,
#296));
#647=POLYLINE('Linear',(#297,#298,#299,#300,#301,#302,#303,#304));
#648=POLYLINE('Linear',(#305,#306,#307,#308,#309,#310,#311,#312,#313,#314,#315,
#316,#317,#318,#319,#320,#321,#322,#323,#324,#325,
#326,#327,#328,#329,#330,#331,#332,#333,#334,#335,
#336));
#649=POLYLINE('Linear',(#337,#338,#339,#340,#341,#342,#343,#344,#345,#346,#347,
#348,#349,#350,#351,#352,#353,#354,#355,#356,#357,
#358,#359,#360,#361,#362,#363,#364,#365,#366,#367,
#368));
#650=POLYLINE('Linear',(#375,#376));
#651=POLYLINE('Linear',(#377,#378));
#652=POLYLINE('Linear',(#379,#380));
#653=POLYLINE('Linear',(#381,#382));
#654=POLYLINE('Linear',(#383,#384,#385,#386,#387,#388,#389,#390,#391,#392,#393,
#394,#395,#396,#397,#398,#399,#400,#401,#402,#403,
#404,#405,#406,#407,#408));
#655=POLYLINE('Linear',(#409,#410,#411,#412,#413,#414,#415,#416,#417,#418,#419,
#420,#421,#422,#423,#424,#425,#426,#427,#428,#429,
#430,#431,#432,#433,#434,#435,#436,#437,#438,#439,
#440));
#656=POLYLINE('Linear',(#441,#442,#443,#444,#445,#446,#447,#448));
#657=POLYLINE('Linear',(#449,#450,#451,#452,#453,#454,#455,#456,#457,#458,#459,
#460,#461,#462,#463,#464,#465,#466,#467,#468,#469,
#470,#471,#472,#473,#474,#475,#476,#477,#478,#479,
#480));
#658=POLYLINE('Linear',(#481,#482,#483,#484,#485,#486,#487,#488,#489,#490,#491,
#492,#493,#494,#495,#496,#497,#498,#499,#500,#501,
#502,#503,#504,#505,#506,#507,#508,#509,#510,#511,
#512));
#659=POLYLINE('Linear',(#519,#520));
#660=POLYLINE('Linear',(#521,#522));
#661=POLYLINE('Linear',(#523,#524));
#662=POLYLINE('Linear',(#525,#526));
#663=POLYLINE('Linear',(#527,#528,#529,#530));
#664=POLYLINE('Linear',(#531,#532,#533,#534,#535,#536,#537,#538,#539,#540,#541,
#542,#543,#544,#545,#546,#547,#548,#549,#550,#551,
#552,#553,#554,#555,#556,#557,#558,#559,#560,#561,
#562));
#665=POLYLINE('Linear',(#563,#564,#565,#566,#567,#568,#569,#570));
#666=POLYLINE('Linear',(#571,#572,#573,#574,#575,#576,#577,#578,#579,#580,#581,
#582,#583,#584,#585,#586,#587,#588,#589,#590,#591,
#592,#593,#594,#595,#596,#597,#598,#599,#600,#601,
#602));
#667=POLYLINE('Linear',(#603,#604,#605,#606,#607,#608,#609,#610,#611,#612,#613,
#614,#615,#616,#617,#618,#619,#620,#621,#622,#623,
#624,#625,#626,#627,#628,#629,#630,#631,#632,#633,
#634));
#668=POLYLINE('Linear',(#369,#370,#371,#369));
#669=POLYLINE('Linear',(#372,#373,#374,#372));
#670=POLYLINE('Linear',(#513,#514,#515,#513));
#671=POLYLINE('Linear',(#516,#517,#518,#516));
#672=POLYLINE('Linear',(#635,#636,#637,#635));
#673=POLYLINE('Linear',(#638,#639,#640,#638));
#674=GEOMETRIC_CURVE_SET('Linear',(#641,#642,#643,#644,#645,#646,#647,#648,#649,#668,#669));
#675=GEOMETRIC_CURVE_SET('Linear',(#650,#651,#652,#653,#654,#655,#656,#657,#658,#670,#671));
#676=GEOMETRIC_CURVE_SET('Linear',(#659,#660,#661,#662,#663,#664,#665,#666,#667,#672,#673));
#677=COLOUR_RGB('',0.,0.,1.);
#678=DRAUGHTING_PRE_DEFINED_CURVE_FONT('continuous');
#679=CURVE_STYLE('',#678,POSITIVE_LENGTH_MEASURE(1.),#677);
#680=PRESENTATION_STYLE_ASSIGNMENT((#679));
#681=COLOUR_RGB('',0.,0.,1.);
#682=DRAUGHTING_PRE_DEFINED_CURVE_FONT('continuous');
#683=CURVE_STYLE('',#682,POSITIVE_LENGTH_MEASURE(1.),#681);
#684=PRESENTATION_STYLE_ASSIGNMENT((#683));
#685=COLOUR_RGB('',0.,0.,1.);
#686=DRAUGHTING_PRE_DEFINED_CURVE_FONT('continuous');
#687=CURVE_STYLE('',#686,POSITIVE_LENGTH_MEASURE(1.),#685);
#688=PRESENTATION_STYLE_ASSIGNMENT((#687));
#689=ANNOTATION_OCCURRENCE('Linear',(#680),#674);
#690=ANNOTATION_OCCURRENCE('Linear',(#684),#675);
#691=ANNOTATION_OCCURRENCE('Linear',(#688),#676);
#692=COLOUR();
#693=FILL_AREA_STYLE_COLOUR('NULL',#692);
#694=FILL_AREA_STYLE('NULL',(#693));
#695=PRESENTATION_STYLE_ASSIGNMENT((#694));
#696=COLOUR();
#697=FILL_AREA_STYLE_COLOUR('NULL',#696);
#698=FILL_AREA_STYLE('NULL',(#697));
#699=PRESENTATION_STYLE_ASSIGNMENT((#698));
#700=COLOUR();
#701=FILL_AREA_STYLE_COLOUR('NULL',#700);
#702=FILL_AREA_STYLE('NULL',(#701));
#703=PRESENTATION_STYLE_ASSIGNMENT((#702));
#704=CARTESIAN_POINT('',(8.8817841970013E-16,-10.,2.8421709430404E-14));
#705=DIRECTION('',(0.,0.,1.));
#706=DIRECTION('',(1.,0.,0.));
#707=AXIS2_PLACEMENT_3D('Linear',#704,#705,#706);
#708=CARTESIAN_POINT('',(-10.,-8.8817841970013E-16,2.8421709430404E-14));
#709=DIRECTION('',(0.,0.,1.));
#710=DIRECTION('',(1.,0.,0.));
#711=AXIS2_PLACEMENT_3D('Linear',#708,#709,#710);
#712=CARTESIAN_POINT('',(-10.,-10.,35.));
#713=DIRECTION('',(1.,0.,6.1232339957368E-17));
#714=DIRECTION('',(3.7493994566546E-33,1.,-6.1232339957368E-17));
#715=AXIS2_PLACEMENT_3D('Linear',#712,#713,#714);
#716=PLANE('',#707);
#717=PLANE('',#711);
#718=PLANE('',#715);
#719=ANNOTATION_PLANE('PMI PLANE',(#695),#716,(#689));
#720=ANNOTATION_PLANE('PMI PLANE',(#699),#717,(#690));
#721=ANNOTATION_PLANE('PMI PLANE',(#703),#718,(#691));
#722=CARTESIAN_POINT('',(0.,0.,0.));
#723=DIRECTION('',(0.,0.,1.));
#724=DIRECTION('',(1.,0.,0.));
#725=AXIS2_PLACEMENT_3D('',#722,#723,#724);
#726=REPRESENTATION_MAP(#725,#229);
#727=MAPPED_ITEM('',#726,#725);
#728=DRAUGHTING_MODEL('',(#719,#727,#720,#721),#5);
#729=SHAPE_ASPECT('','',#12,.T.);
#730=SHAPE_ASPECT('','',#12,.T.);
#731=SHAPE_ASPECT('','',#12,.T.);
#732=GEOMETRIC_ITEM_SPECIFIC_USAGE('','PMI',#729,#229,#0);
#733=GEOMETRIC_ITEM_SPECIFIC_USAGE('','PMI',#730,#229,#0);
#734=GEOMETRIC_ITEM_SPECIFIC_USAGE('','PMI',#731,#229,#0);
#735=DRAUGHTING_MODEL_ITEM_ASSOCIATION('','',#729,#728,#689);
#736=DRAUGHTING_MODEL_ITEM_ASSOCIATION('','',#730,#728,#690);
#737=DRAUGHTING_MODEL_ITEM_ASSOCIATION('','',#731,#728,#691);
#738=CARTESIAN_POINT('',(2.6525801330681E-16,-3.5527136788005E-15,70.));
#739=DIRECTION('',(-2.2790668875657E-16,1.,-0.));
#740=DIRECTION('',(0.,0.,1.));
#741=AXIS2_PLACEMENT_3D('',#738,#740,#739);
#742=CIRCLE('',#741,6.);
#743=TRIMMED_CURVE('',#742,(PARAMETER_VALUE(0.)),(PARAMETER_VALUE(6.2831853071796)),.T.,.PARAMETER.);
#744=COLOUR_RGB('',0.,0.,0.000000);
#745=DRAUGHTING_PRE_DEFINED_CURVE_FONT('continuous');
#746=CURVE_STYLE('None', #745, 'POSITIVE_LENGTH_MEASURE( 0 )', #744);
#747=PRESENTATION_STYLE_ASSIGNMENT((#746));
#748=STYLED_ITEM('None', (#747), #743);
#749=CARTESIAN_POINT('',(-10.,-10.,2.8421709430404E-14));
#750=DIRECTION('',(1.,0.,0.));
#751=VECTOR('',#750,20.);
#752=LINE('',#749,#751);
#753=TRIMMED_CURVE('Cv3073',#752,(PARAMETER_VALUE(0.)),(PARAMETER_VALUE(1.0)),.T.,.PARAMETER.);
#754=COLOUR_RGB('',0.529412,0.627451,0.509804);
#755=DRAUGHTING_PRE_DEFINED_CURVE_FONT('continuous');
#756=CURVE_STYLE('None', #755, 'POSITIVE_LENGTH_MEASURE( 0 )', #754);
#757=PRESENTATION_STYLE_ASSIGNMENT((#756));
#758=STYLED_ITEM('None', (#757), #753);
#759=CARTESIAN_POINT('',(10.,-10.,2.8421709430404E-14));
#760=DIRECTION('',(0.,1.,0.));
#761=VECTOR('',#760,20.);
#762=LINE('',#759,#761);
#763=TRIMMED_CURVE('Cv3283',#762,(PARAMETER_VALUE(0.)),(PARAMETER_VALUE(1.0)),.T.,.PARAMETER.);
#764=STYLED_ITEM('None', (#757), #763);
#765=CARTESIAN_POINT('',(10.,10.,2.8421709430404E-14));
#766=DIRECTION('',(-1.,0.,0.));
#767=VECTOR('',#766,20.);
#768=LINE('',#765,#767);
#769=TRIMMED_CURVE('Cv3436',#768,(PARAMETER_VALUE(0.)),(PARAMETER_VALUE(1.0)),.T.,.PARAMETER.);
#770=STYLED_ITEM('None', (#757), #769);
#771=CARTESIAN_POINT('',(-10.,10.,2.8421709430404E-14));
#772=DIRECTION('',(0.,-1.,0.));
#773=VECTOR('',#772,20.);
#774=LINE('',#771,#773);
#775=TRIMMED_CURVE('Cv3171',#774,(PARAMETER_VALUE(0.)),(PARAMETER_VALUE(1.0)),.T.,.PARAMETER.);
#776=STYLED_ITEM('None', (#757), #775);
#777=CARTESIAN_POINT('',(-10.,-10.,2.8421709430404E-14));
#778=DIRECTION('',(0.,0.,1.));
#779=VECTOR('',#778,70.);
#780=LINE('',#777,#779);
#781=TRIMMED_CURVE('Cv3244',#780,(PARAMETER_VALUE(0.)),(PARAMETER_VALUE(1.0)),.T.,.PARAMETER.);
#782=STYLED_ITEM('None', (#757), #781);
#783=CARTESIAN_POINT('',(10.,-10.,2.8421709430404E-14));
#784=DIRECTION('',(0.,0.,1.));
#785=VECTOR('',#784,70.);
#786=LINE('',#783,#785);
#787=TRIMMED_CURVE('Cv3387',#786,(PARAMETER_VALUE(0.)),(PARAMETER_VALUE(1.0)),.T.,.PARAMETER.);
#788=STYLED_ITEM('None', (#757), #787);
#789=CARTESIAN_POINT('',(10.,10.,2.8421709430404E-14));
#790=DIRECTION('',(0.,0.,1.));
#791=VECTOR('',#790,70.);
#792=LINE('',#789,#791);
#793=TRIMMED_CURVE('Cv3424',#792,(PARAMETER_VALUE(0.)),(PARAMETER_VALUE(1.0)),.T.,.PARAMETER.);
#794=STYLED_ITEM('None', (#757), #793);
#795=CARTESIAN_POINT('',(-10.,10.,2.8421709430404E-14));
#796=DIRECTION('',(0.,0.,1.));
#797=VECTOR('',#796,70.);
#798=LINE('',#795,#797);
#799=TRIMMED_CURVE('Cv3249',#798,(PARAMETER_VALUE(0.)),(PARAMETER_VALUE(1.0)),.T.,.PARAMETER.);
#800=STYLED_ITEM('None', (#757), #799);
#801=CARTESIAN_POINT('',(-10.,-10.,70.));
#802=DIRECTION('',(1.,0.,0.));
#803=VECTOR('',#802,20.);
#804=LINE('',#801,#803);
#805=TRIMMED_CURVE('Cv3444',#804,(PARAMETER_VALUE(0.)),(PARAMETER_VALUE(1.0)),.T.,.PARAMETER.);
#806=STYLED_ITEM('None', (#757), #805);
#807=CARTESIAN_POINT('',(10.,-10.,70.));
#808=DIRECTION('',(0.,1.,0.));
#809=VECTOR('',#808,20.);
#810=LINE('',#807,#809);
#811=TRIMMED_CURVE('Cv3534',#810,(PARAMETER_VALUE(0.)),(PARAMETER_VALUE(1.0)),.T.,.PARAMETER.);
#812=STYLED_ITEM('None', (#757), #811);
#813=CARTESIAN_POINT('',(10.,10.,70.));
#814=DIRECTION('',(-1.,0.,0.));
#815=VECTOR('',#814,20.);
#816=LINE('',#813,#815);
#817=TRIMMED_CURVE('Cv3571',#816,(PARAMETER_VALUE(0.)),(PARAMETER_VALUE(1.0)),.T.,.PARAMETER.);
#818=STYLED_ITEM('None', (#757), #817);
#819=CARTESIAN_POINT('',(-10.,10.,70.));
#820=DIRECTION('',(0.,-1.,0.));
#821=VECTOR('',#820,20.);
#822=LINE('',#819,#821);
#823=TRIMMED_CURVE('Cv3406',#822,(PARAMETER_VALUE(0.)),(PARAMETER_VALUE(1.0)),.T.,.PARAMETER.);
#824=STYLED_ITEM('None', (#757), #823);
#825=GEOMETRIC_CURVE_SET('None',(#743,#753,#763,#769,#775,#781,#787,#793,#799,#805,#811,#817,#823));
#826=GEOMETRICALLY_BOUNDED_WIREFRAME_SHAPE_REPRESENTATION('None',(#825),#5);
#827=SHAPE_REPRESENTATION_RELATIONSHIP('None','None',#18,#826);
#828=PRESENTATION_LAYER_ASSIGNMENT('Layer0000','',(#228,#743,#753,#763,#769,#775,#781,#787,#793,#799,#805,#811,#817,#823));
#829=MECHANICAL_DESIGN_GEOMETRIC_PRESENTATION_REPRESENTATION('',(#219,#220,#221,#222,#223,#224,#225,#226,#227,#748,#758,#764,#770,#776,#782,#788,#794,#800,#806,#812,#818,#824),#5);
ENDSEC;
END-ISO-10303-21;
