ZWSOFT                                                                  S      1
,,,9HPOM21.igs,4HZW3D,3H1.0,32,38,8,308,15,,1.0,2,2HMM,7,1.4,           G      1
13H260116.222942,1.0000000000000E-02,1.0500000000000E+02,4HZW3D,        G      2
6HZWSOFT,6,0;                                                           G      3
     124       1       1       1       1       0       0       000010000D      1
     124       0       0       1       0       0       0       0       0D      2
     406       2       1       0       1       0       0       000000101D      3
     406       0       0       1       3       0       0       0       0D      4
     314       3       1       1       1       0       0       000010000D      5
     314       0       0       1       0       0       0       0       0D      6
     406       4       1       0       1       0       0       000010001D      7
     406       0      -5       1      15       0       0       0       0D      8
     128       5       1       0       1       0       0       000010000D      9
     128       0      -5       3       1       0       0       0       0D     10
     126       8       1       0       1       0       0       000010000D     11
     126       0      -5       5       0       0       0       0       0D     12
     126      13       1       0       1       0       0       000010000D     13
     126       0      -5       5       2       0       0       0       0D     14
     142      18       1       1       1       0       0       000010000D     15
     142       1       0       1       0       0       0       0       0D     16
     126      19       1       0       1       0       0       000010000D     17
     126       0      -5       7       0       0       0       0       0D     18
     126      26       1       0       1       0       0       000010000D     19
     126       0      -5       5       2       0       0       0       0D     20
     142      31       1       1       1       0       0       000010000D     21
     142       1       0       1       0       0       0       0       0D     22
     144      32       1       0       1       0       1       000000000D     23
     144       0      -5       1       0       0       0       0       0D     24
     406      33       1       0       1       0       0       000010001D     25
     406       0      -5       1      15       0       0       0       0D     26
     128      34       1       0       1       0       0       000010000D     27
     128       0      -5       3       1       0       0       0       0D     28
     126      37       1       0       1       0       0       000010000D     29
     126       0      -5       5       0       0       0       0       0D     30
     126      42       1       0       1       0       0       000010000D     31
     126       0      -5       5       2       0       0       0       0D     32
     142      47       1       1       1       0       0       000010000D     33
     142       1       0       1       0       0       0       0       0D     34
     144      48       1       0       1       0       1       000000000D     35
     144       0      -5       1       0       0       0       0       0D     36
     406      49       1       0       1       0       0       000010001D     37
     406       0      -5       1      15       0       0       0       0D     38
     128      50       1       0       1       0       0       000010000D     39
     128       0      -5      11       2       0       0       0       0D     40
     126      61       1       0       1       0       0       000010000D     41
     126       0      -5       2       1       0       0       0       0D     42
     126      63       1       0       1       0       0       000010000D     43
     126       0      -5       2       1       0       0       0       0D     44
     126      65       1       0       1       0       0       000010000D     45
     126       0      -5       2       1       0       0       0       0D     46
     126      67       1       0       1       0       0       000010000D     47
     126       0      -5       2       1       0       0       0       0D     48
     102      69       1       0       1       0       0       000010000D     49
     102       0      -5       1       0       0       0       0       0D     50
     126      70       1       0       1       0       0       000010000D     51
     126       0      -5       5       2       0       0       0       0D     52
     126      75       1       0       1       0       0       000010000D     53
     126       0      -5       2       1       0       0       0       0D     54
     126      77       1       0       1       0       0       000010000D     55
     126       0      -5       7       2       0       0       0       0D     56
     126      84       1       0       1       0       0       000010000D     57
     126       0      -5       2       1       0       0       0       0D     58
     102      86       1       0       1       0       0       000010000D     59
     102       0      -5       1       0       0       0       0       0D     60
     142      87       1       1       1       0       0       000010000D     61
     142       1       0       1       0       0       0       0       0D     62
     144      88       1       0       1       0       1       000000000D     63
     144       0      -5       1       0       0       0       0       0D     64
     406      89       1       0       1       0       0       000010001D     65
     406       0      -5       1      15       0       0       0       0D     66
     128      90       1       0       1       0       0       000010000D     67
     128       0      -5       9       2       0       0       0       0D     68
     126      99       1       0       1       0       0       000010000D     69
     126       0      -5       2       1       0       0       0       0D     70
     126     101       1       0       1       0       0       000010000D     71
     126       0      -5       2       1       0       0       0       0D     72
     126     103       1       0       1       0       0       000010000D     73
     126       0      -5       2       1       0       0       0       0D     74
     126     105       1       0       1       0       0       000010000D     75
     126       0      -5       2       1       0       0       0       0D     76
     102     107       1       0       1       0       0       000010000D     77
     102       0      -5       1       0       0       0       0       0D     78
     126     108       1       0       1       0       0       000010000D     79
     126       0      -5       5       2       0       0       0       0D     80
     126     113       1       0       1       0       0       000010000D     81
     126       0      -5       2       1       0       0       0       0D     82
     126     115       1       0       1       0       0       000010000D     83
     126       0      -5       5       2       0       0       0       0D     84
     126     120       1       0       1       0       0       000010000D     85
     126       0      -5       2       1       0       0       0       0D     86
     102     122       1       0       1       0       0       000010000D     87
     102       0      -5       1       0       0       0       0       0D     88
     142     123       1       1       1       0       0       000010000D     89
     142       1       0       1       0       0       0       0       0D     90
     144     124       1       0       1       0       1       000000000D     91
     144       0      -5       1       0       0       0       0       0D     92
     406     125       1       0       1       0       0       000010001D     93
     406       0      -5       1      15       0       0       0       0D     94
     128     126       1       0       1       0       0       000010000D     95
     128       0      -5      13       3       0       0       0       0D     96
     126     139       1       0       1       0       0       000010000D     97
     126       0      -5       2       1       0       0       0       0D     98
     126     141       1       0       1       0       0       000010000D     99
     126       0      -5       2       1       0       0       0       0D    100
     126     143       1       0       1       0       0       000010000D    101
     126       0      -5       2       1       0       0       0       0D    102
     126     145       1       0       1       0       0       000010000D    103
     126       0      -5       2       1       0       0       0       0D    104
     102     147       1       0       1       0       0       000010000D    105
     102       0      -5       1       0       0       0       0       0D    106
     126     148       1       0       1       0       0       000010000D    107
     126       0      -5      10       2       0       0       0       0D    108
     126     158       1       0       1       0       0       000010000D    109
     126       0      -5       3       1       0       0       0       0D    110
     126     161       1       0       1       0       0       000010000D    111
     126       0      -5      10       2       0       0       0       0D    112
     126     171       1       0       1       0       0       000010000D    113
     126       0      -5       3       1       0       0       0       0D    114
     102     174       1       0       1       0       0       000010000D    115
     102       0      -5       1       0       0       0       0       0D    116
     142     175       1       1       1       0       0       000010000D    117
     142       1       0       1       0       0       0       0       0D    118
     144     176       1       0       1       0       1       000000000D    119
     144       0      -5       1       0       0       0       0       0D    120
     406     177       1       0       1       0       0       000010001D    121
     406       0      -5       1      15       0       0       0       0D    122
     128     178       1       0       1       0       0       000010000D    123
     128       0      -5      13       3       0       0       0       0D    124
     126     191       1       0       1       0       0       000010000D    125
     126       0      -5       2       1       0       0       0       0D    126
     126     193       1       0       1       0       0       000010000D    127
     126       0      -5       2       1       0       0       0       0D    128
     126     195       1       0       1       0       0       000010000D    129
     126       0      -5       2       1       0       0       0       0D    130
     126     197       1       0       1       0       0       000010000D    131
     126       0      -5       2       1       0       0       0       0D    132
     102     199       1       0       1       0       0       000010000D    133
     102       0      -5       1       0       0       0       0       0D    134
     126     200       1       0       1       0       0       000010000D    135
     126       0      -5       3       1       0       0       0       0D    136
     126     203       1       0       1       0       0       000010000D    137
     126       0      -5      10       2       0       0       0       0D    138
     126     213       1       0       1       0       0       000010000D    139
     126       0      -5       3       1       0       0       0       0D    140
     126     216       1       0       1       0       0       000010000D    141
     126       0      -5      10       2       0       0       0       0D    142
     102     226       1       0       1       0       0       000010000D    143
     102       0      -5       1       0       0       0       0       0D    144
     142     227       1       1       1       0       0       000010000D    145
     142       1       0       1       0       0       0       0       0D    146
     144     228       1       0       1       0       1       000000000D    147
     144       0      -5       1       0       0       0       0       0D    148
     406     229       1       0       1       0       0       000010001D    149
     406       0      -5       1      15       0       0       0       0D    150
     128     230       1       0       1       0       0       000010000D    151
     128       0      -5       3       1       0       0       0       0D    152
     126     233       1       0       1       0       0       000010000D    153
     126       0      -5       5       0       0       0       0       0D    154
     126     238       1       0       1       0       0       000010000D    155
     126       0      -5       5       2       0       0       0       0D    156
     142     243       1       1       1       0       0       000010000D    157
     142       1       0       1       0       0       0       0       0D    158
     126     244       1       0       1       0       0       000010000D    159
     126       0      -5       7       0       0       0       0       0D    160
     126     251       1       0       1       0       0       000010000D    161
     126       0      -5       5       2       0       0       0       0D    162
     142     256       1       1       1       0       0       000010000D    163
     142       1       0       1       0       0       0       0       0D    164
     144     257       1       0       1       0       1       000000000D    165
     144       0      -5       1       0       0       0       0       0D    166
     406     258       1       0       1       0       0       000010001D    167
     406       0      -5       1      15       0       0       0       0D    168
     128     259       1       0       1       0       0       000010000D    169
     128       0      -5       9       2       0       0       0       0D    170
     126     268       1       0       1       0       0       000010000D    171
     126       0      -5       2       1       0       0       0       0D    172
     126     270       1       0       1       0       0       000010000D    173
     126       0      -5       2       1       0       0       0       0D    174
     126     272       1       0       1       0       0       000010000D    175
     126       0      -5       2       1       0       0       0       0D    176
     126     274       1       0       1       0       0       000010000D    177
     126       0      -5       2       1       0       0       0       0D    178
     102     276       1       0       1       0       0       000010000D    179
     102       0      -5       1       0       0       0       0       0D    180
     126     277       1       0       1       0       0       000010000D    181
     126       0      -5       5       2       0       0       0       0D    182
     126     282       1       0       1       0       0       000010000D    183
     126       0      -5       2       1       0       0       0       0D    184
     126     284       1       0       1       0       0       000010000D    185
     126       0      -5       5       2       0       0       0       0D    186
     126     289       1       0       1       0       0       000010000D    187
     126       0      -5       2       1       0       0       0       0D    188
     102     291       1       0       1       0       0       000010000D    189
     102       0      -5       1       0       0       0       0       0D    190
     142     292       1       1       1       0       0       000010000D    191
     142       1       0       1       0       0       0       0       0D    192
     144     293       1       0       1       0       1       000000000D    193
     144       0      -5       1       0       0       0       0       0D    194
     406     294       1       0       1       0       0       000010001D    195
     406       0      -5       1      15       0       0       0       0D    196
     128     295       1       0       1       0       0       000010000D    197
     128       0      -5       3       1       0       0       0       0D    198
     126     298       1       0       1       0       0       000010000D    199
     126       0      -5       5       0       0       0       0       0D    200
     126     303       1       0       1       0       0       000010000D    201
     126       0      -5       5       2       0       0       0       0D    202
     142     308       1       1       1       0       0       000010000D    203
     142       1       0       1       0       0       0       0       0D    204
     144     309       1       0       1       0       1       000000000D    205
     144       0      -5       1       0       0       0       0       0D    206
     406     310       1       1       1       0       0       000010001D    207
     406       0       0       1      15       0       0       0       0D    208
     406     311       1       1       1       0       0       000010001D    209
     406       2       1       1      15       0       0       0       0D    210
     124     312       1       1       1       0       0       000010000D    211
     124       0       0       1       0       0       0       0       0D    212
     100     313       1       1       1       0     211       000000000D    213
     100       2       1       1       0       0       0       0       0D    214
     314     314       1       1       1       0       0       000010000D    215
     314       0       0       1       0       0       0       0       0D    216
     406     315       1       1       1       0       0       000010001D    217
     406       2    -215       1      15       0       0       0       0D    218
     110     316       1       1       1       0       1       000000000D    219
     110       2    -215       1       0       0       0       0       0D    220
     406     317       1       1       1       0       0       000010001D    221
     406       2    -215       1      15       0       0       0       0D    222
     110     318       1       1       1       0       1       000000000D    223
     110       2    -215       1       0       0       0       0       0D    224
     406     319       1       1       1       0       0       000010001D    225
     406       2    -215       1      15       0       0       0       0D    226
     110     320       1       1       1       0       1       000000000D    227
     110       2    -215       1       0       0       0       0       0D    228
     406     321       1       1       1       0       0       000010001D    229
     406       2    -215       1      15       0       0       0       0D    230
     110     322       1       1       1       0       1       000000000D    231
     110       2    -215       1       0       0       0       0       0D    232
     406     323       1       1       1       0       0       000010001D    233
     406       2    -215       1      15       0       0       0       0D    234
     110     324       1       1       1       0       1       000000000D    235
     110       2    -215       1       0       0       0       0       0D    236
     406     325       1       1       1       0       0       000010001D    237
     406       2    -215       1      15       0       0       0       0D    238
     110     326       1       1       1       0       1       000000000D    239
     110       2    -215       1       0       0       0       0       0D    240
     406     327       1       1       1       0       0       000010001D    241
     406       2    -215       1      15       0       0       0       0D    242
     110     328       1       1       1       0       1       000000000D    243
     110       2    -215       1       0       0       0       0       0D    244
     406     329       1       1       1       0       0       000010001D    245
     406       2    -215       1      15       0       0       0       0D    246
     110     330       1       1       1       0       1       000000000D    247
     110       2    -215       1       0       0       0       0       0D    248
     406     331       1       1       1       0       0       000010001D    249
     406       2    -215       1      15       0       0       0       0D    250
     110     332       1       1       1       0       1       000000000D    251
     110       2    -215       1       0       0       0       0       0D    252
     406     333       1       1       1       0       0       000010001D    253
     406       2    -215       1      15       0       0       0       0D    254
     110     334       1       1       1       0       1       000000000D    255
     110       2    -215       1       0       0       0       0       0D    256
     406     335       1       1       1       0       0       000010001D    257
     406       2    -215       1      15       0       0       0       0D    258
     110     336       1       1       1       0       1       000000000D    259
     110       2    -215       1       0       0       0       0       0D    260
     406     337       1       1       1       0       0       000010001D    261
     406       2    -215       1      15       0       0       0       0D    262
     110     338       1       1       1       0       1       000000000D    263
     110       2    -215       1       0       0       0       0       0D    264
124,1.,0.,0.,0.,0.,1.,0.,0.,0.,0.,1.,0.;                               1P      1
406,2,0,9HLayer0000,0,0;                                               3P      2
314,74.509803921569,90.196078431373,96.078431372549;                   5P      3
406,1,2HF1;                                                            7P      4
128,1,1,1,1,0,0,1,0,0,0.,0.,1.,1.,0.,0.,1.,1.,1.,1.,1.,1.,             9P      5
-15.358983848622,-10.,20.,10.,-10.,20.,-15.358983848622,10.,20.,       9P      6
10.,10.,20.,0.20632486540519,1.,0.,1.,0,1,7;                           9P      7
126,8,2,1,1,0,0,0.,0.,0.,0.25,0.25,0.5,0.5,0.75,0.75,1.,1.,1.,        11P      8
1.,0.70710678118655,1.,0.70710678118655,1.,0.70710678118655,1.,       11P      9
0.70710678118655,1.,1.,0.5,0.,1.,1.,0.,0.60566243270259,1.,0.,        11P     10
0.21132486540519,1.,0.,0.21132486540519,0.5,0.,0.21132486540519,      11P     11
0.,0.,0.60566243270259,0.,0.,1.,0.,0.,1.,0.5,0.,0.,1.,0.,0.,1.;       11P     12
126,8,2,0,1,0,0,0.,0.,0.,0.25,0.25,0.5,0.5,0.75,0.75,1.,1.,1.,        13P     13
1.,0.70710678118655,1.,0.70710678118655,1.,0.70710678118655,1.,       13P     14
0.70710678118655,1.,10.,0.,20.,10.,10.,20.,0.,10.,20.,-10.,10.,       13P     15
20.,-10.,0.,20.,-10.,-10.,20.,0.,-10.,20.,10.,-10.,20.,10.,0.,        13P     16
20.,0.,1.,0.,0.,0.;                                                   13P     17
142,0,9,11,13,1;                                                      15P     18
126,8,2,1,1,0,0,0.,0.,0.,0.25,0.25,0.5,0.5,0.75,0.75,1.,1.,1.,        17P     19
1.,0.70710678118655,1.,0.70710678118655,1.,0.70710678118655,1.,       17P     20
0.70710678118655,1.,0.92113248654052,0.5,0.,0.92113248654052,         17P     21
0.1,0.,0.60566243270259,0.1,0.,0.29019237886467,0.1,0.,               17P     22
0.29019237886467,0.5,0.,0.29019237886467,0.9,0.,                      17P     23
0.60566243270259,0.9,0.,0.92113248654052,0.9,0.,                      17P     24
0.92113248654052,0.5,0.,0.,1.,0.,0.,1.;                               17P     25
126,8,2,0,1,0,0,0.,0.,0.,0.25,0.25,0.5,0.5,0.75,0.75,1.,1.,1.,        19P     26
1.,0.70710678118655,1.,0.70710678118655,1.,0.70710678118655,1.,       19P     27
0.70710678118655,1.,8.,0.,20.,8.,-8.,20.,0.,-8.,20.,-8.,-8.,20.,      19P     28
-8.,0.,20.,-8.,8.,20.,0.,8.,20.,8.,8.,20.,8.,0.,20.,0.,1.,0.,0.,      19P     29
0.;                                                                   19P     30
142,0,9,17,19,1;                                                      21P     31
144,9,1,1,15,21,0,1,7;                                                23P     32
406,1,2HF2;                                                           25P     33
128,1,1,1,1,0,0,1,0,0,0.,0.,1.,1.,0.,0.,1.,1.,1.,1.,1.,1.,            27P     34
-14.858983848622,9.5,0.,9.5,9.5,0.,-14.858983848622,-9.5,0.,9.5,      27P     35
-9.5,0.,0.21473714597366,1.,0.,1.,0,1,25;                             27P     36
126,8,2,1,1,0,0,0.,0.,0.,0.25,0.25,0.5,0.5,0.75,0.75,1.,1.,1.,        29P     37
1.,0.70710678118655,1.,0.70710678118655,1.,0.70710678118655,1.,       29P     38
0.70710678118655,1.,1.,0.5,0.,1.,1.,0.,0.6100001519342,1.,0.,         29P     39
0.2200003038684,1.,0.,0.2200003038684,0.5,0.,0.2200003038684,0.,      29P     40
0.,0.6100001519342,0.,0.,1.,0.,0.,1.,0.5,0.,0.,1.,0.,0.,1.;           29P     41
126,8,2,0,1,0,0,0.,0.,0.,0.25,0.25,0.5,0.5,0.75,0.75,1.,1.,1.,        31P     42
1.,0.70710678118655,1.,0.70710678118655,1.,0.70710678118655,1.,       31P     43
0.70710678118655,1.,9.5,0.,0.,9.5,-9.5,0.,0.,-9.5,0.,-9.5,-9.5,       31P     44
0.,-9.5,0.,0.,-9.5,9.5,0.,0.,9.5,0.,9.5,9.5,0.,9.5,0.,0.,0.,1.,       31P     45
0.,0.,0.;                                                             31P     46
142,0,27,29,31,1;                                                     33P     47
144,27,1,0,33,0,1,25;                                                 35P     48
406,1,2HF3;                                                           37P     49
128,1,8,1,2,0,1,0,0,0,0.,0.,0.2185865033149,0.2185865033149,0.,       39P     50
0.,0.,0.25,0.25,0.5,0.5,0.75,0.75,1.,1.,1.,1.,1.,                     39P     51
0.70710678118655,0.70710678118655,1.,1.,0.70710678118655,             39P     52
0.70710678118655,1.,1.,0.70710678118655,0.70710678118655,1.,1.,       39P     53
0.70710678118655,0.70710678118655,1.,1.,10.,0.,0.49999999999999,      39P     54
10.,0.,20.,10.,-10.,0.49999999999999,10.,-10.,20.,0.,-10.,            39P     55
0.49999999999999,0.,-10.,20.,-10.,-10.,0.49999999999999,-10.,         39P     56
-10.,20.,-10.,0.,0.49999999999999,-10.,0.,20.,-10.,10.,               39P     57
0.49999999999999,-10.,10.,20.,0.,10.,0.49999999999999,0.,10.,         39P     58
20.,10.,10.,0.49999999999999,10.,10.,20.,10.,0.,                      39P     59
0.49999999999999,10.,0.,20.,0.,0.2185865033149,0.,1.,0,1,37;          39P     60
126,1,1,1,0,1,0,0.,0.,1.,1.,1.,1.,0.2185865033149,0.,0.,              41P     61
0.2185865033149,1.,0.,0.,1.,0.,0.,1.;                                 41P     62
126,1,1,1,0,1,0,0.,0.,1.,1.,1.,1.,0.2185865033149,1.,0.,0.,1.,        43P     63
0.,0.,1.,0.,0.,1.;                                                    43P     64
126,1,1,1,0,1,0,0.,0.,1.,1.,1.,1.,0.,1.,0.,0.,0.,0.,0.,1.,0.,0.,      45P     65
1.;                                                                   45P     66
126,1,1,1,0,1,0,0.,0.,1.,1.,1.,1.,0.,0.,0.,0.2185865033149,0.,        47P     67
0.,0.,1.,0.,0.,1.;                                                    47P     68
102,4,41,43,45,47;                                                    49P     69
126,8,2,0,1,0,0,0.,0.,0.,0.25,0.25,0.5,0.5,0.75,0.75,1.,1.,1.,        51P     70
1.,0.70710678118655,1.,0.70710678118655,1.,0.70710678118655,1.,       51P     71
0.70710678118655,1.,10.,0.,20.,10.,-10.,20.,0.,-10.,20.,-10.,         51P     72
-10.,20.,-10.,0.,20.,-10.,10.,20.,0.,10.,20.,10.,10.,20.,10.,0.,      51P     73
20.,0.,1.,0.,0.,0.;                                                   51P     74
126,1,1,0,0,0,0,0.,0.,0.2185865033149,0.2185865033149,1.,1.,10.,      53P     75
0.,20.,10.,0.,0.49999999999999,0.,0.2185865033149,0.,0.,0.;           53P     76
126,8,2,0,1,0,0,0.,0.,0.,0.25,0.25,0.5,0.5,0.75,0.75,1.,1.,1.,        55P     77
1.,0.70710678118655,1.,0.70710678118655,1.,0.70710678118655,1.,       55P     78
0.70710678118655,1.,10.,0.,0.49999999999999,10.,10.,                  55P     79
0.49999999999999,0.,10.,0.49999999999999,-10.,10.,                    55P     80
0.49999999999999,-10.,0.,0.49999999999999,-10.,-10.,                  55P     81
0.49999999999999,0.,-10.,0.49999999999999,10.,-10.,                   55P     82
0.49999999999999,10.,0.,0.49999999999999,0.,1.,0.,0.,0.;              55P     83
126,1,1,0,0,0,0,0.,0.,0.2185865033149,0.2185865033149,1.,1.,10.,      57P     84
0.,0.49999999999999,10.,0.,20.,0.,0.2185865033149,0.,0.,0.;           57P     85
102,4,51,53,55,57;                                                    59P     86
142,0,39,49,59,1;                                                     61P     87
144,39,1,0,61,0,1,37;                                                 63P     88
406,1,2HF4;                                                           65P     89
128,1,8,1,2,0,1,0,0,0,0.,0.,0.31259253047477,0.31259253047477,        67P     90
0.,0.,0.,0.25,0.25,0.5,0.5,0.75,0.75,1.,1.,1.,1.,1.,                  67P     91
0.70710678118655,0.70710678118655,1.,1.,0.70710678118655,             67P     92
0.70710678118655,1.,1.,0.70710678118655,0.70710678118655,1.,1.,       67P     93
0.70710678118655,0.70710678118655,1.,1.,8.,0.,20.,8.,0.,69.5,8.,      67P     94
-8.,20.,8.,-8.,69.5,0.,-8.,20.,0.,-8.,69.5,-8.,-8.,20.,-8.,-8.,       67P     95
69.5,-8.,0.,20.,-8.,0.,69.5,-8.,8.,20.,-8.,8.,69.5,0.,8.,20.,0.,      67P     96
8.,69.5,8.,8.,20.,8.,8.,69.5,8.,0.,20.,8.,0.,69.5,0.,                 67P     97
0.31259253047477,0.,1.,0,1,65;                                        67P     98
126,1,1,1,0,1,0,0.,0.,1.,1.,1.,1.,0.,1.,0.,0.,0.,0.,0.,1.,0.,0.,      69P     99
1.;                                                                   69P    100
126,1,1,1,0,1,0,0.,0.,1.,1.,1.,1.,0.,0.,0.,0.31259253047477,0.,       71P    101
0.,0.,1.,0.,0.,1.;                                                    71P    102
126,1,1,1,0,1,0,0.,0.,1.,1.,1.,1.,0.31259253047477,0.,0.,             73P    103
0.31259253047477,1.,0.,0.,1.,0.,0.,1.;                                73P    104
126,1,1,1,0,1,0,0.,0.,1.,1.,1.,1.,0.31259253047477,1.,0.,0.,1.,       75P    105
0.,0.,1.,0.,0.,1.;                                                    75P    106
102,4,69,71,73,75;                                                    77P    107
126,8,2,0,1,0,0,0.,0.,0.,0.25,0.25,0.5,0.5,0.75,0.75,1.,1.,1.,        79P    108
1.,0.70710678118655,1.,0.70710678118655,1.,0.70710678118655,1.,       79P    109
0.70710678118655,1.,8.,0.,20.,8.,8.,20.,0.,8.,20.,-8.,8.,20.,         79P    110
-8.,0.,20.,-8.,-8.,20.,0.,-8.,20.,8.,-8.,20.,8.,0.,20.,0.,1.,0.,      79P    111
0.,0.;                                                                79P    112
126,1,1,0,0,0,0,0.,0.,0.31259253047477,0.31259253047477,1.,1.,        81P    113
8.,0.,20.,8.,0.,69.5,0.,0.31259253047477,0.,0.,0.;                    81P    114
126,8,2,0,1,0,0,0.,0.,0.,0.25,0.25,0.5,0.5,0.75,0.75,1.,1.,1.,        83P    115
1.,0.70710678118655,1.,0.70710678118655,1.,0.70710678118655,1.,       83P    116
0.70710678118655,1.,8.,0.,69.5,8.,-8.,69.5,0.,-8.,69.5,-8.,-8.,       83P    117
69.5,-8.,0.,69.5,-8.,8.,69.5,0.,8.,69.5,8.,8.,69.5,8.,0.,69.5,        83P    118
0.,1.,0.,0.,0.;                                                       83P    119
126,1,1,0,0,0,0,0.,0.,0.31259253047477,0.31259253047477,1.,1.,        85P    120
8.,0.,69.5,8.,0.,20.,0.,0.31259253047477,0.,0.,0.;                    85P    121
102,4,79,81,83,85;                                                    87P    122
142,0,67,77,87,1;                                                     89P    123
144,67,1,0,89,0,1,65;                                                 91P    124
406,1,2HF5;                                                           93P    125
128,1,8,1,2,0,1,0,0,0,0.,0.,1.,1.,0.,0.,0.,0.25,0.25,0.5,0.5,         95P    126
0.75,0.75,1.,1.,1.,1.,1.,0.70710678118655,0.70710678118655,1.,        95P    127
1.,0.70710678118655,0.70710678118655,1.,1.,0.70710678118655,          95P    128
0.70710678118655,1.,1.,0.70710678118655,0.70710678118655,1.,1.,       95P    129
0.,0.,-9.5,40.359802902388,0.,30.859802902388,0.,0.,-9.5,             95P    130
40.359802902388,-40.359802902388,30.859802902388,0.,0.,-9.5,0.,       95P    131
-40.359802902388,30.859802902388,0.,0.,-9.5,-40.359802902388,         95P    132
-40.359802902388,30.859802902388,0.,0.,-9.5,-40.359802902388,0.,      95P    133
30.859802902388,0.,0.,-9.5,-40.359802902388,40.359802902388,          95P    134
30.859802902388,0.,0.,-9.5,0.,40.359802902388,30.859802902388,        95P    135
0.,0.,-9.5,40.359802902388,40.359802902388,30.859802902388,0.,        95P    136
0.,-9.5,40.359802902388,0.,30.859802902388,0.23538271537553,          95P    137
0.24777127936391,0.,1.,0,1,93;                                        95P    138
126,1,1,1,0,1,0,0.,0.,1.,1.,1.,1.,0.23538271537553,1.,0.,             97P    139
0.23538271537553,0.,0.,0.,1.,0.,0.,1.;                                97P    140
126,1,1,1,0,1,0,0.,0.,1.,1.,1.,1.,0.23538271539571,0.,0.,             99P    141
0.24777127936391,0.,0.,0.,1.,0.,0.,1.;                                99P    142
126,1,1,1,0,1,0,0.,0.,1.,1.,1.,1.,0.24777127918114,0.,0.,            101P    143
0.24777127918114,1.,0.,0.,1.,0.,0.,1.;                               101P    144
126,1,1,1,0,1,0,0.,0.,1.,1.,1.,1.,0.24777127936391,1.,0.,            103P    145
0.23538271539571,1.,0.,0.,1.,0.,0.,1.;                               103P    146
102,4,97,99,101,103;                                                 105P    147
126,8,2,0,1,0,0,0.,0.,0.,0.25,0.25,0.5,0.5,0.75,0.75,1.,1.,1.,       107P    148
1.,0.70710678118655,1.,0.70710678118655,1.,0.70710678118655,1.,      107P    149
0.70710678118655,1.,9.4999999991853,0.,-8.1473761071038E-10,         107P    150
9.4999999991853,9.4999999991853,-8.1473730577258E-10,0.,             107P    151
9.4999999991853,-8.1473761071038E-10,-9.4999999991853,               107P    152
9.4999999991852,-8.1473730577258E-10,-9.4999999991853,0.,            107P    153
-8.1473761071038E-10,-9.4999999991852,-9.4999999991853,              107P    154
-8.1473730577258E-10,0.,-9.4999999991853,-8.1473761071038E-10,       107P    155
9.4999999991853,-9.4999999991853,-8.1473730577258E-10,               107P    156
9.4999999991853,0.,-8.1473761071038E-10,0.,1.,0.,0.,0.;              107P    157
126,1,1,0,0,0,0,0.23538271539571,0.23538271539571,                   109P    158
0.24777127936391,0.24777127936391,1.,1.,9.5,0.,0.,10.,0.,0.5,        109P    159
0.23538271539571,0.24777127936391,0.,0.,0.;                          109P    160
126,8,2,0,1,0,0,0.,0.,0.,0.25,0.25,0.5,0.5,0.75,0.75,1.,1.,1.,       111P    161
1.,0.70710678118655,1.,0.70710678118655,1.,0.70710678118655,1.,      111P    162
0.70710678118655,1.,9.9999999926234,0.,0.49999999262344,             111P    163
9.9999999926235,-9.9999999926234,0.49999999262344,0.,                111P    164
-9.9999999926235,0.49999999262344,-9.9999999926234,                  111P    165
-9.9999999926235,0.49999999262344,-9.9999999926234,0.,               111P    166
0.49999999262344,-9.9999999926235,9.9999999926234,                   111P    167
0.49999999262344,0.,9.9999999926234,0.49999999262344,                111P    168
9.9999999926234,9.9999999926234,0.49999999262344,                    111P    169
9.9999999926234,0.,0.49999999262344,0.,1.,0.,0.,0.;                  111P    170
126,1,1,0,0,0,0,0.75222872063609,0.75222872063609,                   113P    171
0.76461728460429,0.76461728460429,1.,1.,10.,0.,0.5,9.5,0.,0.,        113P    172
0.75222872063609,0.76461728460429,0.,0.,0.;                          113P    173
102,4,107,109,111,113;                                               115P    174
142,0,95,105,115,1;                                                  117P    175
144,95,1,0,117,0,1,93;                                               119P    176
406,1,2HF6;                                                          121P    177
128,1,8,1,2,0,1,0,0,0,0.,0.,1.,1.,0.,0.,0.,0.25,0.25,0.5,0.5,        123P    178
0.75,0.75,1.,1.,1.,1.,1.,0.70710678118655,0.70710678118655,1.,       123P    179
1.,0.70710678118655,0.70710678118655,1.,1.,0.70710678118655,         123P    180
0.70710678118655,1.,1.,0.70710678118655,0.70710678118655,1.,1.,      123P    181
0.,0.,77.5,32.361364937153,0.,45.138635062849,0.,0.,77.5,            123P    182
32.361364937153,32.361364937153,45.138635062849,0.,0.,77.5,0.,       123P    183
32.361364937153,45.138635062849,0.,0.,77.5,-32.361364937153,         123P    184
32.361364937153,45.138635062849,0.,0.,77.5,-32.361364937153,0.,      123P    185
45.138635062849,0.,0.,77.5,-32.361364937153,-32.361364937153,        123P    186
45.138635062849,0.,0.,77.5,0.,-32.361364937153,45.138635062849,      123P    187
0.,0.,77.5,32.361364937153,-32.361364937153,45.138635062849,0.,      123P    188
0.,77.5,32.361364937153,0.,45.138635062849,0.23175776771446,         123P    189
0.24720836143767,0.,1.,0,1,121;                                      123P    190
126,1,1,1,0,1,0,0.,0.,1.,1.,1.,1.,0.23175783884782,0.,0.,            125P    191
0.24720836143767,0.,0.,0.,1.,0.,0.,1.;                               125P    192
126,1,1,1,0,1,0,0.,0.,1.,1.,1.,1.,0.24720825939431,0.,0.,            127P    193
0.24720825939431,1.,0.,0.,1.,0.,0.,1.;                               127P    194
126,1,1,1,0,1,0,0.,0.,1.,1.,1.,1.,0.24720836143767,1.,0.,            129P    195
0.23175783884782,1.,0.,0.,1.,0.,0.,1.;                               129P    196
126,1,1,1,0,1,0,0.,0.,1.,1.,1.,1.,0.23175776771446,1.,0.,            131P    197
0.23175776771446,0.,0.,0.,1.,0.,0.,1.;                               131P    198
102,4,125,127,129,131;                                               133P    199
126,1,1,0,0,0,0,0.23175783884782,0.23175783884782,                   135P    200
0.24720836143767,0.24720836143767,1.,1.,7.5,0.,70.,8.,0.,69.5,       135P    201
0.23175783884782,0.24720836143767,0.,0.,0.;                          135P    202
126,8,2,0,1,0,0,0.,0.,0.,0.25,0.25,0.5,0.5,0.75,0.75,1.,1.,1.,       137P    203
1.,0.70710678118655,1.,0.70710678118655,1.,0.70710678118655,1.,      137P    204
0.70710678118655,1.,7.9999966977376,0.,69.500003302262,              137P    205
7.9999966977376,7.9999966977376,69.500003302262,0.,                  137P    206
7.9999966977375,69.500003302262,-7.9999966977375,                    137P    207
7.9999966977375,69.500003302262,-7.9999966977375,0.,                 137P    208
69.500003302262,-7.9999966977375,-7.9999966977376,                   137P    209
69.500003302262,0.,-7.9999966977376,69.500003302262,                 137P    210
7.9999966977376,-7.9999966977376,69.500003302262,                    137P    211
7.9999966977376,0.,69.500003302262,0.,1.,0.,0.,0.;                   137P    212
126,1,1,0,0,0,0,0.75279163856233,0.75279163856233,                   139P    213
0.76824216115218,0.76824216115218,1.,1.,8.,0.,69.5,7.5,0.,70.,       139P    214
0.75279163856233,0.76824216115218,0.,0.,0.;                          139P    215
126,8,2,0,1,0,0,0.,0.,0.,0.25,0.25,0.5,0.5,0.75,0.75,1.,1.,1.,       141P    216
1.,0.70710678118655,1.,0.70710678118655,1.,0.70710678118655,1.,      141P    217
0.70710678118655,1.,7.4999976980276,0.,70.000002301972,              141P    218
7.4999976980276,-7.4999976980276,70.000002301972,0.,                 141P    219
-7.4999976980276,70.000002301972,-7.4999976980275,                   141P    220
-7.4999976980276,70.000002301972,-7.4999976980275,0.,                141P    221
70.000002301972,-7.4999976980276,7.4999976980276,                    141P    222
70.000002301972,0.,7.4999976980276,70.000002301972,                  141P    223
7.4999976980276,7.4999976980276,70.000002301972,7.4999976980276,     141P    224
0.,70.000002301972,0.,1.,0.,0.,0.;                                   141P    225
102,4,135,137,139,141;                                               143P    226
142,0,123,133,143,1;                                                 145P    227
144,123,1,0,145,0,1,121;                                             147P    228
406,1,2HF7;                                                          149P    229
128,1,1,1,1,0,0,1,0,0,0.,0.,1.,1.,0.,0.,1.,1.,1.,1.,1.,1.,           151P    230
-11.787187078898,-7.5,70.,7.5,-7.5,70.,-11.787187078898,7.5,70.,     151P    231
7.5,7.5,70.,0.21561494761749,1.,0.,1.,0,1,149;                       151P    232
126,8,2,1,1,0,0,0.,0.,0.,0.25,0.25,0.5,0.5,0.75,0.75,1.,1.,1.,       153P    233
1.,0.70710678118655,1.,0.70710678118655,1.,0.70710678118655,1.,      153P    234
0.70710678118655,1.,1.,0.5,0.,1.,1.,0.,0.61114080714208,1.,0.,       153P    235
0.22228161428416,1.,0.,0.22228161428416,0.5,0.,0.22228161428416,     153P    236
0.,0.,0.61114080714208,0.,0.,1.,0.,0.,1.,0.5,0.,0.,1.,0.,0.,1.;      153P    237
126,8,2,0,1,0,0,0.,0.,0.,0.25,0.25,0.5,0.5,0.75,0.75,1.,1.,1.,       155P    238
1.,0.70710678118655,1.,0.70710678118655,1.,0.70710678118655,1.,      155P    239
0.70710678118655,1.,7.5,0.,70.,7.5,7.5,70.,0.,7.5,70.,-7.5,7.5,      155P    240
70.,-7.5,0.,70.,-7.5,-7.5,70.,0.,-7.5,70.,7.5,-7.5,70.,7.5,0.,       155P    241
70.,0.,1.,0.,0.,0.;                                                  155P    242
142,0,151,153,155,1;                                                 157P    243
126,8,2,1,1,0,0,0.,0.,0.,0.25,0.25,0.5,0.5,0.75,0.75,1.,1.,1.,       159P    244
1.,0.70710678118655,1.,0.70710678118655,1.,0.70710678118655,1.,      159P    245
0.70710678118655,1.,0.61114080714208,0.9,0.,0.92222816142842,        159P    246
0.9,0.,0.92222816142842,0.5,0.,0.92222816142842,0.1,0.,              159P    247
0.61114080714208,0.1,0.,0.30005345285574,0.1,0.,                     159P    248
0.30005345285574,0.5,0.,0.30005345285574,0.9,0.,                     159P    249
0.61114080714208,0.9,0.,0.,1.,0.,0.,1.;                              159P    250
126,8,2,0,1,0,0,0.,0.,0.,0.25,0.25,0.5,0.5,0.75,0.75,1.,1.,1.,       161P    251
1.,0.70710678118655,1.,0.70710678118655,1.,0.70710678118655,1.,      161P    252
0.70710678118655,1.,0.,6.,70.,6.,6.,70.,6.,0.,70.,6.,-6.,70.,0.,     161P    253
-6.,70.,-6.,-6.,70.,-6.,0.,70.,-6.,6.,70.,0.,6.,70.,0.,1.,0.,0.,     161P    254
0.;                                                                  161P    255
142,0,151,159,161,1;                                                 163P    256
144,151,1,1,157,163,0,1,149;                                         165P    257
406,1,2HF8;                                                          167P    258
128,1,8,1,2,0,1,0,0,0,0.,0.,0.31029853893282,0.31029853893282,       169P    259
0.,0.,0.,0.25,0.25,0.5,0.5,0.75,0.75,1.,1.,1.,1.,1.,                 169P    260
0.70710678118655,0.70710678118655,1.,1.,0.70710678118655,            169P    261
0.70710678118655,1.,1.,0.70710678118655,0.70710678118655,1.,1.,      169P    262
0.70710678118655,0.70710678118655,1.,1.,0.,6.,70.,0.,6.,105.,6.,     169P    263
6.,70.,6.,6.,105.,6.,0.,70.,6.,0.,105.,6.,-6.,70.,6.,-6.,105.,       169P    264
0.,-6.,70.,0.,-6.,105.,-6.,-6.,70.,-6.,-6.,105.,-6.,0.,70.,-6.,      169P    265
0.,105.,-6.,6.,70.,-6.,6.,105.,0.,6.,70.,0.,6.,105.,0.,              169P    266
0.31029853893282,0.,1.,0,1,167;                                      169P    267
126,1,1,1,0,1,0,0.,0.,1.,1.,1.,1.,0.,1.,0.,0.,0.,0.,0.,1.,0.,0.,     171P    268
1.;                                                                  171P    269
126,1,1,1,0,1,0,0.,0.,1.,1.,1.,1.,0.,0.,0.,0.31029853893282,0.,      173P    270
0.,0.,1.,0.,0.,1.;                                                   173P    271
126,1,1,1,0,1,0,0.,0.,1.,1.,1.,1.,0.31029853893282,0.,0.,            175P    272
0.31029853893282,1.,0.,0.,1.,0.,0.,1.;                               175P    273
126,1,1,1,0,1,0,0.,0.,1.,1.,1.,1.,0.31029853893282,1.,0.,0.,1.,      177P    274
0.,0.,1.,0.,0.,1.;                                                   177P    275
102,4,171,173,175,177;                                               179P    276
126,8,2,0,1,0,0,0.,0.,0.,0.25,0.25,0.5,0.5,0.75,0.75,1.,1.,1.,       181P    277
1.,0.70710678118655,1.,0.70710678118655,1.,0.70710678118655,1.,      181P    278
0.70710678118655,1.,0.,6.,70.,-6.,6.,70.,-6.,0.,70.,-6.,-6.,70.,     181P    279
0.,-6.,70.,6.,-6.,70.,6.,0.,70.,6.,6.,70.,0.,6.,70.,0.,1.,0.,0.,     181P    280
0.;                                                                  181P    281
126,1,1,0,0,0,0,0.,0.,0.31029853893282,0.31029853893282,1.,1.,       183P    282
0.,6.,70.,0.,6.,105.,0.,0.31029853893282,0.,0.,0.;                   183P    283
126,8,2,0,1,0,0,0.,0.,0.,0.25,0.25,0.5,0.5,0.75,0.75,1.,1.,1.,       185P    284
1.,0.70710678118655,1.,0.70710678118655,1.,0.70710678118655,1.,      185P    285
0.70710678118655,1.,0.,6.,105.,6.,6.,105.,6.,0.,105.,6.,-6.,         185P    286
105.,0.,-6.,105.,-6.,-6.,105.,-6.,0.,105.,-6.,6.,105.,0.,6.,         185P    287
105.,0.,1.,0.,0.,0.;                                                 185P    288
126,1,1,0,0,0,0,0.,0.,0.31029853893282,0.31029853893282,1.,1.,       187P    289
0.,6.,105.,0.,6.,70.,0.,0.31029853893282,0.,0.,0.;                   187P    290
102,4,181,183,185,187;                                               189P    291
142,0,169,179,189,1;                                                 191P    292
144,169,1,0,191,0,1,167;                                             193P    293
406,1,2HF9;                                                          195P    294
128,1,1,1,1,0,0,1,0,0,0.,0.,1.,1.,0.,0.,1.,1.,1.,1.,1.,1.,6.,        197P    295
-9.2153903091734,105.,6.,6.,105.,-6.,-9.2153903091734,105.,-6.,      197P    296
6.,105.,0.20299153207185,1.,0.,1.,0,1,195;                           197P    297
126,8,2,1,1,0,0,0.,0.,0.,0.25,0.25,0.5,0.5,0.75,0.75,1.,1.,1.,       199P    298
1.,0.70710678118655,1.,0.70710678118655,1.,0.70710678118655,1.,      199P    299
0.70710678118655,1.,1.,0.5,0.,1.,1.,0.,0.60566243270259,1.,0.,       199P    300
0.21132486540518,1.,0.,0.21132486540518,0.5,0.,0.21132486540518,     199P    301
0.,0.,0.60566243270259,0.,0.,1.,0.,0.,1.,0.5,0.,0.,1.,0.,0.,1.;      199P    302
126,8,2,0,1,0,0,0.,0.,0.,0.25,0.25,0.5,0.5,0.75,0.75,1.,1.,1.,       201P    303
1.,0.70710678118655,1.,0.70710678118655,1.,0.70710678118655,1.,      201P    304
0.70710678118655,1.,0.,6.,105.,-6.,6.,105.,-6.,0.,105.,-6.,-6.,      201P    305
105.,0.,-6.,105.,6.,-6.,105.,6.,0.,105.,6.,6.,105.,0.,6.,105.,       201P    306
0.,1.,0.,0.,0.;                                                      201P    307
142,0,197,199,201,1;                                                 203P    308
144,197,1,0,203,0,1,195;                                             205P    309
406,1,13HExplicit Data;                                              207P    310
406,1,4HC187;                                                        209P    311
124,0.,-1.,0.,0.,1.,0.,0.,0.,0.,0.,1.,70.;                           211P    312
100,0.,0.,0.,6.,0.,6.,0.,0,1,209;                                    213P    313
314,52.941176470588,62.745098039216,50.980392156863;                 215P    314
406,1,6HCv3073;                                                      217P    315
110,-10.,-10.,0.,10.,-10.,0.,0,1,217;                                219P    316
406,1,6HCv3283;                                                      221P    317
110,10.,-10.,0.,10.,10.,0.,0,1,221;                                  223P    318
406,1,6HCv3436;                                                      225P    319
110,10.,10.,0.,-10.,10.,0.,0,1,225;                                  227P    320
406,1,6HCv3171;                                                      229P    321
110,-10.,10.,0.,-10.,-10.,0.,0,1,229;                                231P    322
406,1,6HCv3244;                                                      233P    323
110,-10.,-10.,0.,-10.,-10.,70.,0,1,233;                              235P    324
406,1,6HCv3387;                                                      237P    325
110,10.,-10.,0.,10.,-10.,70.,0,1,237;                                239P    326
406,1,6HCv3424;                                                      241P    327
110,10.,10.,0.,10.,10.,70.,0,1,241;                                  243P    328
406,1,6HCv3249;                                                      245P    329
110,-10.,10.,0.,-10.,10.,70.,0,1,245;                                247P    330
406,1,6HCv3444;                                                      249P    331
110,-10.,-10.,70.,10.,-10.,70.,0,1,249;                              251P    332
406,1,6HCv3534;                                                      253P    333
110,10.,-10.,70.,10.,10.,70.,0,1,253;                                255P    334
406,1,6HCv3571;                                                      257P    335
110,10.,10.,70.,-10.,10.,70.,0,1,257;                                259P    336
406,1,6HCv3406;                                                      261P    337
110,-10.,10.,70.,-10.,-10.,70.,0,1,261;                              263P    338
S      1G      3D    264P    338                                        T      1
