ISO-10303-21;
HEADER;
/* Generated by software containing ST-Developer
 * from STEP Tools, Inc. (www.steptools.com) 
 */

FILE_DESCRIPTION(
/* description */ (''),
/* implementation_level */ '2;1');

FILE_NAME(
/* name */ 'VW_1K0 121 087R for 888.2.step',
/* time_stamp */ '2024-10-01T15:57:08+07:00',
/* author */ (''),
/* organization */ (''),
/* preprocessor_version */ 'ST-DEVELOPER v20',
/* originating_system */ 'Autodesk Translation Framework v13.20.0.188',

/* authorisation */ '');

FILE_SCHEMA (('AUTOMOTIVE_DESIGN { 1 0 10303 214 3 1 1 }'));
ENDSEC;

DATA;
#10=MECHANICAL_DESIGN_GEOMETRIC_PRESENTATION_REPRESENTATION('',(#13),#625);
#11=SHAPE_REPRESENTATION_RELATIONSHIP('SRR','None',#632,#12);
#12=ADVANCED_BREP_SHAPE_REPRESENTATION('',(#14),#624);
#13=STYLED_ITEM('',(#641),#14);
#14=MANIFOLD_SOLID_BREP('Body1',#323);
#15=FACE_BOUND('',#68,.T.);
#16=FACE_BOUND('',#73,.T.);
#17=FACE_BOUND('',#81,.T.);
#18=FACE_BOUND('',#84,.T.);
#19=PLANE('',#358);
#20=PLANE('',#370);
#21=PLANE('',#392);
#22=PLANE('',#396);
#23=CYLINDRICAL_SURFACE('',#352,16.);
#24=CYLINDRICAL_SURFACE('',#364,19.);
#25=CYLINDRICAL_SURFACE('',#376,16.);
#26=CYLINDRICAL_SURFACE('',#394,14.);
#27=LINE('',#538,#33);
#28=LINE('',#554,#34);
#29=LINE('',#573,#35);
#30=LINE('',#592,#36);
#31=LINE('',#608,#37);
#32=LINE('',#619,#38);
#33=VECTOR('',#413,16.4905300402848);
#34=VECTOR('',#434,16.);
#35=VECTOR('',#459,19.);
#36=VECTOR('',#484,16.);
#37=VECTOR('',#505,16.4905300402848);
#38=VECTOR('',#520,14.);
#39=CONICAL_SURFACE('',#342,16.4905300402848,0.286710456894548);
#40=CONICAL_SURFACE('',#386,16.4905300402848,0.286710456894548);
#41=FACE_OUTER_BOUND('',#61,.T.);
#42=FACE_OUTER_BOUND('',#62,.T.);
#43=FACE_OUTER_BOUND('',#63,.T.);
#44=FACE_OUTER_BOUND('',#64,.T.);
#45=FACE_OUTER_BOUND('',#65,.T.);
#46=FACE_OUTER_BOUND('',#66,.T.);
#47=FACE_OUTER_BOUND('',#67,.T.);
#48=FACE_OUTER_BOUND('',#69,.T.);
#49=FACE_OUTER_BOUND('',#70,.T.);
#50=FACE_OUTER_BOUND('',#71,.T.);
#51=FACE_OUTER_BOUND('',#72,.T.);
#52=FACE_OUTER_BOUND('',#74,.T.);
#53=FACE_OUTER_BOUND('',#75,.T.);
#54=FACE_OUTER_BOUND('',#76,.T.);
#55=FACE_OUTER_BOUND('',#77,.T.);
#56=FACE_OUTER_BOUND('',#78,.T.);
#57=FACE_OUTER_BOUND('',#79,.T.);
#58=FACE_OUTER_BOUND('',#80,.T.);
#59=FACE_OUTER_BOUND('',#82,.T.);
#60=FACE_OUTER_BOUND('',#83,.T.);
#61=EDGE_LOOP('',(#201,#202,#203,#204,#205));
#62=EDGE_LOOP('',(#206,#207,#208,#209,#210,#211));
#63=EDGE_LOOP('',(#212,#213,#214,#215,#216));
#64=EDGE_LOOP('',(#217,#218,#219,#220,#221));
#65=EDGE_LOOP('',(#222,#223,#224,#225,#226,#227));
#66=EDGE_LOOP('',(#228,#229,#230,#231,#232));
#67=EDGE_LOOP('',(#233));
#68=EDGE_LOOP('',(#234));
#69=EDGE_LOOP('',(#235,#236,#237,#238,#239));
#70=EDGE_LOOP('',(#240,#241,#242,#243,#244,#245));
#71=EDGE_LOOP('',(#246,#247,#248,#249,#250));
#72=EDGE_LOOP('',(#251));
#73=EDGE_LOOP('',(#252));
#74=EDGE_LOOP('',(#253,#254,#255,#256,#257));
#75=EDGE_LOOP('',(#258,#259,#260,#261,#262,#263));
#76=EDGE_LOOP('',(#264,#265,#266,#267,#268));
#77=EDGE_LOOP('',(#269,#270,#271,#272,#273));
#78=EDGE_LOOP('',(#274,#275,#276,#277,#278,#279));
#79=EDGE_LOOP('',(#280,#281,#282,#283,#284));
#80=EDGE_LOOP('',(#285));
#81=EDGE_LOOP('',(#286));
#82=EDGE_LOOP('',(#287,#288,#289,#290));
#83=EDGE_LOOP('',(#291));
#84=EDGE_LOOP('',(#292));
#85=CIRCLE('',#338,15.5422910685176);
#86=CIRCLE('',#339,15.5422910685176);
#87=CIRCLE('',#340,0.200000000000012);
#88=CIRCLE('',#341,15.3504551167975);
#89=CIRCLE('',#343,17.438769012052);
#90=CIRCLE('',#344,17.438769012052);
#91=CIRCLE('',#346,16.1764705882353);
#92=CIRCLE('',#347,1.5);
#93=CIRCLE('',#349,0.199999999999994);
#94=CIRCLE('',#350,16.);
#95=CIRCLE('',#351,16.);
#96=CIRCLE('',#353,16.);
#97=CIRCLE('',#354,16.);
#98=CIRCLE('',#356,0.199999999999998);
#99=CIRCLE('',#357,16.2);
#100=CIRCLE('',#359,18.8);
#101=CIRCLE('',#361,19.);
#102=CIRCLE('',#362,19.);
#103=CIRCLE('',#363,0.199999999999998);
#104=CIRCLE('',#365,19.);
#105=CIRCLE('',#366,19.);
#106=CIRCLE('',#368,18.8);
#107=CIRCLE('',#369,0.199999999999998);
#108=CIRCLE('',#371,16.2);
#109=CIRCLE('',#373,0.199999999999998);
#110=CIRCLE('',#374,16.);
#111=CIRCLE('',#375,16.);
#112=CIRCLE('',#377,16.);
#113=CIRCLE('',#378,16.);
#114=CIRCLE('',#380,0.199999999999996);
#115=CIRCLE('',#381,16.1764705882353);
#116=CIRCLE('',#383,17.438769012052);
#117=CIRCLE('',#384,17.438769012052);
#118=CIRCLE('',#385,1.5);
#119=CIRCLE('',#387,15.5422910685176);
#120=CIRCLE('',#388,15.5422910685176);
#121=CIRCLE('',#390,15.3504551167975);
#122=CIRCLE('',#391,0.200000000000013);
#123=CIRCLE('',#393,14.);
#124=CIRCLE('',#395,14.);
#125=VERTEX_POINT('',#527);
#126=VERTEX_POINT('',#528);
#127=VERTEX_POINT('',#531);
#128=VERTEX_POINT('',#535);
#129=VERTEX_POINT('',#536);
#130=VERTEX_POINT('',#541);
#131=VERTEX_POINT('',#545);
#132=VERTEX_POINT('',#547);
#133=VERTEX_POINT('',#551);
#134=VERTEX_POINT('',#552);
#135=VERTEX_POINT('',#557);
#136=VERTEX_POINT('',#561);
#137=VERTEX_POINT('',#564);
#138=VERTEX_POINT('',#565);
#139=VERTEX_POINT('',#570);
#140=VERTEX_POINT('',#571);
#141=VERTEX_POINT('',#576);
#142=VERTEX_POINT('',#580);
#143=VERTEX_POINT('',#583);
#144=VERTEX_POINT('',#585);
#145=VERTEX_POINT('',#589);
#146=VERTEX_POINT('',#590);
#147=VERTEX_POINT('',#595);
#148=VERTEX_POINT('',#599);
#149=VERTEX_POINT('',#600);
#150=VERTEX_POINT('',#605);
#151=VERTEX_POINT('',#606);
#152=VERTEX_POINT('',#611);
#153=VERTEX_POINT('',#615);
#154=VERTEX_POINT('',#618);
#155=EDGE_CURVE('',#125,#126,#85,.T.);
#156=EDGE_CURVE('',#126,#125,#86,.T.);
#157=EDGE_CURVE('',#126,#127,#87,.T.);
#158=EDGE_CURVE('',#127,#127,#88,.T.);
#159=EDGE_CURVE('',#128,#129,#89,.T.);
#160=EDGE_CURVE('',#128,#125,#27,.T.);
#161=EDGE_CURVE('',#129,#128,#90,.T.);
#162=EDGE_CURVE('',#130,#130,#91,.T.);
#163=EDGE_CURVE('',#130,#129,#92,.T.);
#164=EDGE_CURVE('',#130,#131,#93,.T.);
#165=EDGE_CURVE('',#132,#131,#94,.T.);
#166=EDGE_CURVE('',#131,#132,#95,.T.);
#167=EDGE_CURVE('',#133,#134,#96,.T.);
#168=EDGE_CURVE('',#133,#132,#28,.T.);
#169=EDGE_CURVE('',#134,#133,#97,.T.);
#170=EDGE_CURVE('',#134,#135,#98,.T.);
#171=EDGE_CURVE('',#135,#135,#99,.T.);
#172=EDGE_CURVE('',#136,#136,#100,.T.);
#173=EDGE_CURVE('',#137,#138,#101,.T.);
#174=EDGE_CURVE('',#138,#137,#102,.T.);
#175=EDGE_CURVE('',#138,#136,#103,.T.);
#176=EDGE_CURVE('',#139,#140,#104,.T.);
#177=EDGE_CURVE('',#139,#137,#29,.T.);
#178=EDGE_CURVE('',#140,#139,#105,.T.);
#179=EDGE_CURVE('',#141,#141,#106,.T.);
#180=EDGE_CURVE('',#141,#140,#107,.T.);
#181=EDGE_CURVE('',#142,#142,#108,.T.);
#182=EDGE_CURVE('',#142,#143,#109,.T.);
#183=EDGE_CURVE('',#144,#143,#110,.T.);
#184=EDGE_CURVE('',#143,#144,#111,.T.);
#185=EDGE_CURVE('',#145,#146,#112,.T.);
#186=EDGE_CURVE('',#145,#144,#30,.T.);
#187=EDGE_CURVE('',#146,#145,#113,.T.);
#188=EDGE_CURVE('',#146,#147,#114,.T.);
#189=EDGE_CURVE('',#147,#147,#115,.T.);
#190=EDGE_CURVE('',#148,#149,#116,.T.);
#191=EDGE_CURVE('',#149,#148,#117,.T.);
#192=EDGE_CURVE('',#149,#147,#118,.T.);
#193=EDGE_CURVE('',#150,#151,#119,.T.);
#194=EDGE_CURVE('',#150,#148,#31,.T.);
#195=EDGE_CURVE('',#151,#150,#120,.T.);
#196=EDGE_CURVE('',#152,#152,#121,.T.);
#197=EDGE_CURVE('',#152,#151,#122,.T.);
#198=EDGE_CURVE('',#153,#153,#123,.T.);
#199=EDGE_CURVE('',#153,#154,#32,.T.);
#200=EDGE_CURVE('',#154,#154,#124,.T.);
#201=ORIENTED_EDGE('',*,*,#155,.F.);
#202=ORIENTED_EDGE('',*,*,#156,.F.);
#203=ORIENTED_EDGE('',*,*,#157,.T.);
#204=ORIENTED_EDGE('',*,*,#158,.T.);
#205=ORIENTED_EDGE('',*,*,#157,.F.);
#206=ORIENTED_EDGE('',*,*,#159,.F.);
#207=ORIENTED_EDGE('',*,*,#160,.T.);
#208=ORIENTED_EDGE('',*,*,#155,.T.);
#209=ORIENTED_EDGE('',*,*,#156,.T.);
#210=ORIENTED_EDGE('',*,*,#160,.F.);
#211=ORIENTED_EDGE('',*,*,#161,.F.);
#212=ORIENTED_EDGE('',*,*,#162,.F.);
#213=ORIENTED_EDGE('',*,*,#163,.T.);
#214=ORIENTED_EDGE('',*,*,#161,.T.);
#215=ORIENTED_EDGE('',*,*,#159,.T.);
#216=ORIENTED_EDGE('',*,*,#163,.F.);
#217=ORIENTED_EDGE('',*,*,#162,.T.);
#218=ORIENTED_EDGE('',*,*,#164,.T.);
#219=ORIENTED_EDGE('',*,*,#165,.F.);
#220=ORIENTED_EDGE('',*,*,#166,.F.);
#221=ORIENTED_EDGE('',*,*,#164,.F.);
#222=ORIENTED_EDGE('',*,*,#167,.F.);
#223=ORIENTED_EDGE('',*,*,#168,.T.);
#224=ORIENTED_EDGE('',*,*,#165,.T.);
#225=ORIENTED_EDGE('',*,*,#166,.T.);
#226=ORIENTED_EDGE('',*,*,#168,.F.);
#227=ORIENTED_EDGE('',*,*,#169,.F.);
#228=ORIENTED_EDGE('',*,*,#167,.T.);
#229=ORIENTED_EDGE('',*,*,#170,.T.);
#230=ORIENTED_EDGE('',*,*,#171,.F.);
#231=ORIENTED_EDGE('',*,*,#170,.F.);
#232=ORIENTED_EDGE('',*,*,#169,.T.);
#233=ORIENTED_EDGE('',*,*,#172,.F.);
#234=ORIENTED_EDGE('',*,*,#171,.T.);
#235=ORIENTED_EDGE('',*,*,#173,.F.);
#236=ORIENTED_EDGE('',*,*,#174,.F.);
#237=ORIENTED_EDGE('',*,*,#175,.T.);
#238=ORIENTED_EDGE('',*,*,#172,.T.);
#239=ORIENTED_EDGE('',*,*,#175,.F.);
#240=ORIENTED_EDGE('',*,*,#176,.F.);
#241=ORIENTED_EDGE('',*,*,#177,.T.);
#242=ORIENTED_EDGE('',*,*,#173,.T.);
#243=ORIENTED_EDGE('',*,*,#174,.T.);
#244=ORIENTED_EDGE('',*,*,#177,.F.);
#245=ORIENTED_EDGE('',*,*,#178,.F.);
#246=ORIENTED_EDGE('',*,*,#179,.F.);
#247=ORIENTED_EDGE('',*,*,#180,.T.);
#248=ORIENTED_EDGE('',*,*,#178,.T.);
#249=ORIENTED_EDGE('',*,*,#176,.T.);
#250=ORIENTED_EDGE('',*,*,#180,.F.);
#251=ORIENTED_EDGE('',*,*,#179,.T.);
#252=ORIENTED_EDGE('',*,*,#181,.F.);
#253=ORIENTED_EDGE('',*,*,#181,.T.);
#254=ORIENTED_EDGE('',*,*,#182,.T.);
#255=ORIENTED_EDGE('',*,*,#183,.F.);
#256=ORIENTED_EDGE('',*,*,#184,.F.);
#257=ORIENTED_EDGE('',*,*,#182,.F.);
#258=ORIENTED_EDGE('',*,*,#185,.F.);
#259=ORIENTED_EDGE('',*,*,#186,.T.);
#260=ORIENTED_EDGE('',*,*,#183,.T.);
#261=ORIENTED_EDGE('',*,*,#184,.T.);
#262=ORIENTED_EDGE('',*,*,#186,.F.);
#263=ORIENTED_EDGE('',*,*,#187,.F.);
#264=ORIENTED_EDGE('',*,*,#185,.T.);
#265=ORIENTED_EDGE('',*,*,#188,.T.);
#266=ORIENTED_EDGE('',*,*,#189,.F.);
#267=ORIENTED_EDGE('',*,*,#188,.F.);
#268=ORIENTED_EDGE('',*,*,#187,.T.);
#269=ORIENTED_EDGE('',*,*,#190,.F.);
#270=ORIENTED_EDGE('',*,*,#191,.F.);
#271=ORIENTED_EDGE('',*,*,#192,.T.);
#272=ORIENTED_EDGE('',*,*,#189,.T.);
#273=ORIENTED_EDGE('',*,*,#192,.F.);
#274=ORIENTED_EDGE('',*,*,#193,.F.);
#275=ORIENTED_EDGE('',*,*,#194,.T.);
#276=ORIENTED_EDGE('',*,*,#190,.T.);
#277=ORIENTED_EDGE('',*,*,#191,.T.);
#278=ORIENTED_EDGE('',*,*,#194,.F.);
#279=ORIENTED_EDGE('',*,*,#195,.F.);
#280=ORIENTED_EDGE('',*,*,#196,.F.);
#281=ORIENTED_EDGE('',*,*,#197,.T.);
#282=ORIENTED_EDGE('',*,*,#195,.T.);
#283=ORIENTED_EDGE('',*,*,#193,.T.);
#284=ORIENTED_EDGE('',*,*,#197,.F.);
#285=ORIENTED_EDGE('',*,*,#196,.T.);
#286=ORIENTED_EDGE('',*,*,#198,.F.);
#287=ORIENTED_EDGE('',*,*,#198,.T.);
#288=ORIENTED_EDGE('',*,*,#199,.T.);
#289=ORIENTED_EDGE('',*,*,#200,.F.);
#290=ORIENTED_EDGE('',*,*,#199,.F.);
#291=ORIENTED_EDGE('',*,*,#158,.F.);
#292=ORIENTED_EDGE('',*,*,#200,.T.);
#293=TOROIDAL_SURFACE('',#337,15.350455200244,0.200000000000012);
#294=TOROIDAL_SURFACE('',#345,16.,1.5);
#295=TOROIDAL_SURFACE('',#348,16.2,0.199999999999994);
#296=TOROIDAL_SURFACE('',#355,16.2,0.199999999999998);
#297=TOROIDAL_SURFACE('',#360,18.8,0.199999999999998);
#298=TOROIDAL_SURFACE('',#367,18.8,0.199999999999998);
#299=TOROIDAL_SURFACE('',#372,16.2,0.199999999999998);
#300=TOROIDAL_SURFACE('',#379,16.2,0.199999999999996);
#301=TOROIDAL_SURFACE('',#382,16.,1.5);
#302=TOROIDAL_SURFACE('',#389,15.350455200244,0.200000000000013);
#303=ADVANCED_FACE('',(#41),#293,.T.);
#304=ADVANCED_FACE('',(#42),#39,.T.);
#305=ADVANCED_FACE('',(#43),#294,.T.);
#306=ADVANCED_FACE('',(#44),#295,.F.);
#307=ADVANCED_FACE('',(#45),#23,.T.);
#308=ADVANCED_FACE('',(#46),#296,.F.);
#309=ADVANCED_FACE('',(#47,#15),#19,.T.);
#310=ADVANCED_FACE('',(#48),#297,.T.);
#311=ADVANCED_FACE('',(#49),#24,.T.);
#312=ADVANCED_FACE('',(#50),#298,.T.);
#313=ADVANCED_FACE('',(#51,#16),#20,.T.);
#314=ADVANCED_FACE('',(#52),#299,.F.);
#315=ADVANCED_FACE('',(#53),#25,.T.);
#316=ADVANCED_FACE('',(#54),#300,.F.);
#317=ADVANCED_FACE('',(#55),#301,.T.);
#318=ADVANCED_FACE('',(#56),#40,.T.);
#319=ADVANCED_FACE('',(#57),#302,.T.);
#320=ADVANCED_FACE('',(#58,#17),#21,.T.);
#321=ADVANCED_FACE('',(#59),#26,.F.);
#322=ADVANCED_FACE('',(#60,#18),#22,.T.);
#323=CLOSED_SHELL('',(#303,#304,#305,#306,#307,#308,#309,#310,#311,#312,
#313,#314,#315,#316,#317,#318,#319,#320,#321,#322));
#324=DERIVED_UNIT_ELEMENT(#326,1.);
#325=DERIVED_UNIT_ELEMENT(#627,-3.);
#326=(
MASS_UNIT()
NAMED_UNIT(*)
SI_UNIT(.KILO.,.GRAM.)
);
#327=DERIVED_UNIT((#324,#325));
#328=MEASURE_REPRESENTATION_ITEM('density measure',
POSITIVE_RATIO_MEASURE(7850.),#327);
#329=PROPERTY_DEFINITION_REPRESENTATION(#334,#331);
#330=PROPERTY_DEFINITION_REPRESENTATION(#335,#332);
#331=REPRESENTATION('material name',(#333),#624);
#332=REPRESENTATION('density',(#328),#624);
#333=DESCRIPTIVE_REPRESENTATION_ITEM('Steel','Steel');
#334=PROPERTY_DEFINITION('material property','material name',#634);
#335=PROPERTY_DEFINITION('material property','density of part',#634);
#336=AXIS2_PLACEMENT_3D('',#525,#397,#398);
#337=AXIS2_PLACEMENT_3D('',#526,#399,#400);
#338=AXIS2_PLACEMENT_3D('',#529,#401,#402);
#339=AXIS2_PLACEMENT_3D('',#530,#403,#404);
#340=AXIS2_PLACEMENT_3D('',#532,#405,#406);
#341=AXIS2_PLACEMENT_3D('',#533,#407,#408);
#342=AXIS2_PLACEMENT_3D('',#534,#409,#410);
#343=AXIS2_PLACEMENT_3D('',#537,#411,#412);
#344=AXIS2_PLACEMENT_3D('',#539,#414,#415);
#345=AXIS2_PLACEMENT_3D('',#540,#416,#417);
#346=AXIS2_PLACEMENT_3D('',#542,#418,#419);
#347=AXIS2_PLACEMENT_3D('',#543,#420,#421);
#348=AXIS2_PLACEMENT_3D('',#544,#422,#423);
#349=AXIS2_PLACEMENT_3D('',#546,#424,#425);
#350=AXIS2_PLACEMENT_3D('',#548,#426,#427);
#351=AXIS2_PLACEMENT_3D('',#549,#428,#429);
#352=AXIS2_PLACEMENT_3D('',#550,#430,#431);
#353=AXIS2_PLACEMENT_3D('',#553,#432,#433);
#354=AXIS2_PLACEMENT_3D('',#555,#435,#436);
#355=AXIS2_PLACEMENT_3D('',#556,#437,#438);
#356=AXIS2_PLACEMENT_3D('',#558,#439,#440);
#357=AXIS2_PLACEMENT_3D('',#559,#441,#442);
#358=AXIS2_PLACEMENT_3D('',#560,#443,#444);
#359=AXIS2_PLACEMENT_3D('',#562,#445,#446);
#360=AXIS2_PLACEMENT_3D('',#563,#447,#448);
#361=AXIS2_PLACEMENT_3D('',#566,#449,#450);
#362=AXIS2_PLACEMENT_3D('',#567,#451,#452);
#363=AXIS2_PLACEMENT_3D('',#568,#453,#454);
#364=AXIS2_PLACEMENT_3D('',#569,#455,#456);
#365=AXIS2_PLACEMENT_3D('',#572,#457,#458);
#366=AXIS2_PLACEMENT_3D('',#574,#460,#461);
#367=AXIS2_PLACEMENT_3D('',#575,#462,#463);
#368=AXIS2_PLACEMENT_3D('',#577,#464,#465);
#369=AXIS2_PLACEMENT_3D('',#578,#466,#467);
#370=AXIS2_PLACEMENT_3D('',#579,#468,#469);
#371=AXIS2_PLACEMENT_3D('',#581,#470,#471);
#372=AXIS2_PLACEMENT_3D('',#582,#472,#473);
#373=AXIS2_PLACEMENT_3D('',#584,#474,#475);
#374=AXIS2_PLACEMENT_3D('',#586,#476,#477);
#375=AXIS2_PLACEMENT_3D('',#587,#478,#479);
#376=AXIS2_PLACEMENT_3D('',#588,#480,#481);
#377=AXIS2_PLACEMENT_3D('',#591,#482,#483);
#378=AXIS2_PLACEMENT_3D('',#593,#485,#486);
#379=AXIS2_PLACEMENT_3D('',#594,#487,#488);
#380=AXIS2_PLACEMENT_3D('',#596,#489,#490);
#381=AXIS2_PLACEMENT_3D('',#597,#491,#492);
#382=AXIS2_PLACEMENT_3D('',#598,#493,#494);
#383=AXIS2_PLACEMENT_3D('',#601,#495,#496);
#384=AXIS2_PLACEMENT_3D('',#602,#497,#498);
#385=AXIS2_PLACEMENT_3D('',#603,#499,#500);
#386=AXIS2_PLACEMENT_3D('',#604,#501,#502);
#387=AXIS2_PLACEMENT_3D('',#607,#503,#504);
#388=AXIS2_PLACEMENT_3D('',#609,#506,#507);
#389=AXIS2_PLACEMENT_3D('',#610,#508,#509);
#390=AXIS2_PLACEMENT_3D('',#612,#510,#511);
#391=AXIS2_PLACEMENT_3D('',#613,#512,#513);
#392=AXIS2_PLACEMENT_3D('',#614,#514,#515);
#393=AXIS2_PLACEMENT_3D('',#616,#516,#517);
#394=AXIS2_PLACEMENT_3D('',#617,#518,#519);
#395=AXIS2_PLACEMENT_3D('',#620,#521,#522);
#396=AXIS2_PLACEMENT_3D('',#621,#523,#524);
#397=DIRECTION('axis',(0.,0.,1.));
#398=DIRECTION('refdir',(1.,0.,0.));
#399=DIRECTION('center_axis',(1.,0.,0.));
#400=DIRECTION('ref_axis',(0.,0.,-1.));
#401=DIRECTION('center_axis',(1.,0.,0.));
#402=DIRECTION('ref_axis',(0.,0.,-1.));
#403=DIRECTION('center_axis',(1.,0.,0.));
#404=DIRECTION('ref_axis',(0.,0.,-1.));
#405=DIRECTION('center_axis',(0.,-1.,-1.22464679914735E-16));
#406=DIRECTION('ref_axis',(0.,-1.22464679914735E-16,1.));
#407=DIRECTION('center_axis',(1.,0.,0.));
#408=DIRECTION('ref_axis',(0.,0.,-1.));
#409=DIRECTION('center_axis',(1.,0.,0.));
#410=DIRECTION('ref_axis',(0.,1.,0.));
#411=DIRECTION('center_axis',(1.,0.,0.));
#412=DIRECTION('ref_axis',(0.,0.,-1.));
#413=DIRECTION('',(-0.959179341368024,0.282798499099276,3.46328276725604E-17));
#414=DIRECTION('center_axis',(1.,0.,0.));
#415=DIRECTION('ref_axis',(0.,0.,-1.));
#416=DIRECTION('center_axis',(1.,0.,0.));
#417=DIRECTION('ref_axis',(0.,0.,-1.));
#418=DIRECTION('center_axis',(1.,0.,0.));
#419=DIRECTION('ref_axis',(0.,0.,-1.));
#420=DIRECTION('center_axis',(0.,-1.,-1.22464679914735E-16));
#421=DIRECTION('ref_axis',(0.,-1.22464679914735E-16,1.));
#422=DIRECTION('center_axis',(1.,0.,0.));
#423=DIRECTION('ref_axis',(0.,0.,-1.));
#424=DIRECTION('center_axis',(0.,-1.,-1.22464679914735E-16));
#425=DIRECTION('ref_axis',(0.,-1.22464679914735E-16,1.));
#426=DIRECTION('center_axis',(1.,0.,0.));
#427=DIRECTION('ref_axis',(0.,0.,-1.));
#428=DIRECTION('center_axis',(1.,0.,0.));
#429=DIRECTION('ref_axis',(0.,0.,-1.));
#430=DIRECTION('center_axis',(1.,0.,0.));
#431=DIRECTION('ref_axis',(0.,1.,0.));
#432=DIRECTION('center_axis',(1.,0.,0.));
#433=DIRECTION('ref_axis',(0.,0.,-1.));
#434=DIRECTION('',(-1.,0.,0.));
#435=DIRECTION('center_axis',(1.,0.,0.));
#436=DIRECTION('ref_axis',(0.,0.,-1.));
#437=DIRECTION('center_axis',(1.,0.,0.));
#438=DIRECTION('ref_axis',(0.,0.,-1.));
#439=DIRECTION('center_axis',(0.,-1.,-1.22464679914735E-16));
#440=DIRECTION('ref_axis',(0.,-1.22464679914735E-16,1.));
#441=DIRECTION('center_axis',(1.,0.,0.));
#442=DIRECTION('ref_axis',(0.,0.,-1.));
#443=DIRECTION('center_axis',(-1.,0.,0.));
#444=DIRECTION('ref_axis',(0.,0.,1.));
#445=DIRECTION('center_axis',(1.,0.,0.));
#446=DIRECTION('ref_axis',(0.,0.,-1.));
#447=DIRECTION('center_axis',(1.,0.,0.));
#448=DIRECTION('ref_axis',(0.,0.,-1.));
#449=DIRECTION('center_axis',(1.,0.,0.));
#450=DIRECTION('ref_axis',(0.,0.,-1.));
#451=DIRECTION('center_axis',(1.,0.,0.));
#452=DIRECTION('ref_axis',(0.,0.,-1.));
#453=DIRECTION('center_axis',(0.,-1.,-1.22464679914735E-16));
#454=DIRECTION('ref_axis',(0.,-1.22464679914735E-16,1.));
#455=DIRECTION('center_axis',(1.,0.,0.));
#456=DIRECTION('ref_axis',(0.,1.,0.));
#457=DIRECTION('center_axis',(1.,0.,0.));
#458=DIRECTION('ref_axis',(0.,0.,-1.));
#459=DIRECTION('',(-1.,0.,0.));
#460=DIRECTION('center_axis',(1.,0.,0.));
#461=DIRECTION('ref_axis',(0.,0.,-1.));
#462=DIRECTION('center_axis',(1.,0.,0.));
#463=DIRECTION('ref_axis',(0.,0.,-1.));
#464=DIRECTION('center_axis',(1.,0.,0.));
#465=DIRECTION('ref_axis',(0.,0.,-1.));
#466=DIRECTION('center_axis',(0.,-1.,-1.22464679914735E-16));
#467=DIRECTION('ref_axis',(0.,-1.22464679914735E-16,1.));
#468=DIRECTION('center_axis',(1.,0.,0.));
#469=DIRECTION('ref_axis',(0.,0.,-1.));
#470=DIRECTION('center_axis',(1.,0.,0.));
#471=DIRECTION('ref_axis',(0.,0.,-1.));
#472=DIRECTION('center_axis',(1.,0.,0.));
#473=DIRECTION('ref_axis',(0.,0.,-1.));
#474=DIRECTION('center_axis',(0.,-1.,-1.22464679914735E-16));
#475=DIRECTION('ref_axis',(0.,-1.22464679914735E-16,1.));
#476=DIRECTION('center_axis',(1.,0.,0.));
#477=DIRECTION('ref_axis',(0.,0.,-1.));
#478=DIRECTION('center_axis',(1.,0.,0.));
#479=DIRECTION('ref_axis',(0.,0.,-1.));
#480=DIRECTION('center_axis',(1.,0.,0.));
#481=DIRECTION('ref_axis',(0.,1.,0.));
#482=DIRECTION('center_axis',(1.,0.,0.));
#483=DIRECTION('ref_axis',(0.,0.,-1.));
#484=DIRECTION('',(-1.,0.,0.));
#485=DIRECTION('center_axis',(1.,0.,0.));
#486=DIRECTION('ref_axis',(0.,0.,-1.));
#487=DIRECTION('center_axis',(1.,0.,0.));
#488=DIRECTION('ref_axis',(0.,0.,-1.));
#489=DIRECTION('center_axis',(0.,-1.,-1.22464679914735E-16));
#490=DIRECTION('ref_axis',(0.,-1.22464679914735E-16,1.));
#491=DIRECTION('center_axis',(1.,0.,0.));
#492=DIRECTION('ref_axis',(0.,0.,-1.));
#493=DIRECTION('center_axis',(1.,0.,0.));
#494=DIRECTION('ref_axis',(0.,0.,-1.));
#495=DIRECTION('center_axis',(1.,0.,0.));
#496=DIRECTION('ref_axis',(0.,0.,-1.));
#497=DIRECTION('center_axis',(1.,0.,0.));
#498=DIRECTION('ref_axis',(0.,0.,-1.));
#499=DIRECTION('center_axis',(0.,-1.,-1.22464679914735E-16));
#500=DIRECTION('ref_axis',(0.,-1.22464679914735E-16,1.));
#501=DIRECTION('center_axis',(-1.,0.,0.));
#502=DIRECTION('ref_axis',(0.,1.,0.));
#503=DIRECTION('center_axis',(1.,0.,0.));
#504=DIRECTION('ref_axis',(0.,0.,-1.));
#505=DIRECTION('',(-0.959179341368024,-0.282798499099276,-3.46328276725604E-17));
#506=DIRECTION('center_axis',(1.,0.,0.));
#507=DIRECTION('ref_axis',(0.,0.,-1.));
#508=DIRECTION('center_axis',(1.,0.,0.));
#509=DIRECTION('ref_axis',(0.,0.,-1.));
#510=DIRECTION('center_axis',(1.,0.,0.));
#511=DIRECTION('ref_axis',(0.,0.,-1.));
#512=DIRECTION('center_axis',(0.,-1.,-1.22464679914735E-16));
#513=DIRECTION('ref_axis',(0.,-1.22464679914735E-16,1.));
#514=DIRECTION('center_axis',(1.,0.,0.));
#515=DIRECTION('ref_axis',(0.,0.,-1.));
#516=DIRECTION('center_axis',(1.,0.,0.));
#517=DIRECTION('ref_axis',(0.,0.,-1.));
#518=DIRECTION('center_axis',(1.,0.,0.));
#519=DIRECTION('ref_axis',(0.,1.,0.));
#520=DIRECTION('',(-1.,0.,0.));
#521=DIRECTION('center_axis',(1.,0.,0.));
#522=DIRECTION('ref_axis',(0.,0.,-1.));
#523=DIRECTION('center_axis',(-1.,0.,0.));
#524=DIRECTION('ref_axis',(0.,0.,1.));
#525=CARTESIAN_POINT('',(0.,0.,0.));
#526=CARTESIAN_POINT('Origin',(-41.8000005634538,0.,0.));
#527=CARTESIAN_POINT('',(-41.8565602632736,-15.5422910685176,-1.90338170084766E-15));
#528=CARTESIAN_POINT('',(-41.8565602632736,-1.90338170084766E-15,15.5422910685176));
#529=CARTESIAN_POINT('Origin',(-41.8565602632736,0.,0.));
#530=CARTESIAN_POINT('Origin',(-41.8565602632736,0.,0.));
#531=CARTESIAN_POINT('',(-42.0000005634538,-1.87988857242412E-15,15.3504551167975));
#532=CARTESIAN_POINT('Origin',(-41.8000005634538,-1.87988858264337E-15,
15.350455200244));
#533=CARTESIAN_POINT('Origin',(-42.0000005634538,0.,0.));
#534=CARTESIAN_POINT('Origin',(-38.6403790059613,0.,0.));
#535=CARTESIAN_POINT('',(-35.4241977486489,-17.438769012052,-2.13563326516796E-15));
#536=CARTESIAN_POINT('',(-35.4241977486489,-2.13563326516796E-15,17.438769012052));
#537=CARTESIAN_POINT('Origin',(-35.4241977486489,0.,0.));
#538=CARTESIAN_POINT('',(-38.6403790059613,-16.4905300402848,-2.01950748300781E-15));
#539=CARTESIAN_POINT('Origin',(-35.4241977486489,0.,0.));
#540=CARTESIAN_POINT('Origin',(-35.,0.,0.));
#541=CARTESIAN_POINT('',(-33.510416792694,-1.98104629273837E-15,16.1764705882353));
#542=CARTESIAN_POINT('Origin',(-33.510416792694,0.,0.));
#543=CARTESIAN_POINT('Origin',(-35.,-1.95943487863577E-15,16.));
#544=CARTESIAN_POINT('Origin',(-33.3118056983866,0.,0.));
#545=CARTESIAN_POINT('',(-33.3118056983866,-1.95943487863577E-15,16.));
#546=CARTESIAN_POINT('Origin',(-33.3118056983866,-1.98392781461871E-15,
16.2));
#547=CARTESIAN_POINT('',(-33.3118056983866,-16.,-1.95943487863577E-15));
#548=CARTESIAN_POINT('Origin',(-33.3118056983866,0.,0.));
#549=CARTESIAN_POINT('Origin',(-33.3118056983866,0.,0.));
#550=CARTESIAN_POINT('Origin',(-23.5059028491933,0.,0.));
#551=CARTESIAN_POINT('',(-13.7,-16.,-1.95943487863577E-15));
#552=CARTESIAN_POINT('',(-13.7,-1.95943487863577E-15,16.));
#553=CARTESIAN_POINT('Origin',(-13.7,0.,0.));
#554=CARTESIAN_POINT('',(-23.5059028491933,-16.,-1.95943487863577E-15));
#555=CARTESIAN_POINT('Origin',(-13.7,0.,0.));
#556=CARTESIAN_POINT('Origin',(-13.7,0.,0.));
#557=CARTESIAN_POINT('',(-13.5,-1.98392781461871E-15,16.2));
#558=CARTESIAN_POINT('Origin',(-13.7,-1.98392781461871E-15,16.2));
#559=CARTESIAN_POINT('Origin',(-13.5,0.,0.));
#560=CARTESIAN_POINT('Origin',(-13.5,18.8,0.));
#561=CARTESIAN_POINT('',(-13.5,-2.30233598239702E-15,18.8));
#562=CARTESIAN_POINT('Origin',(-13.5,0.,0.));
#563=CARTESIAN_POINT('Origin',(-13.3,0.,0.));
#564=CARTESIAN_POINT('',(-13.3,-19.,-2.32682891837997E-15));
#565=CARTESIAN_POINT('',(-13.3,-2.32682891837997E-15,19.));
#566=CARTESIAN_POINT('Origin',(-13.3,0.,0.));
#567=CARTESIAN_POINT('Origin',(-13.3,0.,0.));
#568=CARTESIAN_POINT('Origin',(-13.3,-2.30233598239702E-15,18.8));
#569=CARTESIAN_POINT('Origin',(0.,0.,0.));
#570=CARTESIAN_POINT('',(13.3,-19.,-2.32682891837997E-15));
#571=CARTESIAN_POINT('',(13.3,-2.32682891837997E-15,19.));
#572=CARTESIAN_POINT('Origin',(13.3,0.,0.));
#573=CARTESIAN_POINT('',(0.,-19.,-2.32682891837997E-15));
#574=CARTESIAN_POINT('Origin',(13.3,0.,0.));
#575=CARTESIAN_POINT('Origin',(13.3,0.,0.));
#576=CARTESIAN_POINT('',(13.5,-2.30233598239702E-15,18.8));
#577=CARTESIAN_POINT('Origin',(13.5,0.,0.));
#578=CARTESIAN_POINT('Origin',(13.3,-2.30233598239702E-15,18.8));
#579=CARTESIAN_POINT('Origin',(13.5,16.2,0.));
#580=CARTESIAN_POINT('',(13.5,-1.98392781461871E-15,16.2));
#581=CARTESIAN_POINT('Origin',(13.5,0.,0.));
#582=CARTESIAN_POINT('Origin',(13.7,0.,0.));
#583=CARTESIAN_POINT('',(13.7,-1.95943487863577E-15,16.));
#584=CARTESIAN_POINT('Origin',(13.7,-1.98392781461871E-15,16.2));
#585=CARTESIAN_POINT('',(13.7,-16.,-1.95943487863577E-15));
#586=CARTESIAN_POINT('Origin',(13.7,0.,0.));
#587=CARTESIAN_POINT('Origin',(13.7,0.,0.));
#588=CARTESIAN_POINT('Origin',(23.5059028491933,0.,0.));
#589=CARTESIAN_POINT('',(33.3118056983866,-16.,-1.95943487863577E-15));
#590=CARTESIAN_POINT('',(33.3118056983866,-1.95943487863577E-15,16.));
#591=CARTESIAN_POINT('Origin',(33.3118056983866,0.,0.));
#592=CARTESIAN_POINT('',(23.5059028491933,-16.,-1.95943487863577E-15));
#593=CARTESIAN_POINT('Origin',(33.3118056983866,0.,0.));
#594=CARTESIAN_POINT('Origin',(33.3118056983866,0.,0.));
#595=CARTESIAN_POINT('',(33.510416792694,-1.98104629273837E-15,16.1764705882353));
#596=CARTESIAN_POINT('Origin',(33.3118056983866,-1.98392781461871E-15,16.2));
#597=CARTESIAN_POINT('Origin',(33.510416792694,0.,0.));
#598=CARTESIAN_POINT('Origin',(35.,0.,0.));
#599=CARTESIAN_POINT('',(35.4241977486489,-17.438769012052,-2.13563326516796E-15));
#600=CARTESIAN_POINT('',(35.4241977486489,-2.13563326516796E-15,17.438769012052));
#601=CARTESIAN_POINT('Origin',(35.4241977486489,0.,0.));
#602=CARTESIAN_POINT('Origin',(35.4241977486489,0.,0.));
#603=CARTESIAN_POINT('Origin',(35.,-1.95943487863577E-15,16.));
#604=CARTESIAN_POINT('Origin',(38.6403790059613,0.,0.));
#605=CARTESIAN_POINT('',(41.8565602632736,-15.5422910685176,-1.90338170084766E-15));
#606=CARTESIAN_POINT('',(41.8565602632736,-1.90338170084766E-15,15.5422910685176));
#607=CARTESIAN_POINT('Origin',(41.8565602632736,0.,0.));
#608=CARTESIAN_POINT('',(38.6403790059613,-16.4905300402848,-2.01950748300781E-15));
#609=CARTESIAN_POINT('Origin',(41.8565602632736,0.,0.));
#610=CARTESIAN_POINT('Origin',(41.8000005634538,0.,0.));
#611=CARTESIAN_POINT('',(42.0000005634538,-1.87988857242412E-15,15.3504551167975));
#612=CARTESIAN_POINT('Origin',(42.0000005634538,0.,0.));
#613=CARTESIAN_POINT('Origin',(41.8000005634538,-1.87988858264337E-15,15.350455200244));
#614=CARTESIAN_POINT('Origin',(42.,14.,0.));
#615=CARTESIAN_POINT('',(42.,-14.,-1.71450551880629E-15));
#616=CARTESIAN_POINT('Origin',(42.,0.,0.));
#617=CARTESIAN_POINT('Origin',(0.,0.,0.));
#618=CARTESIAN_POINT('',(-42.,-14.,-1.71450551880629E-15));
#619=CARTESIAN_POINT('',(0.,-14.,-1.71450551880629E-15));
#620=CARTESIAN_POINT('Origin',(-42.,0.,0.));
#621=CARTESIAN_POINT('Origin',(-42.0000005634538,15.3504551167975,0.));
#622=UNCERTAINTY_MEASURE_WITH_UNIT(LENGTH_MEASURE(0.01),#626,
'DISTANCE_ACCURACY_VALUE',
'Maximum model space distance between geometric entities at asserted c
onnectivities');
#623=UNCERTAINTY_MEASURE_WITH_UNIT(LENGTH_MEASURE(0.01),#626,
'DISTANCE_ACCURACY_VALUE',
'Maximum model space distance between geometric entities at asserted c
onnectivities');
#624=(
GEOMETRIC_REPRESENTATION_CONTEXT(3)
GLOBAL_UNCERTAINTY_ASSIGNED_CONTEXT((#622))
GLOBAL_UNIT_ASSIGNED_CONTEXT((#626,#628,#629))
REPRESENTATION_CONTEXT('','3D')
);
#625=(
GEOMETRIC_REPRESENTATION_CONTEXT(3)
GLOBAL_UNCERTAINTY_ASSIGNED_CONTEXT((#623))
GLOBAL_UNIT_ASSIGNED_CONTEXT((#626,#628,#629))
REPRESENTATION_CONTEXT('','3D')
);
#626=(
LENGTH_UNIT()
NAMED_UNIT(*)
SI_UNIT(.MILLI.,.METRE.)
);
#627=(
LENGTH_UNIT()
NAMED_UNIT(*)
SI_UNIT($,.METRE.)
);
#628=(
NAMED_UNIT(*)
PLANE_ANGLE_UNIT()
SI_UNIT($,.RADIAN.)
);
#629=(
NAMED_UNIT(*)
SI_UNIT($,.STERADIAN.)
SOLID_ANGLE_UNIT()
);
#630=SHAPE_DEFINITION_REPRESENTATION(#631,#632);
#631=PRODUCT_DEFINITION_SHAPE('',$,#634);
#632=SHAPE_REPRESENTATION('',(#336),#624);
#633=PRODUCT_DEFINITION_CONTEXT('part definition',#638,'design');
#634=PRODUCT_DEFINITION('VW_1K0 121 087R for 888.2',
'VW_1K0 121 087R for 888.2 v1',#635,#633);
#635=PRODUCT_DEFINITION_FORMATION('',$,#640);
#636=PRODUCT_RELATED_PRODUCT_CATEGORY('VW_1K0 121 087R for 888.2 v1',
'VW_1K0 121 087R for 888.2 v1',(#640));
#637=APPLICATION_PROTOCOL_DEFINITION('international standard',
'automotive_design',2009,#638);
#638=APPLICATION_CONTEXT(
'Core Data for Automotive Mechanical Design Process');
#639=PRODUCT_CONTEXT('part definition',#638,'mechanical');
#640=PRODUCT('VW_1K0 121 087R for 888.2','VW_1K0 121 087R for 888.2 v1',
$,(#639));
#641=PRESENTATION_STYLE_ASSIGNMENT((#642));
#642=SURFACE_STYLE_USAGE(.BOTH.,#643);
#643=SURFACE_SIDE_STYLE('',(#644));
#644=SURFACE_STYLE_FILL_AREA(#645);
#645=FILL_AREA_STYLE('Steel - Satin',(#646));
#646=FILL_AREA_STYLE_COLOUR('Steel - Satin',#647);
#647=COLOUR_RGB('Steel - Satin',0.627450980392157,0.627450980392157,0.627450980392157);
ENDSEC;
END-ISO-10303-21;
