ISO-10303-21;
HEADER;
/* Generated by software containing ST-Developer
 * from STEP Tools, Inc. (www.steptools.com) 
 */

FILE_DESCRIPTION(
/* description */ (''),
/* implementation_level */ '2;1');

FILE_NAME(
/* name */ 'VW_3D0 819 423 for 888.2.step',
/* time_stamp */ '2024-10-01T15:57:23+07:00',
/* author */ (''),
/* organization */ (''),
/* preprocessor_version */ 'ST-DEVELOPER v20',
/* originating_system */ 'Autodesk Translation Framework v13.20.0.188',

/* authorisation */ '');

FILE_SCHEMA (('AUTOMOTIVE_DESIGN { 1 0 10303 214 3 1 1 }'));
ENDSEC;

DATA;
#10=MECHANICAL_DESIGN_GEOMETRIC_PRESENTATION_REPRESENTATION('',(#13),#625);
#11=SHAPE_REPRESENTATION_RELATIONSHIP('SRR','None',#632,#12);
#12=ADVANCED_BREP_SHAPE_REPRESENTATION('',(#14),#624);
#13=STYLED_ITEM('',(#641),#14);
#14=MANIFOLD_SOLID_BREP('Body1',#323);
#15=CYLINDRICAL_SURFACE('',#354,10.);
#16=CYLINDRICAL_SURFACE('',#366,14.);
#17=CYLINDRICAL_SURFACE('',#378,10.);
#18=CYLINDRICAL_SURFACE('',#396,8.);
#19=LINE('',#541,#25);
#20=LINE('',#557,#26);
#21=LINE('',#576,#27);
#22=LINE('',#595,#28);
#23=LINE('',#611,#29);
#24=LINE('',#621,#30);
#25=VECTOR('',#417,10.6322296763115);
#26=VECTOR('',#438,10.);
#27=VECTOR('',#463,14.);
#28=VECTOR('',#488,10.);
#29=VECTOR('',#509,10.6322296763115);
#30=VECTOR('',#524,8.);
#31=CONICAL_SURFACE('',#344,10.6322296763115,0.139068550498221);
#32=CONICAL_SURFACE('',#388,10.6322296763115,0.139068550498221);
#33=TOROIDAL_SURFACE('',#340,9.82604469981861,0.199999999999979);
#34=TOROIDAL_SURFACE('',#347,10.25,1.);
#35=TOROIDAL_SURFACE('',#350,10.25,0.249999999999999);
#36=TOROIDAL_SURFACE('',#357,10.2,0.2);
#37=TOROIDAL_SURFACE('',#362,13.8,0.2);
#38=TOROIDAL_SURFACE('',#369,13.8,0.2);
#39=TOROIDAL_SURFACE('',#374,10.2,0.2);
#40=TOROIDAL_SURFACE('',#381,10.25,0.249999999999999);
#41=TOROIDAL_SURFACE('',#384,10.25,1.);
#42=TOROIDAL_SURFACE('',#391,9.82604469981861,0.199999999999978);
#43=FACE_BOUND('',#68,.T.);
#44=FACE_BOUND('',#76,.T.);
#45=FACE_BOUND('',#81,.T.);
#46=FACE_BOUND('',#89,.T.);
#47=FACE_OUTER_BOUND('',#67,.T.);
#48=FACE_OUTER_BOUND('',#69,.T.);
#49=FACE_OUTER_BOUND('',#70,.T.);
#50=FACE_OUTER_BOUND('',#71,.T.);
#51=FACE_OUTER_BOUND('',#72,.T.);
#52=FACE_OUTER_BOUND('',#73,.T.);
#53=FACE_OUTER_BOUND('',#74,.T.);
#54=FACE_OUTER_BOUND('',#75,.T.);
#55=FACE_OUTER_BOUND('',#77,.T.);
#56=FACE_OUTER_BOUND('',#78,.T.);
#57=FACE_OUTER_BOUND('',#79,.T.);
#58=FACE_OUTER_BOUND('',#80,.T.);
#59=FACE_OUTER_BOUND('',#82,.T.);
#60=FACE_OUTER_BOUND('',#83,.T.);
#61=FACE_OUTER_BOUND('',#84,.T.);
#62=FACE_OUTER_BOUND('',#85,.T.);
#63=FACE_OUTER_BOUND('',#86,.T.);
#64=FACE_OUTER_BOUND('',#87,.T.);
#65=FACE_OUTER_BOUND('',#88,.T.);
#66=FACE_OUTER_BOUND('',#90,.T.);
#67=EDGE_LOOP('',(#207));
#68=EDGE_LOOP('',(#208));
#69=EDGE_LOOP('',(#209,#210,#211,#212,#213));
#70=EDGE_LOOP('',(#214,#215,#216,#217,#218,#219));
#71=EDGE_LOOP('',(#220,#221,#222,#223,#224));
#72=EDGE_LOOP('',(#225,#226,#227,#228,#229));
#73=EDGE_LOOP('',(#230,#231,#232,#233,#234,#235));
#74=EDGE_LOOP('',(#236,#237,#238,#239,#240));
#75=EDGE_LOOP('',(#241));
#76=EDGE_LOOP('',(#242));
#77=EDGE_LOOP('',(#243,#244,#245,#246,#247));
#78=EDGE_LOOP('',(#248,#249,#250,#251,#252,#253));
#79=EDGE_LOOP('',(#254,#255,#256,#257,#258));
#80=EDGE_LOOP('',(#259));
#81=EDGE_LOOP('',(#260));
#82=EDGE_LOOP('',(#261,#262,#263,#264,#265));
#83=EDGE_LOOP('',(#266,#267,#268,#269,#270,#271));
#84=EDGE_LOOP('',(#272,#273,#274,#275,#276));
#85=EDGE_LOOP('',(#277,#278,#279,#280,#281));
#86=EDGE_LOOP('',(#282,#283,#284,#285,#286,#287));
#87=EDGE_LOOP('',(#288,#289,#290,#291,#292));
#88=EDGE_LOOP('',(#293));
#89=EDGE_LOOP('',(#294));
#90=EDGE_LOOP('',(#295,#296,#297,#298));
#91=CIRCLE('',#338,9.8260446998186);
#92=CIRCLE('',#339,8.);
#93=CIRCLE('',#341,10.0241138086193);
#94=CIRCLE('',#342,10.0241138086193);
#95=CIRCLE('',#343,0.199999999999979);
#96=CIRCLE('',#345,11.2403455440037);
#97=CIRCLE('',#346,11.2403455440037);
#98=CIRCLE('',#348,10.25);
#99=CIRCLE('',#349,1.);
#100=CIRCLE('',#351,0.249999999999999);
#101=CIRCLE('',#352,10.);
#102=CIRCLE('',#353,10.);
#103=CIRCLE('',#355,10.);
#104=CIRCLE('',#356,10.);
#105=CIRCLE('',#358,0.2);
#106=CIRCLE('',#359,10.2);
#107=CIRCLE('',#361,13.8);
#108=CIRCLE('',#363,14.);
#109=CIRCLE('',#364,14.);
#110=CIRCLE('',#365,0.2);
#111=CIRCLE('',#367,14.);
#112=CIRCLE('',#368,14.);
#113=CIRCLE('',#370,13.8);
#114=CIRCLE('',#371,0.2);
#115=CIRCLE('',#373,10.2);
#116=CIRCLE('',#375,0.2);
#117=CIRCLE('',#376,10.);
#118=CIRCLE('',#377,10.);
#119=CIRCLE('',#379,10.);
#120=CIRCLE('',#380,10.);
#121=CIRCLE('',#382,0.249999999999999);
#122=CIRCLE('',#383,10.25);
#123=CIRCLE('',#385,11.2403455440037);
#124=CIRCLE('',#386,11.2403455440037);
#125=CIRCLE('',#387,1.);
#126=CIRCLE('',#389,10.0241138086193);
#127=CIRCLE('',#390,10.0241138086193);
#128=CIRCLE('',#392,9.8260446998186);
#129=CIRCLE('',#393,0.199999999999978);
#130=CIRCLE('',#395,8.);
#131=VERTEX_POINT('',#527);
#132=VERTEX_POINT('',#529);
#133=VERTEX_POINT('',#532);
#134=VERTEX_POINT('',#533);
#135=VERTEX_POINT('',#538);
#136=VERTEX_POINT('',#539);
#137=VERTEX_POINT('',#544);
#138=VERTEX_POINT('',#548);
#139=VERTEX_POINT('',#550);
#140=VERTEX_POINT('',#554);
#141=VERTEX_POINT('',#555);
#142=VERTEX_POINT('',#560);
#143=VERTEX_POINT('',#564);
#144=VERTEX_POINT('',#567);
#145=VERTEX_POINT('',#568);
#146=VERTEX_POINT('',#573);
#147=VERTEX_POINT('',#574);
#148=VERTEX_POINT('',#579);
#149=VERTEX_POINT('',#583);
#150=VERTEX_POINT('',#586);
#151=VERTEX_POINT('',#588);
#152=VERTEX_POINT('',#592);
#153=VERTEX_POINT('',#593);
#154=VERTEX_POINT('',#598);
#155=VERTEX_POINT('',#602);
#156=VERTEX_POINT('',#603);
#157=VERTEX_POINT('',#608);
#158=VERTEX_POINT('',#609);
#159=VERTEX_POINT('',#614);
#160=VERTEX_POINT('',#618);
#161=EDGE_CURVE('',#131,#131,#91,.T.);
#162=EDGE_CURVE('',#132,#132,#92,.T.);
#163=EDGE_CURVE('',#133,#134,#93,.T.);
#164=EDGE_CURVE('',#134,#133,#94,.T.);
#165=EDGE_CURVE('',#134,#131,#95,.T.);
#166=EDGE_CURVE('',#135,#136,#96,.T.);
#167=EDGE_CURVE('',#135,#133,#19,.T.);
#168=EDGE_CURVE('',#136,#135,#97,.T.);
#169=EDGE_CURVE('',#137,#137,#98,.T.);
#170=EDGE_CURVE('',#137,#136,#99,.T.);
#171=EDGE_CURVE('',#137,#138,#100,.T.);
#172=EDGE_CURVE('',#139,#138,#101,.T.);
#173=EDGE_CURVE('',#138,#139,#102,.T.);
#174=EDGE_CURVE('',#140,#141,#103,.T.);
#175=EDGE_CURVE('',#140,#139,#20,.T.);
#176=EDGE_CURVE('',#141,#140,#104,.T.);
#177=EDGE_CURVE('',#141,#142,#105,.T.);
#178=EDGE_CURVE('',#142,#142,#106,.T.);
#179=EDGE_CURVE('',#143,#143,#107,.T.);
#180=EDGE_CURVE('',#144,#145,#108,.T.);
#181=EDGE_CURVE('',#145,#144,#109,.T.);
#182=EDGE_CURVE('',#145,#143,#110,.T.);
#183=EDGE_CURVE('',#146,#147,#111,.T.);
#184=EDGE_CURVE('',#146,#144,#21,.T.);
#185=EDGE_CURVE('',#147,#146,#112,.T.);
#186=EDGE_CURVE('',#148,#148,#113,.T.);
#187=EDGE_CURVE('',#148,#147,#114,.T.);
#188=EDGE_CURVE('',#149,#149,#115,.T.);
#189=EDGE_CURVE('',#149,#150,#116,.T.);
#190=EDGE_CURVE('',#151,#150,#117,.T.);
#191=EDGE_CURVE('',#150,#151,#118,.T.);
#192=EDGE_CURVE('',#152,#153,#119,.T.);
#193=EDGE_CURVE('',#152,#151,#22,.T.);
#194=EDGE_CURVE('',#153,#152,#120,.T.);
#195=EDGE_CURVE('',#153,#154,#121,.T.);
#196=EDGE_CURVE('',#154,#154,#122,.T.);
#197=EDGE_CURVE('',#155,#156,#123,.T.);
#198=EDGE_CURVE('',#156,#155,#124,.T.);
#199=EDGE_CURVE('',#156,#154,#125,.T.);
#200=EDGE_CURVE('',#157,#158,#126,.T.);
#201=EDGE_CURVE('',#157,#155,#23,.T.);
#202=EDGE_CURVE('',#158,#157,#127,.T.);
#203=EDGE_CURVE('',#159,#159,#128,.T.);
#204=EDGE_CURVE('',#159,#158,#129,.T.);
#205=EDGE_CURVE('',#160,#160,#130,.T.);
#206=EDGE_CURVE('',#160,#132,#24,.T.);
#207=ORIENTED_EDGE('',*,*,#161,.F.);
#208=ORIENTED_EDGE('',*,*,#162,.T.);
#209=ORIENTED_EDGE('',*,*,#163,.F.);
#210=ORIENTED_EDGE('',*,*,#164,.F.);
#211=ORIENTED_EDGE('',*,*,#165,.T.);
#212=ORIENTED_EDGE('',*,*,#161,.T.);
#213=ORIENTED_EDGE('',*,*,#165,.F.);
#214=ORIENTED_EDGE('',*,*,#166,.F.);
#215=ORIENTED_EDGE('',*,*,#167,.T.);
#216=ORIENTED_EDGE('',*,*,#163,.T.);
#217=ORIENTED_EDGE('',*,*,#164,.T.);
#218=ORIENTED_EDGE('',*,*,#167,.F.);
#219=ORIENTED_EDGE('',*,*,#168,.F.);
#220=ORIENTED_EDGE('',*,*,#169,.F.);
#221=ORIENTED_EDGE('',*,*,#170,.T.);
#222=ORIENTED_EDGE('',*,*,#168,.T.);
#223=ORIENTED_EDGE('',*,*,#166,.T.);
#224=ORIENTED_EDGE('',*,*,#170,.F.);
#225=ORIENTED_EDGE('',*,*,#169,.T.);
#226=ORIENTED_EDGE('',*,*,#171,.T.);
#227=ORIENTED_EDGE('',*,*,#172,.F.);
#228=ORIENTED_EDGE('',*,*,#173,.F.);
#229=ORIENTED_EDGE('',*,*,#171,.F.);
#230=ORIENTED_EDGE('',*,*,#174,.F.);
#231=ORIENTED_EDGE('',*,*,#175,.T.);
#232=ORIENTED_EDGE('',*,*,#172,.T.);
#233=ORIENTED_EDGE('',*,*,#173,.T.);
#234=ORIENTED_EDGE('',*,*,#175,.F.);
#235=ORIENTED_EDGE('',*,*,#176,.F.);
#236=ORIENTED_EDGE('',*,*,#174,.T.);
#237=ORIENTED_EDGE('',*,*,#177,.T.);
#238=ORIENTED_EDGE('',*,*,#178,.F.);
#239=ORIENTED_EDGE('',*,*,#177,.F.);
#240=ORIENTED_EDGE('',*,*,#176,.T.);
#241=ORIENTED_EDGE('',*,*,#179,.F.);
#242=ORIENTED_EDGE('',*,*,#178,.T.);
#243=ORIENTED_EDGE('',*,*,#180,.F.);
#244=ORIENTED_EDGE('',*,*,#181,.F.);
#245=ORIENTED_EDGE('',*,*,#182,.T.);
#246=ORIENTED_EDGE('',*,*,#179,.T.);
#247=ORIENTED_EDGE('',*,*,#182,.F.);
#248=ORIENTED_EDGE('',*,*,#183,.F.);
#249=ORIENTED_EDGE('',*,*,#184,.T.);
#250=ORIENTED_EDGE('',*,*,#180,.T.);
#251=ORIENTED_EDGE('',*,*,#181,.T.);
#252=ORIENTED_EDGE('',*,*,#184,.F.);
#253=ORIENTED_EDGE('',*,*,#185,.F.);
#254=ORIENTED_EDGE('',*,*,#186,.F.);
#255=ORIENTED_EDGE('',*,*,#187,.T.);
#256=ORIENTED_EDGE('',*,*,#185,.T.);
#257=ORIENTED_EDGE('',*,*,#183,.T.);
#258=ORIENTED_EDGE('',*,*,#187,.F.);
#259=ORIENTED_EDGE('',*,*,#186,.T.);
#260=ORIENTED_EDGE('',*,*,#188,.F.);
#261=ORIENTED_EDGE('',*,*,#188,.T.);
#262=ORIENTED_EDGE('',*,*,#189,.T.);
#263=ORIENTED_EDGE('',*,*,#190,.F.);
#264=ORIENTED_EDGE('',*,*,#191,.F.);
#265=ORIENTED_EDGE('',*,*,#189,.F.);
#266=ORIENTED_EDGE('',*,*,#192,.F.);
#267=ORIENTED_EDGE('',*,*,#193,.T.);
#268=ORIENTED_EDGE('',*,*,#190,.T.);
#269=ORIENTED_EDGE('',*,*,#191,.T.);
#270=ORIENTED_EDGE('',*,*,#193,.F.);
#271=ORIENTED_EDGE('',*,*,#194,.F.);
#272=ORIENTED_EDGE('',*,*,#192,.T.);
#273=ORIENTED_EDGE('',*,*,#195,.T.);
#274=ORIENTED_EDGE('',*,*,#196,.F.);
#275=ORIENTED_EDGE('',*,*,#195,.F.);
#276=ORIENTED_EDGE('',*,*,#194,.T.);
#277=ORIENTED_EDGE('',*,*,#197,.F.);
#278=ORIENTED_EDGE('',*,*,#198,.F.);
#279=ORIENTED_EDGE('',*,*,#199,.T.);
#280=ORIENTED_EDGE('',*,*,#196,.T.);
#281=ORIENTED_EDGE('',*,*,#199,.F.);
#282=ORIENTED_EDGE('',*,*,#200,.F.);
#283=ORIENTED_EDGE('',*,*,#201,.T.);
#284=ORIENTED_EDGE('',*,*,#197,.T.);
#285=ORIENTED_EDGE('',*,*,#198,.T.);
#286=ORIENTED_EDGE('',*,*,#201,.F.);
#287=ORIENTED_EDGE('',*,*,#202,.F.);
#288=ORIENTED_EDGE('',*,*,#203,.F.);
#289=ORIENTED_EDGE('',*,*,#204,.T.);
#290=ORIENTED_EDGE('',*,*,#202,.T.);
#291=ORIENTED_EDGE('',*,*,#200,.T.);
#292=ORIENTED_EDGE('',*,*,#204,.F.);
#293=ORIENTED_EDGE('',*,*,#203,.T.);
#294=ORIENTED_EDGE('',*,*,#205,.F.);
#295=ORIENTED_EDGE('',*,*,#205,.T.);
#296=ORIENTED_EDGE('',*,*,#206,.T.);
#297=ORIENTED_EDGE('',*,*,#162,.F.);
#298=ORIENTED_EDGE('',*,*,#206,.F.);
#299=PLANE('',#337);
#300=PLANE('',#360);
#301=PLANE('',#372);
#302=PLANE('',#394);
#303=ADVANCED_FACE('',(#47,#43),#299,.T.);
#304=ADVANCED_FACE('',(#48),#33,.T.);
#305=ADVANCED_FACE('',(#49),#31,.T.);
#306=ADVANCED_FACE('',(#50),#34,.T.);
#307=ADVANCED_FACE('',(#51),#35,.F.);
#308=ADVANCED_FACE('',(#52),#15,.T.);
#309=ADVANCED_FACE('',(#53),#36,.F.);
#310=ADVANCED_FACE('',(#54,#44),#300,.T.);
#311=ADVANCED_FACE('',(#55),#37,.T.);
#312=ADVANCED_FACE('',(#56),#16,.T.);
#313=ADVANCED_FACE('',(#57),#38,.T.);
#314=ADVANCED_FACE('',(#58,#45),#301,.T.);
#315=ADVANCED_FACE('',(#59),#39,.F.);
#316=ADVANCED_FACE('',(#60),#17,.T.);
#317=ADVANCED_FACE('',(#61),#40,.F.);
#318=ADVANCED_FACE('',(#62),#41,.T.);
#319=ADVANCED_FACE('',(#63),#32,.T.);
#320=ADVANCED_FACE('',(#64),#42,.T.);
#321=ADVANCED_FACE('',(#65,#46),#302,.T.);
#322=ADVANCED_FACE('',(#66),#18,.F.);
#323=CLOSED_SHELL('',(#303,#304,#305,#306,#307,#308,#309,#310,#311,#312,
#313,#314,#315,#316,#317,#318,#319,#320,#321,#322));
#324=DERIVED_UNIT_ELEMENT(#326,1.);
#325=DERIVED_UNIT_ELEMENT(#627,-3.);
#326=(
MASS_UNIT()
NAMED_UNIT(*)
SI_UNIT(.KILO.,.GRAM.)
);
#327=DERIVED_UNIT((#324,#325));
#328=MEASURE_REPRESENTATION_ITEM('density measure',
POSITIVE_RATIO_MEASURE(7850.),#327);
#329=PROPERTY_DEFINITION_REPRESENTATION(#334,#331);
#330=PROPERTY_DEFINITION_REPRESENTATION(#335,#332);
#331=REPRESENTATION('material name',(#333),#624);
#332=REPRESENTATION('density',(#328),#624);
#333=DESCRIPTIVE_REPRESENTATION_ITEM('Steel','Steel');
#334=PROPERTY_DEFINITION('material property','material name',#634);
#335=PROPERTY_DEFINITION('material property','density of part',#634);
#336=AXIS2_PLACEMENT_3D('',#525,#397,#398);
#337=AXIS2_PLACEMENT_3D('',#526,#399,#400);
#338=AXIS2_PLACEMENT_3D('',#528,#401,#402);
#339=AXIS2_PLACEMENT_3D('',#530,#403,#404);
#340=AXIS2_PLACEMENT_3D('',#531,#405,#406);
#341=AXIS2_PLACEMENT_3D('',#534,#407,#408);
#342=AXIS2_PLACEMENT_3D('',#535,#409,#410);
#343=AXIS2_PLACEMENT_3D('',#536,#411,#412);
#344=AXIS2_PLACEMENT_3D('',#537,#413,#414);
#345=AXIS2_PLACEMENT_3D('',#540,#415,#416);
#346=AXIS2_PLACEMENT_3D('',#542,#418,#419);
#347=AXIS2_PLACEMENT_3D('',#543,#420,#421);
#348=AXIS2_PLACEMENT_3D('',#545,#422,#423);
#349=AXIS2_PLACEMENT_3D('',#546,#424,#425);
#350=AXIS2_PLACEMENT_3D('',#547,#426,#427);
#351=AXIS2_PLACEMENT_3D('',#549,#428,#429);
#352=AXIS2_PLACEMENT_3D('',#551,#430,#431);
#353=AXIS2_PLACEMENT_3D('',#552,#432,#433);
#354=AXIS2_PLACEMENT_3D('',#553,#434,#435);
#355=AXIS2_PLACEMENT_3D('',#556,#436,#437);
#356=AXIS2_PLACEMENT_3D('',#558,#439,#440);
#357=AXIS2_PLACEMENT_3D('',#559,#441,#442);
#358=AXIS2_PLACEMENT_3D('',#561,#443,#444);
#359=AXIS2_PLACEMENT_3D('',#562,#445,#446);
#360=AXIS2_PLACEMENT_3D('',#563,#447,#448);
#361=AXIS2_PLACEMENT_3D('',#565,#449,#450);
#362=AXIS2_PLACEMENT_3D('',#566,#451,#452);
#363=AXIS2_PLACEMENT_3D('',#569,#453,#454);
#364=AXIS2_PLACEMENT_3D('',#570,#455,#456);
#365=AXIS2_PLACEMENT_3D('',#571,#457,#458);
#366=AXIS2_PLACEMENT_3D('',#572,#459,#460);
#367=AXIS2_PLACEMENT_3D('',#575,#461,#462);
#368=AXIS2_PLACEMENT_3D('',#577,#464,#465);
#369=AXIS2_PLACEMENT_3D('',#578,#466,#467);
#370=AXIS2_PLACEMENT_3D('',#580,#468,#469);
#371=AXIS2_PLACEMENT_3D('',#581,#470,#471);
#372=AXIS2_PLACEMENT_3D('',#582,#472,#473);
#373=AXIS2_PLACEMENT_3D('',#584,#474,#475);
#374=AXIS2_PLACEMENT_3D('',#585,#476,#477);
#375=AXIS2_PLACEMENT_3D('',#587,#478,#479);
#376=AXIS2_PLACEMENT_3D('',#589,#480,#481);
#377=AXIS2_PLACEMENT_3D('',#590,#482,#483);
#378=AXIS2_PLACEMENT_3D('',#591,#484,#485);
#379=AXIS2_PLACEMENT_3D('',#594,#486,#487);
#380=AXIS2_PLACEMENT_3D('',#596,#489,#490);
#381=AXIS2_PLACEMENT_3D('',#597,#491,#492);
#382=AXIS2_PLACEMENT_3D('',#599,#493,#494);
#383=AXIS2_PLACEMENT_3D('',#600,#495,#496);
#384=AXIS2_PLACEMENT_3D('',#601,#497,#498);
#385=AXIS2_PLACEMENT_3D('',#604,#499,#500);
#386=AXIS2_PLACEMENT_3D('',#605,#501,#502);
#387=AXIS2_PLACEMENT_3D('',#606,#503,#504);
#388=AXIS2_PLACEMENT_3D('',#607,#505,#506);
#389=AXIS2_PLACEMENT_3D('',#610,#507,#508);
#390=AXIS2_PLACEMENT_3D('',#612,#510,#511);
#391=AXIS2_PLACEMENT_3D('',#613,#512,#513);
#392=AXIS2_PLACEMENT_3D('',#615,#514,#515);
#393=AXIS2_PLACEMENT_3D('',#616,#516,#517);
#394=AXIS2_PLACEMENT_3D('',#617,#518,#519);
#395=AXIS2_PLACEMENT_3D('',#619,#520,#521);
#396=AXIS2_PLACEMENT_3D('',#620,#522,#523);
#397=DIRECTION('axis',(0.,0.,1.));
#398=DIRECTION('refdir',(1.,0.,0.));
#399=DIRECTION('center_axis',(-1.,0.,0.));
#400=DIRECTION('ref_axis',(0.,0.,1.));
#401=DIRECTION('center_axis',(1.,0.,0.));
#402=DIRECTION('ref_axis',(0.,0.,-1.));
#403=DIRECTION('center_axis',(1.,0.,0.));
#404=DIRECTION('ref_axis',(0.,0.,-1.));
#405=DIRECTION('center_axis',(1.,0.,0.));
#406=DIRECTION('ref_axis',(0.,0.,-1.));
#407=DIRECTION('center_axis',(1.,0.,0.));
#408=DIRECTION('ref_axis',(0.,0.,-1.));
#409=DIRECTION('center_axis',(1.,0.,0.));
#410=DIRECTION('ref_axis',(0.,0.,-1.));
#411=DIRECTION('center_axis',(0.,-1.,-1.22464679914735E-16));
#412=DIRECTION('ref_axis',(0.,-1.22464679914735E-16,1.));
#413=DIRECTION('center_axis',(1.,0.,0.));
#414=DIRECTION('ref_axis',(0.,1.,0.));
#415=DIRECTION('center_axis',(1.,0.,0.));
#416=DIRECTION('ref_axis',(0.,0.,-1.));
#417=DIRECTION('',(-0.99034554400369,0.138620718047609,1.69761418652512E-17));
#418=DIRECTION('center_axis',(1.,0.,0.));
#419=DIRECTION('ref_axis',(0.,0.,-1.));
#420=DIRECTION('center_axis',(1.,0.,0.));
#421=DIRECTION('ref_axis',(0.,0.,-1.));
#422=DIRECTION('center_axis',(1.,0.,0.));
#423=DIRECTION('ref_axis',(0.,0.,-1.));
#424=DIRECTION('center_axis',(0.,-1.,-1.22464679914735E-16));
#425=DIRECTION('ref_axis',(0.,-1.22464679914735E-16,1.));
#426=DIRECTION('center_axis',(1.,0.,0.));
#427=DIRECTION('ref_axis',(0.,0.,-1.));
#428=DIRECTION('center_axis',(0.,-1.,-1.22464679914735E-16));
#429=DIRECTION('ref_axis',(0.,-1.22464679914735E-16,1.));
#430=DIRECTION('center_axis',(1.,0.,0.));
#431=DIRECTION('ref_axis',(0.,0.,-1.));
#432=DIRECTION('center_axis',(1.,0.,0.));
#433=DIRECTION('ref_axis',(0.,0.,-1.));
#434=DIRECTION('center_axis',(1.,0.,0.));
#435=DIRECTION('ref_axis',(0.,1.,0.));
#436=DIRECTION('center_axis',(1.,0.,0.));
#437=DIRECTION('ref_axis',(0.,0.,-1.));
#438=DIRECTION('',(-1.,0.,0.));
#439=DIRECTION('center_axis',(1.,0.,0.));
#440=DIRECTION('ref_axis',(0.,0.,-1.));
#441=DIRECTION('center_axis',(1.,0.,0.));
#442=DIRECTION('ref_axis',(0.,0.,-1.));
#443=DIRECTION('center_axis',(0.,-1.,-1.22464679914735E-16));
#444=DIRECTION('ref_axis',(0.,-1.22464679914735E-16,1.));
#445=DIRECTION('center_axis',(1.,0.,0.));
#446=DIRECTION('ref_axis',(0.,0.,-1.));
#447=DIRECTION('center_axis',(-1.,0.,0.));
#448=DIRECTION('ref_axis',(0.,0.,1.));
#449=DIRECTION('center_axis',(1.,0.,0.));
#450=DIRECTION('ref_axis',(0.,0.,-1.));
#451=DIRECTION('center_axis',(1.,0.,0.));
#452=DIRECTION('ref_axis',(0.,0.,-1.));
#453=DIRECTION('center_axis',(1.,0.,0.));
#454=DIRECTION('ref_axis',(0.,0.,-1.));
#455=DIRECTION('center_axis',(1.,0.,0.));
#456=DIRECTION('ref_axis',(0.,0.,-1.));
#457=DIRECTION('center_axis',(0.,-1.,-1.22464679914735E-16));
#458=DIRECTION('ref_axis',(0.,-1.22464679914735E-16,1.));
#459=DIRECTION('center_axis',(1.,0.,0.));
#460=DIRECTION('ref_axis',(0.,1.,0.));
#461=DIRECTION('center_axis',(1.,0.,0.));
#462=DIRECTION('ref_axis',(0.,0.,-1.));
#463=DIRECTION('',(-1.,0.,0.));
#464=DIRECTION('center_axis',(1.,0.,0.));
#465=DIRECTION('ref_axis',(0.,0.,-1.));
#466=DIRECTION('center_axis',(1.,0.,0.));
#467=DIRECTION('ref_axis',(0.,0.,-1.));
#468=DIRECTION('center_axis',(1.,0.,0.));
#469=DIRECTION('ref_axis',(0.,0.,-1.));
#470=DIRECTION('center_axis',(0.,-1.,-1.22464679914735E-16));
#471=DIRECTION('ref_axis',(0.,-1.22464679914735E-16,1.));
#472=DIRECTION('center_axis',(1.,0.,0.));
#473=DIRECTION('ref_axis',(0.,0.,-1.));
#474=DIRECTION('center_axis',(1.,0.,0.));
#475=DIRECTION('ref_axis',(0.,0.,-1.));
#476=DIRECTION('center_axis',(1.,0.,0.));
#477=DIRECTION('ref_axis',(0.,0.,-1.));
#478=DIRECTION('center_axis',(0.,-1.,-1.22464679914735E-16));
#479=DIRECTION('ref_axis',(0.,-1.22464679914735E-16,1.));
#480=DIRECTION('center_axis',(1.,0.,0.));
#481=DIRECTION('ref_axis',(0.,0.,-1.));
#482=DIRECTION('center_axis',(1.,0.,0.));
#483=DIRECTION('ref_axis',(0.,0.,-1.));
#484=DIRECTION('center_axis',(1.,0.,0.));
#485=DIRECTION('ref_axis',(0.,1.,0.));
#486=DIRECTION('center_axis',(1.,0.,0.));
#487=DIRECTION('ref_axis',(0.,0.,-1.));
#488=DIRECTION('',(-1.,0.,0.));
#489=DIRECTION('center_axis',(1.,0.,0.));
#490=DIRECTION('ref_axis',(0.,0.,-1.));
#491=DIRECTION('center_axis',(1.,0.,0.));
#492=DIRECTION('ref_axis',(0.,0.,-1.));
#493=DIRECTION('center_axis',(0.,-1.,-1.22464679914735E-16));
#494=DIRECTION('ref_axis',(0.,-1.22464679914735E-16,1.));
#495=DIRECTION('center_axis',(1.,0.,0.));
#496=DIRECTION('ref_axis',(0.,0.,-1.));
#497=DIRECTION('center_axis',(1.,0.,0.));
#498=DIRECTION('ref_axis',(0.,0.,-1.));
#499=DIRECTION('center_axis',(1.,0.,0.));
#500=DIRECTION('ref_axis',(0.,0.,-1.));
#501=DIRECTION('center_axis',(1.,0.,0.));
#502=DIRECTION('ref_axis',(0.,0.,-1.));
#503=DIRECTION('center_axis',(0.,-1.,-1.22464679914735E-16));
#504=DIRECTION('ref_axis',(0.,-1.22464679914735E-16,1.));
#505=DIRECTION('center_axis',(-1.,0.,0.));
#506=DIRECTION('ref_axis',(0.,1.,0.));
#507=DIRECTION('center_axis',(1.,0.,0.));
#508=DIRECTION('ref_axis',(0.,0.,-1.));
#509=DIRECTION('',(-0.99034554400369,-0.138620718047609,-1.69761418652512E-17));
#510=DIRECTION('center_axis',(1.,0.,0.));
#511=DIRECTION('ref_axis',(0.,0.,-1.));
#512=DIRECTION('center_axis',(1.,0.,0.));
#513=DIRECTION('ref_axis',(0.,0.,-1.));
#514=DIRECTION('center_axis',(1.,0.,0.));
#515=DIRECTION('ref_axis',(0.,0.,-1.));
#516=DIRECTION('center_axis',(0.,-1.,-1.22464679914735E-16));
#517=DIRECTION('ref_axis',(0.,-1.22464679914735E-16,1.));
#518=DIRECTION('center_axis',(1.,0.,0.));
#519=DIRECTION('ref_axis',(0.,0.,-1.));
#520=DIRECTION('center_axis',(1.,0.,0.));
#521=DIRECTION('ref_axis',(0.,0.,-1.));
#522=DIRECTION('center_axis',(1.,0.,0.));
#523=DIRECTION('ref_axis',(0.,1.,0.));
#524=DIRECTION('',(-1.,0.,0.));
#525=CARTESIAN_POINT('',(0.,0.,0.));
#526=CARTESIAN_POINT('Origin',(-47.,9.8260446998186,0.));
#527=CARTESIAN_POINT('',(-47.,-1.20334341899117E-15,9.8260446998186));
#528=CARTESIAN_POINT('Origin',(-47.,0.,0.));
#529=CARTESIAN_POINT('',(-47.,-8.,-9.79717439317883E-16));
#530=CARTESIAN_POINT('Origin',(-47.,0.,0.));
#531=CARTESIAN_POINT('Origin',(-46.8,0.,0.));
#532=CARTESIAN_POINT('',(-46.8277241436095,-10.0241138086193,-1.22759988900144E-15));
#533=CARTESIAN_POINT('',(-46.8277241436095,-1.22759988900144E-15,10.0241138086193));
#534=CARTESIAN_POINT('Origin',(-46.8277241436095,0.,0.));
#535=CARTESIAN_POINT('Origin',(-46.8277241436095,0.,0.));
#536=CARTESIAN_POINT('Origin',(-46.8,-1.20334341899117E-15,9.82604469981861));
#537=CARTESIAN_POINT('Origin',(-42.4831727065001,0.,0.));
#538=CARTESIAN_POINT('',(-38.1386212693906,-11.2403455440037,-1.37654531917743E-15));
#539=CARTESIAN_POINT('',(-38.1386212693906,-1.37654531917743E-15,11.2403455440037));
#540=CARTESIAN_POINT('Origin',(-38.1386212693906,0.,0.));
#541=CARTESIAN_POINT('',(-42.4831727065001,-10.6322296763115,-1.30207260408944E-15));
#542=CARTESIAN_POINT('Origin',(-38.1386212693906,0.,0.));
#543=CARTESIAN_POINT('Origin',(-38.000000551343,0.,0.));
#544=CARTESIAN_POINT('',(-37.000000551343,-1.25526296912604E-15,10.25));
#545=CARTESIAN_POINT('Origin',(-37.000000551343,0.,0.));
#546=CARTESIAN_POINT('Origin',(-38.000000551343,-1.25526296912604E-15,10.25));
#547=CARTESIAN_POINT('Origin',(-36.750000551343,0.,0.));
#548=CARTESIAN_POINT('',(-36.750000551343,-1.22464679914735E-15,10.));
#549=CARTESIAN_POINT('Origin',(-36.750000551343,-1.25526296912604E-15,10.25));
#550=CARTESIAN_POINT('',(-36.750000551343,-10.,-1.22464679914735E-15));
#551=CARTESIAN_POINT('Origin',(-36.750000551343,0.,0.));
#552=CARTESIAN_POINT('Origin',(-36.750000551343,0.,0.));
#553=CARTESIAN_POINT('Origin',(-28.9750002756715,0.,0.));
#554=CARTESIAN_POINT('',(-21.2,-10.,-1.22464679914735E-15));
#555=CARTESIAN_POINT('',(-21.2,-1.22464679914735E-15,10.));
#556=CARTESIAN_POINT('Origin',(-21.2,0.,0.));
#557=CARTESIAN_POINT('',(-28.9750002756715,-10.,-1.22464679914735E-15));
#558=CARTESIAN_POINT('Origin',(-21.2,0.,0.));
#559=CARTESIAN_POINT('Origin',(-21.2,0.,0.));
#560=CARTESIAN_POINT('',(-21.,-1.2491397351303E-15,10.2));
#561=CARTESIAN_POINT('Origin',(-21.2,-1.2491397351303E-15,10.2));
#562=CARTESIAN_POINT('Origin',(-21.,0.,0.));
#563=CARTESIAN_POINT('Origin',(-21.,13.8,0.));
#564=CARTESIAN_POINT('',(-21.,-1.69001258282335E-15,13.8));
#565=CARTESIAN_POINT('Origin',(-21.,0.,0.));
#566=CARTESIAN_POINT('Origin',(-20.8,0.,0.));
#567=CARTESIAN_POINT('',(-20.8,-14.,-1.71450551880629E-15));
#568=CARTESIAN_POINT('',(-20.8,-1.71450551880629E-15,14.));
#569=CARTESIAN_POINT('Origin',(-20.8,0.,0.));
#570=CARTESIAN_POINT('Origin',(-20.8,0.,0.));
#571=CARTESIAN_POINT('Origin',(-20.8,-1.69001258282335E-15,13.8));
#572=CARTESIAN_POINT('Origin',(0.,0.,0.));
#573=CARTESIAN_POINT('',(20.8,-14.,-1.71450551880629E-15));
#574=CARTESIAN_POINT('',(20.8,-1.71450551880629E-15,14.));
#575=CARTESIAN_POINT('Origin',(20.8,0.,0.));
#576=CARTESIAN_POINT('',(0.,-14.,-1.71450551880629E-15));
#577=CARTESIAN_POINT('Origin',(20.8,0.,0.));
#578=CARTESIAN_POINT('Origin',(20.8,0.,0.));
#579=CARTESIAN_POINT('',(21.,-1.69001258282335E-15,13.8));
#580=CARTESIAN_POINT('Origin',(21.,0.,0.));
#581=CARTESIAN_POINT('Origin',(20.8,-1.69001258282335E-15,13.8));
#582=CARTESIAN_POINT('Origin',(21.,10.2,0.));
#583=CARTESIAN_POINT('',(21.,-1.2491397351303E-15,10.2));
#584=CARTESIAN_POINT('Origin',(21.,0.,0.));
#585=CARTESIAN_POINT('Origin',(21.2,0.,0.));
#586=CARTESIAN_POINT('',(21.2,-1.22464679914735E-15,10.));
#587=CARTESIAN_POINT('Origin',(21.2,-1.2491397351303E-15,10.2));
#588=CARTESIAN_POINT('',(21.2,-10.,-1.22464679914735E-15));
#589=CARTESIAN_POINT('Origin',(21.2,0.,0.));
#590=CARTESIAN_POINT('Origin',(21.2,0.,0.));
#591=CARTESIAN_POINT('Origin',(28.9750002756715,0.,0.));
#592=CARTESIAN_POINT('',(36.750000551343,-10.,-1.22464679914735E-15));
#593=CARTESIAN_POINT('',(36.750000551343,-1.22464679914735E-15,10.));
#594=CARTESIAN_POINT('Origin',(36.750000551343,0.,0.));
#595=CARTESIAN_POINT('',(28.9750002756715,-10.,-1.22464679914735E-15));
#596=CARTESIAN_POINT('Origin',(36.750000551343,0.,0.));
#597=CARTESIAN_POINT('Origin',(36.750000551343,0.,0.));
#598=CARTESIAN_POINT('',(37.000000551343,-1.25526296912604E-15,10.25));
#599=CARTESIAN_POINT('Origin',(36.750000551343,-1.25526296912604E-15,10.25));
#600=CARTESIAN_POINT('Origin',(37.000000551343,0.,0.));
#601=CARTESIAN_POINT('Origin',(38.000000551343,0.,0.));
#602=CARTESIAN_POINT('',(38.1386212693906,-11.2403455440037,-1.37654531917743E-15));
#603=CARTESIAN_POINT('',(38.1386212693906,-1.37654531917743E-15,11.2403455440037));
#604=CARTESIAN_POINT('Origin',(38.1386212693906,0.,0.));
#605=CARTESIAN_POINT('Origin',(38.1386212693906,0.,0.));
#606=CARTESIAN_POINT('Origin',(38.000000551343,-1.25526296912604E-15,10.25));
#607=CARTESIAN_POINT('Origin',(42.4831727065001,0.,0.));
#608=CARTESIAN_POINT('',(46.8277241436095,-10.0241138086193,-1.22759988900144E-15));
#609=CARTESIAN_POINT('',(46.8277241436095,-1.22759988900144E-15,10.0241138086193));
#610=CARTESIAN_POINT('Origin',(46.8277241436095,0.,0.));
#611=CARTESIAN_POINT('',(42.4831727065001,-10.6322296763115,-1.30207260408944E-15));
#612=CARTESIAN_POINT('Origin',(46.8277241436095,0.,0.));
#613=CARTESIAN_POINT('Origin',(46.8,0.,0.));
#614=CARTESIAN_POINT('',(47.,-1.20334341899117E-15,9.8260446998186));
#615=CARTESIAN_POINT('Origin',(47.,0.,0.));
#616=CARTESIAN_POINT('Origin',(46.8,-1.20334341899117E-15,9.82604469981861));
#617=CARTESIAN_POINT('Origin',(47.,8.,0.));
#618=CARTESIAN_POINT('',(47.,-8.,-9.79717439317883E-16));
#619=CARTESIAN_POINT('Origin',(47.,0.,0.));
#620=CARTESIAN_POINT('Origin',(0.,0.,0.));
#621=CARTESIAN_POINT('',(0.,-8.,-9.79717439317883E-16));
#622=UNCERTAINTY_MEASURE_WITH_UNIT(LENGTH_MEASURE(0.01),#626,
'DISTANCE_ACCURACY_VALUE',
'Maximum model space distance between geometric entities at asserted c
onnectivities');
#623=UNCERTAINTY_MEASURE_WITH_UNIT(LENGTH_MEASURE(0.01),#626,
'DISTANCE_ACCURACY_VALUE',
'Maximum model space distance between geometric entities at asserted c
onnectivities');
#624=(
GEOMETRIC_REPRESENTATION_CONTEXT(3)
GLOBAL_UNCERTAINTY_ASSIGNED_CONTEXT((#622))
GLOBAL_UNIT_ASSIGNED_CONTEXT((#626,#628,#629))
REPRESENTATION_CONTEXT('','3D')
);
#625=(
GEOMETRIC_REPRESENTATION_CONTEXT(3)
GLOBAL_UNCERTAINTY_ASSIGNED_CONTEXT((#623))
GLOBAL_UNIT_ASSIGNED_CONTEXT((#626,#628,#629))
REPRESENTATION_CONTEXT('','3D')
);
#626=(
LENGTH_UNIT()
NAMED_UNIT(*)
SI_UNIT(.MILLI.,.METRE.)
);
#627=(
LENGTH_UNIT()
NAMED_UNIT(*)
SI_UNIT($,.METRE.)
);
#628=(
NAMED_UNIT(*)
PLANE_ANGLE_UNIT()
SI_UNIT($,.RADIAN.)
);
#629=(
NAMED_UNIT(*)
SI_UNIT($,.STERADIAN.)
SOLID_ANGLE_UNIT()
);
#630=SHAPE_DEFINITION_REPRESENTATION(#631,#632);
#631=PRODUCT_DEFINITION_SHAPE('',$,#634);
#632=SHAPE_REPRESENTATION('',(#336),#624);
#633=PRODUCT_DEFINITION_CONTEXT('part definition',#638,'design');
#634=PRODUCT_DEFINITION('VW_3D0 819 423 for 888.2',
'VW_3D0 819 423 for 888.2 v1',#635,#633);
#635=PRODUCT_DEFINITION_FORMATION('',$,#640);
#636=PRODUCT_RELATED_PRODUCT_CATEGORY('VW_3D0 819 423 for 888.2 v1',
'VW_3D0 819 423 for 888.2 v1',(#640));
#637=APPLICATION_PROTOCOL_DEFINITION('international standard',
'automotive_design',2009,#638);
#638=APPLICATION_CONTEXT(
'Core Data for Automotive Mechanical Design Process');
#639=PRODUCT_CONTEXT('part definition',#638,'mechanical');
#640=PRODUCT('VW_3D0 819 423 for 888.2','VW_3D0 819 423 for 888.2 v1',$,
(#639));
#641=PRESENTATION_STYLE_ASSIGNMENT((#642));
#642=SURFACE_STYLE_USAGE(.BOTH.,#643);
#643=SURFACE_SIDE_STYLE('',(#644));
#644=SURFACE_STYLE_FILL_AREA(#645);
#645=FILL_AREA_STYLE('Steel - Satin',(#646));
#646=FILL_AREA_STYLE_COLOUR('Steel - Satin',#647);
#647=COLOUR_RGB('Steel - Satin',0.627450980392157,0.627450980392157,0.627450980392157);
ENDSEC;
END-ISO-10303-21;
